<?xml version="1.0" encoding="utf-8"?><svg width="193" height="188" viewBox="0 0 193 188" xmlns="http://www.w3.org/2000/svg" xmlns:xlink="http://www.w3.org/1999/xlink"><svg width="19" height="14" viewBox="-4 -4 19 14" id="arrow_down_11x6_black" x="145" y="128" xmlns="http://www.w3.org/2000/svg"><path fill-rule="evenodd" d="M0 .588L.579 0 5.5 4.997 10.421 0 11 .588l-5.21 5.29a.404.404 0 01-.58 0L0 .588z"/></svg><svg width="19" height="14" viewBox="-4 -4 19 14" id="arrow_down_11x6_gray" x="16" y="149" xmlns="http://www.w3.org/2000/svg"><path fill="#AAA" fill-rule="evenodd" d="M10.255 0L5.498 4.644.747.005 0 .633 5.498 6 11 .628z"/></svg><svg width="19" height="14" viewBox="-4 -4 19 14" id="arrow_down_11x6_white" x="35" y="149" xmlns="http://www.w3.org/2000/svg"><path fill="#FFF" fill-rule="evenodd" d="M11 0L5.5 6 0 0z"/></svg><svg width="20" height="15" viewBox="-4 -4 20 15" id="arrow_down_12x7_black" x="109" y="106" xmlns="http://www.w3.org/2000/svg"><path d="M1.008 0L0 1.183 6 7l6-5.817L10.992 0 6 4.84z"/></svg><svg width="20" height="16" viewBox="-4 -4 20 16" id="arrow_down_12x8_black" x="65" y="128" xmlns="http://www.w3.org/2000/svg"><g fill="none" fill-rule="evenodd"><path d="M12 0v8H0V0z"/><path stroke="#000" stroke-width="1.5" d="M11 1L6.01 6 1 1.06"/></g></svg><svg width="22" height="22" fill="none" viewBox="-4 -4 22 22" id="arrow_down_14x14_black" y="106" xmlns="http://www.w3.org/2000/svg"><path d="M1 4l6 6 6-6" stroke="#000" stroke-width="1.5"/></svg><svg width="22" height="16" viewBox="-4 -4 22 16" id="arrow_down_14x8_black" x="22" y="106" xmlns="http://www.w3.org/2000/svg"><path d="M6.66 7.848c.168.177.415.2.603.067l.076-.067 6.5-6.857a.629.629 0 00.028-.807.456.456 0 00-.635-.095l-.071.063L7 6.652.84.151A.455.455 0 00.2.115L.132.184A.635.635 0 00.1.914l.06.077 6.5 6.857z"/></svg><svg width="22" height="16" viewBox="-4 -4 22 16" id="arrow_down_14x8_darkgray" x="44" y="106" xmlns="http://www.w3.org/2000/svg"><path fill="#555" fill-rule="evenodd" d="M7 8a.434.434 0 01-.319-.142L0 .685.638 0 7 6.831 13.363 0 14 .685 7.319 7.858A.434.434 0 017 8"/></svg><svg width="22" height="16" viewBox="-4 -4 22 16" id="arrow_down_14x8_gray" x="66" y="106" xmlns="http://www.w3.org/2000/svg"><path fill="#CCC" fill-rule="evenodd" d="M7 8a.434.434 0 01-.32-.142L0 .685.638 0 7 6.831 13.363 0 14 .685 7.319 7.858a.434.434 0 01-.32.142"/></svg><svg width="22" height="17" viewBox="-4 -4 22 17" id="arrow_down_14x9_darkgray" x="142" xmlns="http://www.w3.org/2000/svg"><path d="M13 1L7.012 7 1 1.072" stroke="#666" stroke-width="1.8" fill="none" fill-rule="evenodd"/></svg><svg width="22" height="16" viewBox="-4 -4 22 16" id="arrow_down_15x10_black" x="142" y="17" xmlns="http://www.w3.org/2000/svg"><path fill-rule="evenodd" d="M7 8a.434.434 0 01-.32-.142L0 .685.638 0 7 6.831 13.363 0 14 .685 7.319 7.858a.434.434 0 01-.32.142"/></svg><svg width="23" height="16" viewBox="-4 -4 23 16" id="arrow_down_15x8_black" x="115" y="88" xmlns="http://www.w3.org/2000/svg"><path fill-rule="evenodd" d="M7.5 8a.502.502 0 01-.354-.146l-7-7A.502.502 0 01.854.146L7.5 6.793 14.146.146a.502.502 0 01.708.708l-7 7A.502.502 0 017.5 8"/></svg><svg width="23" height="16" viewBox="-4 -4 23 16" id="arrow_down_15x8_gray" x="54" y="88" xmlns="http://www.w3.org/2000/svg"><path fill="#BCBCBB" fill-rule="evenodd" d="M7.5 8a.502.502 0 01-.354-.146l-7-7A.502.502 0 01.854.146L7.5 6.793 14.146.146a.502.502 0 01.708.708l-7 7A.502.502 0 017.5 8"/></svg><svg width="27" height="18" viewBox="-4 -4 27 18" id="arrow_down_19x10_darkgray" y="88" xmlns="http://www.w3.org/2000/svg"><path fill="#999" fill-rule="evenodd" d="M9.5 10a.498.498 0 01-.352-.146L0 .704.704 0 9.5 8.798 18.296 0 19 .704l-9.148 9.15A.498.498 0 019.5 10"/></svg><svg width="27" height="18" viewBox="-4 -4 27 18" id="arrow_down_19x10_gray" x="27" y="88" xmlns="http://www.w3.org/2000/svg"><path fill="#CCC" fill-rule="evenodd" d="M9.5 10a.498.498 0 01-.352-.146L0 .704.704 0 9.5 8.798 18.296 0 19 .704l-9.148 9.15A.498.498 0 019.5 10"/></svg><svg width="47" height="18" viewBox="-4 -4 47 18" id="arrow_down_39x10_gray" x="68" xmlns="http://www.w3.org/2000/svg"><defs><filter id="apb" width="102.6%" height="110%" x="-1.3%" y="-5%" filterUnits="objectBoundingBox"><feOffset dy="1" in="SourceAlpha" result="shadowOffsetInner1"/><feComposite in="shadowOffsetInner1" in2="SourceAlpha" k2="-1" k3="1" operator="arithmetic" result="shadowInnerInner1"/><feColorMatrix in="shadowInnerInner1" values="0 0 0 0 0 0 0 0 0 0 0 0 0 0 0 0 0 0 0.08 0"/></filter><path id="apa" d="M204.351 13.108a2 2 0 011.444 3.728l-.146.056-17.5 6c-.36.123-.748.141-1.115.053l-.183-.053-17.5-6a2 2 0 011.147-3.829l.15.045 16.852 5.778 16.851-5.778z"/></defs><g fill="none" fill-rule="evenodd" transform="translate(-168 -13)"><use fill="#EDEDED" xlink:href="#apa"/><use fill="#000" filter="url(#apb)" xlink:href="#apa"/></g></svg><svg width="15" height="12" viewBox="-4 -4 15 12" id="arrow_down_7x4_black" x="164" y="134" xmlns="http://www.w3.org/2000/svg"><path d="M.702 0L0 .618 3.5 4 7 .618 6.298 0 3.5 2.704z"/></svg><svg width="15" height="12" viewBox="-4 -4 15 12" id="arrow_down_7x4_white" x="100" y="88" xmlns="http://www.w3.org/2000/svg"><path fill="#FFF" d="M3.5 2.607L.738 0 0 .697 3.5 4 7 .697 6.262 0z"/></svg><svg width="17" height="14" viewBox="-4 -4 17 14" id="arrow_down_9x6_black" x="73" y="149" xmlns="http://www.w3.org/2000/svg"><path d="M7.946 0L9 1.138 4.5 6 0 1.138 1.054 0 4.5 3.723z"/></svg><svg width="17" height="14" viewBox="-4 -4 17 14" id="arrow_down_9x6_white" x="90" y="149" xmlns="http://www.w3.org/2000/svg"><path fill="#FFF" d="M7.946 0L9 1.138 4.5 6 0 1.138 1.054 0 4.5 3.723z"/></svg><svg width="20" height="15" viewBox="-4 -4 20 15" id="arrow_down_rounded_12x7_black" x="85" y="128" xmlns="http://www.w3.org/2000/svg"><path fill="none" stroke="#333" stroke-linecap="round" stroke-linejoin="round" stroke-width="1.5" d="M1 1l5.003 5L11 1"/></svg><svg width="21" height="16" viewBox="-4 -4 21 16" id="arrow_down_rounded_13x8_gray" x="88" y="106" xmlns="http://www.w3.org/2000/svg"><path fill="#999" d="M6.512 5.89L1.552.493A.75.75 0 00.448 1.507l5.513 6a.75.75 0 001.106 0l5.486-6A.75.75 0 0011.447.493L6.512 5.89z"/></svg><svg width="19" height="26" viewBox="-4 -4 19 26" id="arrow_left_11x18_black" x="115" y="62" xmlns="http://www.w3.org/2000/svg"><g fill="none" fill-rule="evenodd"><path d="M1 .5h10v17H1z"/><path stroke="#000" stroke-width="1.5" d="M10 1L2 8.984 9.904 17"/></g></svg><svg width="23" height="36" viewBox="-4 -4 23 36" id="arrow_left_15x28_white" y="52" xmlns="http://www.w3.org/2000/svg"><path fill="#FFF" fill-rule="evenodd" d="M14.996.683L14.289 0 .147 13.659a.472.472 0 000 .683L14.289 28l.707-.683L1.206 14 14.997.683z"/></svg><svg width="27" height="26" viewBox="-4 -4 27 26" id="arrow_left_19x18_black" x="115" xmlns="http://www.w3.org/2000/svg"><path d="M9.299 0l.683.699L2.026 8H19v1H1.825L10 17.337 9.28 18 0 8.535 9.299 0z"/></svg><svg width="29" height="27" viewBox="-4 -4 29 27" id="arrow_left_21x19_white" x="68" y="18" xmlns="http://www.w3.org/2000/svg"><path fill="#FFF" fill-rule="evenodd" d="M9.297 0L0 9.499 9.297 19l.703-.718L1.895 10h19.106V9H1.895L10 .718z"/></svg><svg width="34" height="52" viewBox="-4 -4 34 52" id="arrow_left_26x44_white" xmlns="http://www.w3.org/2000/svg"><defs><path id="baa" d="M22.283 2L2 22l20.283 20L24 40.307 5.434 22 24 3.694z"/></defs><g fill="none" fill-rule="evenodd" opacity=".8"><use fill="#FFF" xlink:href="#baa"/><path stroke="#000" stroke-opacity=".1" d="M6.146 22l18.566 18.307-2.429 2.395L1.288 22 22.283 1.298l2.43 2.396L6.145 22z"/></g></svg><svg width="14" height="19" viewBox="-4 -4 14 19" id="arrow_left_6x11_black" x="164" y="20" xmlns="http://www.w3.org/2000/svg"><path d="M1.475 5.5L6 .84 5.34 0 0 5.5 5.34 11l.66-.84z"/></svg><svg width="14" height="19" viewBox="-4 -4 14 19" id="arrow_left_6x11_white" x="164" y="39" xmlns="http://www.w3.org/2000/svg"><path fill="none" stroke="#FFF" d="M5 1L1 5.5 5 10"/></svg><svg width="16" height="22" viewBox="-4 -4 16 22" id="arrow_left_8x14_black" x="142" y="33" xmlns="http://www.w3.org/2000/svg"><path d="M7.744 12.652a.763.763 0 01.042 1.1.816.816 0 01-1.13.04l-6.4-5.778a.763.763 0 01-.04-1.1l6.4-6.667A.816.816 0 017.745.21c.323.293.34.785.039 1.1L1.932 7.404l5.812 5.247z"/></svg><svg width="18" height="28" viewBox="-4 -4 18 28" id="arrow_right_10x20_white" x="84" y="52" xmlns="http://www.w3.org/2000/svg"><path fill="#FFF" d="M.146 19.102a.546.546 0 000 .744.483.483 0 00.708 0l9-9.474a.546.546 0 000-.744l-9-9.474a.483.483 0 00-.708 0 .546.546 0 000 .744L8.793 10 .146 19.102z"/></svg><svg width="18" height="29" viewBox="-4 -4 18 29" id="arrow_right_10x21_gray" x="46" y="52" xmlns="http://www.w3.org/2000/svg"><path fill="none" stroke="#666" stroke-width=".5" d="M0 1l10 9.5L0 20"/></svg><svg width="20" height="29" viewBox="-4 -4 20 29" id="arrow_right_12x21_gray" x="64" y="52" xmlns="http://www.w3.org/2000/svg"><path fill="none" stroke="#666" stroke-width=".5" d="M1 1l10 9.5L1 20"/></svg><svg width="23" height="36" viewBox="-4 -4 23 36" id="arrow_right_15x28_white" x="23" y="52" xmlns="http://www.w3.org/2000/svg"><path fill="#FFF" fill-rule="evenodd" d="M.004.683L.711 0l14.142 13.659a.472.472 0 010 .683L.711 28l-.707-.683L13.794 14 .003.683z"/></svg><svg width="34" height="52" viewBox="-4 -4 34 52" id="arrow_right_26x44_white" x="34" xmlns="http://www.w3.org/2000/svg"><defs><path id="bia" d="M22.283 2L2 22l20.283 20L24 40.307 5.434 22 24 3.694z"/></defs><g fill="none" fill-rule="evenodd" opacity=".8" transform="matrix(-1 0 0 1 26 0)"><use fill="#FFF" xlink:href="#bia"/><path stroke="#000" stroke-opacity=".1" d="M6.146 22l18.566 18.307-2.429 2.395L1.288 22 22.283 1.298l2.43 2.396L6.145 22z"/></g></svg><svg width="12" height="14" viewBox="-4 -4 12 14" id="arrow_right_4x10_gray" x="179" y="155" xmlns="http://www.w3.org/2000/svg"><path fill="#D8D8D8" fill-rule="evenodd" d="M0 0v6l4-3z"/></svg><svg width="13" height="18" viewBox="-4 -4 13 18" id="arrow_right_5x10_white" x="179" y="19" xmlns="http://www.w3.org/2000/svg"><path fill="#FFF" fill-rule="evenodd" d="M.122 9.867a.486.486 0 010-.643L3.994 5 .122.777a.486.486 0 010-.644.394.394 0 01.59 0l4.166 4.545a.486.486 0 010 .644L.712 9.867A.401.401 0 01.417 10a.401.401 0 01-.295-.133z"/></svg><svg width="13" height="15" viewBox="-4 -4 13 15" id="arrow_right_5x7_black" x="102" y="52" xmlns="http://www.w3.org/2000/svg"><path d="M0 .68L.647 0 5 3.5.647 7 0 6.32 3.507 3.5z"/></svg><svg width="13" height="16" viewBox="-4 -4 13 16" id="arrow_right_5x8_blue" x="179" y="91" xmlns="http://www.w3.org/2000/svg"><path fill="#4C91E2" d="M0 .941L.584 0 5 4 .584 8 0 7.059 3.377 4z"/></svg><svg width="13" height="16" viewBox="-4 -4 13 16" id="arrow_right_5x8_deepgray" x="179" y="107" xmlns="http://www.w3.org/2000/svg"><path fill="#43454B" fill-rule="evenodd" d="M.838 0L0 .805 3.323 4 0 7.195.838 8 5 4z"/></svg><svg width="13" height="16" viewBox="-4 -4 13 16" id="arrow_right_5x8_gray" x="179" y="123" xmlns="http://www.w3.org/2000/svg"><path fill="#94959D" fill-rule="evenodd" d="M.838 0L0 .805 3.323 4 0 7.195.838 8 5 4z"/></svg><svg width="13" height="16" viewBox="-4 -4 13 16" id="arrow_right_5x8_lightgray" x="179" y="139" xmlns="http://www.w3.org/2000/svg"><path fill="#CCC" fill-rule="evenodd" d="M.734 8L0 7.33 3.746 4 0 .67.734 0l4.114 3.665a.445.445 0 010 .67L.734 8z"/></svg><svg width="14" height="18" viewBox="-4 -4 14 18" id="arrow_right_6x10_gray" x="179" y="37" xmlns="http://www.w3.org/2000/svg"><path fill="#525859" fill-rule="evenodd" d="M5.5 5a.23.23 0 01-.073.167L.852 9.5.5 9.167 4.899 5 .5.833.852.5l4.575 4.333A.23.23 0 015.5 5"/></svg><svg width="14" height="18" viewBox="-4 -4 14 18" id="arrow_right_6x10_lightgray" x="179" y="55" xmlns="http://www.w3.org/2000/svg"><path fill="#CCC" fill-rule="evenodd" d="M.734 10L0 9.33 4.746 5 0 .67.734 0l5.114 4.665a.444.444 0 010 .67L.734 10z"/></svg><svg width="14" height="18" viewBox="-4 -4 14 18" id="arrow_right_6x10_white" x="179" y="73" xmlns="http://www.w3.org/2000/svg"><path fill="#FFF" fill-rule="evenodd" d="M.734 10L0 9.33 4.746 5 0 .67.734 0l5.114 4.665a.444.444 0 010 .67L.734 10z"/></svg><svg width="14" height="19" viewBox="-4 -4 14 19" id="arrow_right_6x11_black" x="164" y="58" xmlns="http://www.w3.org/2000/svg"><path fill-rule="evenodd" d="M.588 11L0 10.421 4.997 5.5 0 .579.588 0l5.29 5.21c.16.155.164.411.009.571l-.009.009L.588 11z"/></svg><svg width="14" height="19" fill="none" viewBox="-4 -4 14 19" id="arrow_right_6x11_black2" x="164" y="77" xmlns="http://www.w3.org/2000/svg"><path d="M.734 10.5L0 9.83 4.746 5.5 0 1.17.734.5l5.114 4.665a.445.445 0 010 .67L.734 10.5z" fill="#333"/></svg><svg width="14" height="19" viewBox="-4 -4 14 19" id="arrow_right_6x11_gray" x="164" y="96" xmlns="http://www.w3.org/2000/svg"><path fill="#ccc" fill-rule="evenodd" d="M.734 11L0 10.263 4.746 5.5 0 .737.734 0l5.114 5.132a.52.52 0 010 .736L.734 11z"/></svg><svg width="14" height="19" viewBox="-4 -4 14 19" id="arrow_right_6x11_white" x="164" y="115" xmlns="http://www.w3.org/2000/svg"><path fill="none" stroke="#FFF" d="M1 1l4 4.5L1 10"/></svg><svg width="14" height="19" viewBox="-4 -4 14 19" id="arrow_right_6x11_white_opacity" x="179" xmlns="http://www.w3.org/2000/svg"><path fill="#FFF" d="M4.036 5.5l.707-.707v1.414L4.036 5.5zm0 0L.5 1.964V.55L5.45 5.5.5 10.45V9.036L4.036 5.5zm0 0l.707-.707v1.414L4.036 5.5zm0 0L.5 1.964V.55L5.45 5.5.5 10.45V9.036L4.036 5.5z" opacity=".4"/></svg><svg width="15" height="20" viewBox="-4 -4 15 20" id="arrow_right_7x12_white" x="164" xmlns="http://www.w3.org/2000/svg"><path fill="#FFF" fill-rule="evenodd" d="M1 .572L5.952 6 1 11.428l.524.572 4.952-5.428L7 6l-.524-.57L1.524 0z"/></svg><svg width="15" height="21" viewBox="-4 -4 15 21" id="arrow_right_7x13_gray" x="97" y="18" xmlns="http://www.w3.org/2000/svg"><path fill="#AAA" fill-rule="evenodd" d="M.686 13L0 12.316 5.83 6.5 0 .684.686 0l6.172 6.158c.19.189.19.495 0 .684L.686 13z"/></svg><svg width="16" height="19" fill="none" viewBox="-4 -4 16 19" id="arrow_right_8x11_white" y="169" xmlns="http://www.w3.org/2000/svg"><path d="M2 10l4.5-4.5L2 1" stroke="#fff"/></svg><svg width="16" height="20" viewBox="-4 -4 16 20" id="arrow_right_8x12_black" y="149" xmlns="http://www.w3.org/2000/svg"><g fill="none" fill-rule="evenodd"><path d="M0 0h8v12H0z"/><path stroke="#000" stroke-width="1.5" d="M1 1l5 4.99L1.06 11"/></g></svg><svg width="16" height="21" viewBox="-4 -4 16 21" id="arrow_right_8x13_gray" y="128" xmlns="http://www.w3.org/2000/svg"><path fill="#9E9E9E" fill-rule="evenodd" stroke="#9E9E9E" stroke-width=".3" d="M1.422 1L1 1.409l5.157 4.998L1 11.405l.422.409L7 6.407z"/></svg><svg width="16" height="22" viewBox="-4 -4 16 22" id="arrow_right_8x14_black" x="142" y="55" xmlns="http://www.w3.org/2000/svg"><path d="M.256 12.652a.763.763 0 00-.042 1.1c.3.314.807.332 1.13.04l6.4-5.778a.763.763 0 00.04-1.1L1.385.247A.816.816 0 00.255.21a.763.763 0 00-.039 1.1l5.853 6.096-5.812 5.247z"/></svg><svg width="17" height="21" fill="none" viewBox="-4 -4 17 21" id="arrow_right_9x13_green" x="16" y="128" xmlns="http://www.w3.org/2000/svg"><path opacity=".6" d="M1.444 1.444L7.222 6.5l-5.778 5.056" stroke="#0BBD56" stroke-width="1.5" stroke-linecap="round" stroke-linejoin="round"/></svg><svg width="17" height="21" viewBox="-4 -4 17 21" id="arrow_right_9x13_mask" x="33" y="128" xmlns="http://www.w3.org/2000/svg"><path fill="#FFF" fill-rule="evenodd" d="M0 0h9v13H0V0zm2 10.398l.756.602L7 6.284 2.74 2l-.724.636 3.66 3.68L2 10.397z"/></svg><svg width="15" height="21" viewBox="-4 -4 15 21" id="arrow_right_rounded_7x13_gray" x="50" y="128" xmlns="http://www.w3.org/2000/svg"><path fill="#999" d="M.444 11.496a.75.75 0 101.112 1.008l5-5.514a.75.75 0 00-.002-1.009l-5-5.486a.75.75 0 00-1.108 1.01l4.54 4.983-4.542 5.008z"/></svg><svg width="19" height="14" viewBox="-4 -4 19 14" id="arrow_up_11x6_black" x="54" y="149" xmlns="http://www.w3.org/2000/svg"><path fill-rule="evenodd" d="M5.25 0a.325.325 0 00-.24.107L0 5.487.479 6 5.25.877 10.022 6l.478-.514L5.49.106A.325.325 0 005.25 0"/></svg><svg width="20" height="15" viewBox="-4 -4 20 15" id="arrow_up_12x7_black" x="105" y="128" xmlns="http://www.w3.org/2000/svg"><path d="M1.008 7L0 5.817 6 0l6 5.817L10.992 7 6 2.16z"/></svg><svg width="22" height="22" fill="none" viewBox="-4 -4 22 22" id="arrow_up_14x14_black" x="142" y="77" xmlns="http://www.w3.org/2000/svg"><path d="M13 10L7 4l-6 6" stroke="#000" stroke-width="1.5"/></svg><svg width="22" height="16" viewBox="-4 -4 22 16" id="arrow_up_15x10_black" x="142" y="99" xmlns="http://www.w3.org/2000/svg"><path fill-rule="evenodd" d="M7 0a.434.434 0 00-.32.142L0 7.315.638 8 7 1.169 13.363 8 14 7.315 7.319.142A.434.434 0 006.999 0"/></svg><svg width="23" height="16" viewBox="-4 -4 23 16" id="arrow_up_15x8_black" x="77" y="88" xmlns="http://www.w3.org/2000/svg"><path fill="#292b2c" fill-rule="evenodd" d="M7.5 0a.502.502 0 00-.354.146l-7 7a.502.502 0 00.708.708L7.5 1.207l6.646 6.647a.502.502 0 00.708-.708l-7-7A.502.502 0 007.5 0"/></svg><svg width="27" height="18" viewBox="-4 -4 27 18" id="arrow_up_19x10_darkgray" x="115" y="26" xmlns="http://www.w3.org/2000/svg"><path fill="#999" fill-rule="evenodd" d="M9.5 0a.498.498 0 00-.352.146L0 9.296.704 10 9.5 1.202 18.296 10 19 9.296 9.852.146A.498.498 0 009.5 0"/></svg><svg width="27" height="18" viewBox="-4 -4 27 18" id="arrow_up_19x10_gray" x="115" y="44" xmlns="http://www.w3.org/2000/svg"><path fill="#CCC" fill-rule="evenodd" d="M9.5 0a.498.498 0 00-.352.146L0 9.296.704 10 9.5 1.202 18.296 10 19 9.296 9.852.146A.498.498 0 009.5 0"/></svg><svg width="16" height="13" viewBox="-4 -4 16 13" id="arrow_up_8x5_white" x="107" y="149" xmlns="http://www.w3.org/2000/svg"><path fill="#FFF" d="M4 2.31L1.202 5 0 3.845 4 0l4 3.845L6.798 5z"/></svg><svg width="20" height="15" viewBox="-4 -4 20 15" id="arrow_up_rounded_12x7_black" x="125" y="128" xmlns="http://www.w3.org/2000/svg"><path fill="none" stroke="#333" stroke-linecap="round" stroke-linejoin="round" stroke-width="1.5" d="M1 6l5.003-5L11 6"/></svg><svg width="17" height="13" viewBox="-4 -4 17 13" id="icon_arrow_down_9x5_gray" x="142" y="115" xmlns="http://www.w3.org/2000/svg"><path fill="#959595" fill-rule="evenodd" d="M8.71.294A.403.403 0 008.138.29l-.005.005L4.5 3.996.868.295A.406.406 0 00.294.289L.29.294a.42.42 0 000 .588l3.92 3.995c.155.16.411.164.571.01l.009-.01L8.711.882a.42.42 0 000-.588z"/></svg></svg>