<?xml version="1.0" encoding="utf-8"?><svg width="261" height="225" viewBox="0 0 261 225" xmlns="http://www.w3.org/2000/svg" xmlns:xlink="http://www.w3.org/1999/xlink"><svg width="22" height="22" viewBox="-4 -4 22 22" id="icon_back_14x14_white" x="237" y="114" xmlns="http://www.w3.org/2000/svg"><path fill="#FFF" fill-rule="evenodd" d="M8.39 3.007H1.902L4.39.682 3.727 0 0 3.482l3.727 3.481.664-.681L1.894 3.95H8.39c2.563 0 4.648 2.043 4.648 4.554 0 2.51-2.085 4.554-4.648 4.554H1.017V14H8.39C11.483 14 14 11.534 14 8.504c0-3.03-2.517-5.497-5.61-5.497"/></svg><svg width="32" height="32" viewBox="-4 -4 32 32" id="icon_blog_24x24" x="40" y="159" xmlns="http://www.w3.org/2000/svg"><g fill="none" fill-rule="evenodd"><circle cx="12" cy="12" r="12" fill="#00C73C"/><path d="M8.674 8.98v1.042c.423.064.507.472.507.941v2.579h1.142V10.75c0-1.118-.677-1.77-1.65-1.77m-2.251 3.712c-.456 0-.721-.297-.721-.684 0-.375.265-.689.721-.689.456 0 .721.314.721.69 0 .386-.265.683-.721.683m.305-2.31c-.363 0-.759.13-.97.397V9.095H4.615v4.447h1.142v-.345c.205.308.583.433.95.433.94 0 1.598-.75 1.598-1.628 0-.874-.643-1.62-1.578-1.62m6.236 2.31c-.456 0-.72-.297-.72-.684 0-.375.264-.689.72-.689.457 0 .722.314.722.69 0 .386-.265.683-.722.683m0-2.31c-1.016 0-1.903.587-1.903 1.626s.892 1.623 1.903 1.623c1.016 0 1.904-.59 1.904-1.623 0-1.04-.888-1.627-1.904-1.627m4.351 2.285c-.457 0-.723-.295-.723-.682 0-.374.266-.689.723-.689.454 0 .72.315.72.689 0 .387-.266.682-.72.682zm.703-2.194v.315h-.033c-.22-.276-.561-.414-.93-.414-.966 0-1.62.763-1.62 1.654 0 .878.644 1.558 1.569 1.558.418 0 .718-.135 1.014-.414v.143c0 .517-.203.857-.806.857h-.209v.984h.221c1.207 0 1.893-.63 1.893-1.923v-2.76h-1.1z" fill="#FFF"/></g></svg><svg width="29" height="29" viewBox="-4 -4 29 29" id="icon_call_21x21_black" x="30" y="195" xmlns="http://www.w3.org/2000/svg"><path fill-rule="evenodd" d="M1.09 4.393A20.11 20.11 0 0016.6 19.909l3.139-3.14-4.83-4.826-2.528 2.527a.523.523 0 01-.666.062 13.836 13.836 0 01-5.214-5.19.523.523 0 01.084-.63L9.13 6.169 4.219 1.261 1.09 4.393zM16.77 21a.517.517 0 01-.102-.01A21.154 21.154 0 01.01 4.324a.522.522 0 01.143-.471L3.85.153a.52.52 0 01.739 0l5.65 5.645a.523.523 0 010 .74L7.61 9.165a12.807 12.807 0 004.317 4.281l2.613-2.61a.522.522 0 01.738-.001l5.569 5.564a.522.522 0 010 .74l-3.709 3.708a.52.52 0 01-.369.153z"/></svg><svg width="29" height="29" viewBox="-4 -4 29 29" id="icon_call_21x21_white" x="59" y="195" xmlns="http://www.w3.org/2000/svg"><path fill="#FFF" fill-rule="evenodd" d="M1.09 4.393A20.11 20.11 0 0016.6 19.909l3.139-3.14-4.83-4.826-2.528 2.527a.523.523 0 01-.666.062 13.836 13.836 0 01-5.214-5.19.523.523 0 01.084-.63L9.13 6.169 4.219 1.261 1.09 4.393zM16.77 21a.517.517 0 01-.102-.01A21.154 21.154 0 01.01 4.324a.522.522 0 01.143-.471L3.85.153a.52.52 0 01.739 0l5.65 5.645a.523.523 0 010 .74L7.61 9.165a12.807 12.807 0 004.317 4.281l2.613-2.61a.522.522 0 01.738-.001l5.569 5.564a.522.522 0 010 .74l-3.709 3.708a.52.52 0 01-.369.153z"/></svg><svg width="25" height="24" viewBox="-4 -4 25 24" id="icon_chart_17x16_black" x="56" y="133" xmlns="http://www.w3.org/2000/svg"><path fill-rule="evenodd" d="M0 0h1v16H0V0zm3 9h1v5H3V9zm3-3h1v8H6V6zm3-2h1v10H9V4zm3 6h1v4h-1v-4zM1 16v-1h16v1H1z"/></svg><svg width="30" height="30" viewBox="-4 -4 30 30" id="icon_chart_22x22_green" x="205" y="60" xmlns="http://www.w3.org/2000/svg"><defs><path id="afa" d="M0 0h22v22H0z"/></defs><g fill="none" fill-rule="evenodd"><mask id="afb" fill="#fff"><use xlink:href="#afa"/></mask><path fill="#55D57D" d="M22 11c0 6.075-4.925 11-11 11S0 17.075 0 11 4.925 0 11 0s11 4.925 11 11" mask="url(#afb)"/><path fill="#FFF" fill-rule="nonzero" d="M5.958 8.25h2.75v7.333h-2.75V8.25zm7.334 0h2.75v7.333h-2.75V8.25zM9.625 5.5h2.75v10.083h-2.75V5.5z"/></g></svg><svg width="23" height="20" fill="none" viewBox="-4 -4 23 20" id="icon_check_15x12_white" x="237" y="94" xmlns="http://www.w3.org/2000/svg"><path d="M2 6.5L5.5 10l8-8" stroke="#fff" stroke-width="1.5"/></svg><svg width="83" height="83" viewBox="-4 -4 83 83" id="icon_exclamation_mask_75x75_white" y="23" xmlns="http://www.w3.org/2000/svg"><path fill="#FFF" fill-rule="evenodd" d="M75 0v75H0V0h75zM37.5 1C17.342 1 1 17.342 1 37.5S17.342 74 37.5 74 74 57.658 74 37.5 57.658 1 37.5 1zm0 1C57.106 2 73 17.894 73 37.5S57.106 73 37.5 73 2 57.106 2 37.5 17.894 2 37.5 2zm0 45a1.5 1.5 0 100 3 1.5 1.5 0 000-3zm0-24a1 1 0 00-1 1v19a1 1 0 002 0V24a1 1 0 00-1-1z"/></svg><svg width="32" height="32" viewBox="-4 -4 32 32" id="icon_facebook_24x24" x="72" y="159" xmlns="http://www.w3.org/2000/svg"><g fill="none" fill-rule="evenodd"><path fill="#3B5998" d="M0 12C0 5.373 5.373 0 12 0s12 5.373 12 12-5.373 12-12 12S0 18.627 0 12z"/><path fill="#FFF" d="M12.86 17.538v-6.005h1.694l.215-1.798h-1.91l.004-1.19c0-.524.05-.805.81-.805h1.085V5.538h-1.682c-1.952 0-2.639 1.17-2.639 2.806v1.391H9.231v1.798h1.206v6.005h2.423z"/></g></svg><svg width="82" height="22" viewBox="-4 -4 82 22" id="icon_fivestar_74x14_red" x="123" xmlns="http://www.w3.org/2000/svg"><g fill="none" fill-rule="evenodd"><path fill="#FF5356" d="M5.374 5.29L5 5.297.5 5.36l3.867 3.049-.104.347-1.277 4.289L7 10.335l.298.2 3.716 2.51-1.38-4.636.284-.224L13.5 5.36l-4.873-.07L7 .618z"/><path stroke="#F43435" stroke-linecap="round" stroke-linejoin="round" d="M7 .617L5.373 5.29 5 5.297.5 5.36l3.866 3.049-.103.347-1.277 4.288L7 10.334l.298.202 3.716 2.508-1.38-4.635.284-.224L13.5 5.36l-4.873-.07z"/><path fill="#FF5356" d="M20.373 5.29L20 5.297l-4.5.064 3.866 3.049-.104.347-1.277 4.289L22 10.335l.3.2 3.715 2.51-1.38-4.636.283-.224L28.5 5.36l-4.874-.07L22 .618z"/><path stroke="#F43435" stroke-linecap="round" stroke-linejoin="round" d="M22 .617L20.373 5.29 20 5.297l-4.5.063 3.866 3.049-.103.347-1.277 4.288L22 10.334l.298.202 3.716 2.508-1.38-4.635.284-.224L28.5 5.36l-4.873-.07z"/><path fill="#FF5356" d="M35.374 5.29L35 5.297l-4.5.064 3.866 3.049-.104.347-1.277 4.289L37 10.335l.299.2 3.716 2.51-1.381-4.636.284-.224L43.5 5.36l-4.872-.07L37 .618z"/><path stroke="#F43435" stroke-linecap="round" stroke-linejoin="round" d="M37 .617L35.373 5.29 35 5.297l-4.5.063 3.866 3.049-.103.347-1.277 4.288L37 10.334l.298.202 3.716 2.508-1.38-4.635.284-.224L43.5 5.36l-4.873-.07z"/><path fill="#FF5356" d="M50.374 5.29L50 5.297l-4.5.064 3.867 3.049-.104.347-1.277 4.289L52 10.335l.298.2 3.716 2.51-1.38-4.636.284-.224L58.5 5.36l-4.873-.07L52 .618z"/><path stroke="#F43435" stroke-linecap="round" stroke-linejoin="round" d="M52 .617L50.373 5.29 50 5.297l-4.5.063 3.866 3.049-.103.347-1.277 4.288L52 10.334l.298.202 3.716 2.508-1.38-4.635.284-.224L58.5 5.36l-4.873-.07z"/><path fill="#FF5356" d="M65.373 5.29L65 5.297l-4.5.064 3.866 3.049-.104.347-1.277 4.289L67 10.335l.3.2 3.715 2.51-1.38-4.636.283-.224L73.5 5.36l-4.874-.07L67 .618z"/><path stroke="#F43435" stroke-linecap="round" stroke-linejoin="round" d="M67 .617L65.373 5.29 65 5.297l-4.5.063 3.866 3.049-.103.347-1.277 4.288L67 10.334l.298.202 3.716 2.508-1.38-4.635.284-.224L73.5 5.36l-4.873-.07z"/></g></svg><svg width="30" height="30" viewBox="-4 -4 30 30" id="icon_g_22x22_gold" x="205" y="90" xmlns="http://www.w3.org/2000/svg"><defs><path id="aka" d="M0 0h22v22H0z"/></defs><g fill="none" fill-rule="evenodd"><mask id="akb" fill="#fff"><use xlink:href="#aka"/></mask><path fill="#BA913F" d="M22 11c0 6.075-4.925 11-11 11S0 17.075 0 11 4.925 0 11 0s11 4.925 11 11" mask="url(#akb)"/><path fill="#FFF" d="M11.443 15.646a5.12 5.12 0 01-1.919-.347 4.418 4.418 0 01-1.488-.962 4.345 4.345 0 01-.97-1.463 4.834 4.834 0 01-.346-1.848V11a4.607 4.607 0 012.824-4.28 4.768 4.768 0 011.886-.366c.402 0 .768.029 1.097.084.33.056.636.134.918.237.282.103.547.231.796.385.248.154.487.33.718.526l-1.245 1.502a5.165 5.165 0 00-.513-.385 3.169 3.169 0 00-1.13-.462 3.58 3.58 0 00-.705-.064 2.3 2.3 0 00-1.008.225c-.312.15-.585.351-.82.604a2.78 2.78 0 00-.553.888c-.133.339-.199.7-.199 1.087v.025c0 .412.066.791.2 1.139.131.347.32.65.564.906.244.258.53.457.86.599.329.141.695.212 1.097.212.736 0 1.356-.18 1.86-.543v-1.292H11.38V10.32h3.901v3.901a6.585 6.585 0 01-1.65 1.007c-.637.278-1.366.418-2.187.418"/></g></svg><svg width="24" height="24" viewBox="-4 -4 24 24" id="icon_goodservice_16x16" x="185" y="195" xmlns="http://www.w3.org/2000/svg"><path fill="#2EB1D4" fill-rule="evenodd" d="M0 16V8h2v8H0zm8.6-9.964h6.007s1.59.11 1.373 1.693l-1.132 6.783A1.778 1.778 0 0113.09 16H3V8.421L6.128 0S8.6.359 8.6 2.924v3.112z"/></svg><svg width="25" height="24" viewBox="-4 -4 25 24" id="icon_house_heart_17x16_black" x="81" y="133" xmlns="http://www.w3.org/2000/svg"><path fill="#4A4A4A" fill-rule="evenodd" d="M10.967 6c-.63 0-1.217-.294-1.609-.806l-.386-.506-.386.505A2.016 2.016 0 016.977 6a2.021 2.021 0 01-1.59-.784l-.381-.483-.381.482A2.025 2.025 0 013.034 6 2.041 2.041 0 011 4.067L2.439 1h9.122L13 4.067A2.04 2.04 0 0110.967 6zm1.224-6L14 3.754v.11c0 1.637-1.356 2.969-3.023 2.969a3.012 3.012 0 01-2-.753 3.01 3.01 0 01-2 .753A3.02 3.02 0 015 6.097a3.04 3.04 0 01-4.018-.05v6.977h7.209V14H0V3.754L1.809 0H12.19zm.3 16L8.71 12.206a2.496 2.496 0 01-.002-3.485 2.392 2.392 0 013.425 0l-.642.635a1.496 1.496 0 00-2.142 0c-.6.61-.6 1.603 0 2.214l3.143 3.152 3.255-3.264c.507-.587.473-1.52-.1-2.102a1.491 1.491 0 00-2.141 0l-1.53 1.54a.522.522 0 00-.003.758c.216.212.57.213.788-.002l1.488-1.491.637.638-1.49 1.495c-.57.56-1.49.56-2.056.002a1.429 1.429 0 010-2.04l1.526-1.536A2.388 2.388 0 0114.578 8c.646 0 1.254.257 1.712.722.9.915.951 2.387.116 3.351L12.492 16z"/></svg><svg width="25" height="24" viewBox="-4 -4 25 24" id="icon_house_heart_17x16_white" x="106" y="133" xmlns="http://www.w3.org/2000/svg"><path fill="#FFF" fill-rule="evenodd" d="M10.967 6c-.63 0-1.217-.294-1.609-.806l-.386-.506-.386.505A2.016 2.016 0 016.977 6a2.021 2.021 0 01-1.59-.784l-.381-.483-.381.482A2.025 2.025 0 013.034 6 2.041 2.041 0 011 4.067L2.439 1h9.122L13 4.067A2.04 2.04 0 0110.967 6zm1.224-6L14 3.754v.11c0 1.637-1.356 2.969-3.023 2.969a3.012 3.012 0 01-2-.753 3.01 3.01 0 01-2 .753A3.02 3.02 0 015 6.097a3.04 3.04 0 01-4.018-.05v6.977h7.209V14H0V3.754L1.809 0H12.19zm.3 16L8.71 12.206a2.496 2.496 0 01-.002-3.485 2.392 2.392 0 013.425 0l-.642.635a1.496 1.496 0 00-2.142 0c-.6.61-.6 1.603 0 2.214l3.143 3.152 3.255-3.264c.507-.587.473-1.52-.1-2.102a1.491 1.491 0 00-2.141 0l-1.53 1.54a.522.522 0 00-.003.758c.216.212.57.213.788-.002l1.488-1.491.637.638-1.49 1.495c-.57.56-1.49.56-2.056.002a1.429 1.429 0 010-2.04l1.526-1.536A2.388 2.388 0 0114.578 8c.646 0 1.254.257 1.712.722.9.915.951 2.387.116 3.351L12.492 16z"/></svg><svg width="56" height="53" viewBox="-4 -4 56 53" id="icon_house_heart_48x45_black" x="123" y="43" xmlns="http://www.w3.org/2000/svg"><path fill-rule="evenodd" d="M31.102 16.624a5.773 5.773 0 01-4.57-2.235l-1.097-1.4-1.096 1.4a5.776 5.776 0 01-4.57 2.235 5.795 5.795 0 01-4.517-2.174l-1.083-1.337-1.083 1.336a5.805 5.805 0 01-4.52 2.175c-3.086 0-5.617-2.378-5.776-5.357l4.087-8.496h25.911l4.088 8.498c-.159 2.977-2.689 5.355-5.774 5.355zM34.54 0l5.127 10.655v.314c0 4.646-3.842 8.425-8.565 8.425a8.525 8.525 0 01-5.667-2.137 8.522 8.522 0 01-5.666 2.137 8.547 8.547 0 01-5.602-2.087 8.544 8.544 0 01-5.6 2.087c-2.23 0-4.259-.85-5.785-2.229V36.23h20.426V39H0V10.655L5.125 0H34.54zm-.065 45L23.13 33.618c-2.838-2.888-2.838-7.574-.006-10.454A7.159 7.159 0 0128.259 21a7.18 7.18 0 015.14 2.164l-1.925 1.905a4.48 4.48 0 00-6.426-.002c-1.8 1.831-1.8 4.81 0 6.642l9.427 9.457 9.767-9.792c1.52-1.76 1.417-4.56-.3-6.307a4.469 4.469 0 00-3.208-1.357 4.486 4.486 0 00-3.216 1.357l-4.592 4.624c-.32.317-.486.706-.486 1.136 0 .43.165.823.48 1.135.646.637 1.708.64 2.362-.005l4.464-4.475 1.912 1.916-4.472 4.483c-1.707 1.683-4.47 1.682-6.166.008a4.286 4.286 0 01-.001-6.12l4.578-4.609A7.164 7.164 0 0140.734 21c1.94 0 3.763.77 5.135 2.166 2.7 2.746 2.854 7.162.35 10.054L34.475 45z"/></svg><svg width="56" height="53" viewBox="-4 -4 56 53" id="icon_house_heart_48x45_white" y="106" xmlns="http://www.w3.org/2000/svg"><path fill="#FFF" fill-rule="evenodd" d="M31.102 16.624a5.773 5.773 0 01-4.57-2.235l-1.097-1.4-1.096 1.4a5.776 5.776 0 01-4.57 2.235 5.795 5.795 0 01-4.517-2.174l-1.083-1.337-1.083 1.336a5.805 5.805 0 01-4.52 2.175c-3.086 0-5.617-2.378-5.776-5.357l4.087-8.496h25.911l4.088 8.498c-.159 2.977-2.689 5.355-5.774 5.355zM34.54 0l5.127 10.655v.314c0 4.646-3.842 8.425-8.565 8.425a8.525 8.525 0 01-5.667-2.137 8.522 8.522 0 01-5.666 2.137 8.547 8.547 0 01-5.602-2.087 8.544 8.544 0 01-5.6 2.087c-2.23 0-4.259-.85-5.785-2.229V36.23h20.426V39H0V10.655L5.125 0H34.54zm-.065 45L23.13 33.618c-2.838-2.888-2.838-7.574-.006-10.454A7.159 7.159 0 0128.259 21a7.18 7.18 0 015.14 2.164l-1.925 1.905a4.48 4.48 0 00-6.426-.002c-1.8 1.831-1.8 4.81 0 6.642l9.427 9.457 9.767-9.792c1.52-1.76 1.417-4.56-.3-6.307a4.469 4.469 0 00-3.208-1.357 4.486 4.486 0 00-3.216 1.357l-4.592 4.624c-.32.317-.486.706-.486 1.136 0 .43.165.823.48 1.135.646.637 1.708.64 2.362-.005l4.464-4.475 1.912 1.916-4.472 4.483c-1.707 1.683-4.47 1.682-6.166.008a4.286 4.286 0 01-.001-6.12l4.578-4.609A7.164 7.164 0 0140.734 21c1.94 0 3.763.77 5.135 2.166 2.7 2.746 2.854 7.162.35 10.054L34.475 45z"/></svg><svg width="22" height="22" fill="none" viewBox="-4 -4 22 22" id="icon_i_circle_14x14_gray" x="237" y="136" xmlns="http://www.w3.org/2000/svg"><path opacity=".2" d="M13.461 7A6.461 6.461 0 11.54 7a6.461 6.461 0 0112.92 0z" stroke="#000" stroke-width="1.077"/><path opacity=".3" d="M7 5.923v4.307" stroke="#000" stroke-width="1.077" stroke-linecap="round"/><circle opacity=".3" cx="7" cy="3.769" fill="#000" r=".538"/></svg><svg width="32" height="32" viewBox="-4 -4 32 32" id="icon_instagram_24x24" x="104" y="159" xmlns="http://www.w3.org/2000/svg"><defs><radialGradient id="arb" cx="35.426%" cy="98.451%" r="121.316%" fx="35.426%" fy="98.451%"><stop offset="0%" stop-color="#FECE6C"/><stop offset="39.507%" stop-color="#D72D7B"/><stop offset="44.557%" stop-color="#D82B73"/><stop offset="55.887%" stop-color="#AE31AB"/><stop offset="100%" stop-color="#515CD2"/></radialGradient><radialGradient id="arc" cx="24.672%" cy="92.325%" r="103.973%" fx="24.672%" fy="92.325%"><stop offset="0%" stop-color="#FED576"/><stop offset="26.335%" stop-color="#F47133"/><stop offset="60.907%" stop-color="#BC3081"/><stop offset="100%" stop-color="#4C63D2"/></radialGradient><path id="ara" d="M0 12C0 5.373 5.373 0 12 0s12 5.373 12 12-5.373 12-12 12S0 18.627 0 12z"/></defs><g fill="none" fill-rule="evenodd"><mask id="ard" fill="#fff"><use xlink:href="#ara"/></mask><use fill="url(#arb)" xlink:href="#ara"/><path fill="url(#arc)" fill-rule="nonzero" d="M5.056 0A5.045 5.045 0 000 5.056v13.888A5.045 5.045 0 005.056 24h13.888A5.045 5.045 0 0024 18.944V5.056A5.045 5.045 0 0018.944 0H5.056z" mask="url(#ard)"/><path fill="#FFF" d="M9.336 5.577c-.688.032-1.157.14-1.568.3a3.164 3.164 0 00-1.145.746c-.36.359-.58.72-.745 1.144-.16.411-.27.88-.3 1.569-.031.689-.04.91-.04 2.664 0 1.755.008 1.974.04 2.664.031.688.14 1.157.3 1.568.165.425.386.785.745 1.145.359.359.72.58 1.144.745.411.16.881.269 1.569.3.689.032.91.04 2.664.04 1.755 0 1.974-.008 2.664-.04.687-.031 1.158-.14 1.569-.3a3.161 3.161 0 001.144-.745c.359-.36.58-.72.745-1.145.16-.41.268-.88.3-1.568.031-.69.04-.91.04-2.664 0-1.755-.009-1.975-.04-2.664-.032-.688-.14-1.158-.3-1.569a3.171 3.171 0 00-.745-1.144c-.36-.36-.72-.58-1.145-.745-.412-.16-.881-.269-1.57-.3-.689-.032-.908-.04-2.663-.04-1.753 0-1.973.008-2.663.04zm2.203.886c1.653 0 2.763.006 3.416.036.603.027.931.128 1.15.213.288.112.494.246.711.463.217.217.351.423.463.713.085.218.186.545.214 1.15.03.652.036.848.036 2.501s-.007 2.789-.036 3.442c-.028.604-.129.931-.214 1.15a1.915 1.915 0 01-.463.71 1.915 1.915 0 01-.712.464c-.218.085-.546.186-1.15.214-.652.03-1.762.036-3.415.036-1.654 0-1.85-.007-2.503-.036-.604-.028-.932-.13-1.15-.214a1.918 1.918 0 01-.712-.463 1.92 1.92 0 01-.464-.712c-.084-.218-.185-.546-.213-1.15-.03-.653-.035-1.788-.035-3.442 0-1.654.005-1.85.035-2.502.028-.604.129-.932.213-1.15a1.92 1.92 0 01.464-.713c.217-.216.423-.35.712-.463.218-.085.546-.186 1.15-.214a35.13 35.13 0 011.947-.034l.556.001zm3.23 1.845a.923.923 0 101.847 0 .923.923 0 00-1.847 0zM8.308 12a3.692 3.692 0 107.384 0 3.692 3.692 0 00-7.384 0zm6.024-.037a2.308 2.308 0 11-4.615 0 2.308 2.308 0 014.615 0z" mask="url(#ard)"/></g></svg><svg width="23" height="25" viewBox="-4 -4 23 25" id="icon_medal_15x17_bronze" x="116" y="195" xmlns="http://www.w3.org/2000/svg"><defs><linearGradient id="asa" x1="32.887%" x2="82.388%" y1="28.725%" y2="84.964%"><stop offset="0%" stop-color="#DCB78B"/><stop offset="100%" stop-color="#D5AA79"/></linearGradient></defs><g fill="none" fill-rule="evenodd"><path fill="#B57F64" d="M15 0H9.104L8 2.642l.133.317c1.822.107 3.48.855 4.777 2.041L15 0zM5.79 0H0l2.053 5C3.387 3.758 5.11 2.992 7 2.945L5.79 0z"/><path fill="url(#asa)" d="M15 9.5a7.5 7.5 0 11-15 0 7.5 7.5 0 0115 0"/><path fill="#FFF" d="M12 9.5a4.5 4.5 0 11-9 0 4.5 4.5 0 019 0"/><path fill="#DBB488" d="M7.5 5.196l-.95 2.836H3.403L6.012 9.7l-1.66 2.982 3.148-1.66 3.044 1.66L8.97 9.7l2.697-1.667H8.373z"/></g></svg><svg width="23" height="25" viewBox="-4 -4 23 25" id="icon_medal_15x17_gold" x="139" y="195" xmlns="http://www.w3.org/2000/svg"><defs><linearGradient id="ata" x1="18.625%" x2="82.388%" y1="12.521%" y2="84.964%"><stop offset="22.367%" stop-color="#F9CD0C"/><stop offset="100%" stop-color="#F8B605"/></linearGradient></defs><g fill="none" fill-rule="evenodd"><path fill="#E29000" d="M15 0H9.104L8 2.642l.133.317c1.822.107 3.48.855 4.777 2.041L15 0zM5.79 0H0l2.053 5C3.387 3.758 5.11 2.992 7 2.945L5.79 0z"/><path fill="url(#ata)" d="M15 9.5a7.5 7.5 0 11-15 0 7.5 7.5 0 0115 0"/><path fill="#FFF" d="M12 9.5a4.5 4.5 0 11-9 0 4.5 4.5 0 019 0"/><path fill="#F8B204" d="M7.5 5.196l-.95 2.836H3.403L6.012 9.7l-1.66 2.982 3.148-1.66 3.044 1.66L8.97 9.7l2.697-1.667H8.373z"/></g></svg><svg width="23" height="25" viewBox="-4 -4 23 25" id="icon_medal_15x17_silver" x="162" y="195" xmlns="http://www.w3.org/2000/svg"><defs><linearGradient id="aua" x1="32.887%" x2="82.388%" y1="28.725%" y2="84.964%"><stop offset="0%" stop-color="#A9B6BD"/><stop offset="100%" stop-color="#9FAFB7"/></linearGradient></defs><g fill="none" fill-rule="evenodd"><path fill="#8394A1" d="M15 0H9.104L8 2.642l.133.317c1.822.107 3.48.855 4.777 2.041L15 0zM5.79 0H0l2.053 5C3.387 3.758 5.11 2.992 7 2.945L5.79 0z"/><path fill="url(#aua)" d="M15 9.5a7.5 7.5 0 11-15 0 7.5 7.5 0 0115 0"/><path fill="#FFF" d="M12 9.5a4.5 4.5 0 11-9 0 4.5 4.5 0 019 0"/><path fill="#9EAEB6" d="M7.5 5.196l-.95 2.836H3.403L6.012 9.7l-1.66 2.982 3.148-1.66 3.044 1.66L8.97 9.7l2.697-1.667H8.373z"/></g></svg><svg width="23" height="26" viewBox="-4 -4 23 26" id="icon_medal_15x18_platinum" x="179" y="43" xmlns="http://www.w3.org/2000/svg"><g fill="none" fill-rule="evenodd"><path fill="#4791BA" d="M15 0H9.104L8 2.642l.133.317c1.822.107 3.48.855 4.777 2.041L15 0zM5.79 0H0l2.053 5C3.387 3.758 5.11 2.992 7 2.945L5.79 0z"/><path fill="#5FB0D8" fill-rule="nonzero" d="M0 5.27v8.534l7.619 4.267L15 13.804V5.269L7.619 1.002z"/><path fill="#FFF" fill-rule="nonzero" d="M3 6.809v5.355L7.61 15 12 12.164V6.81L7.61 4z"/><path fill="#5FB0D8" d="M7.5 5.196l-.95 2.836H3.403L6.012 9.7l-1.66 2.982 3.148-1.66 3.044 1.66L8.97 9.7l2.697-1.667H8.373z"/></g></svg><svg width="76" height="21" viewBox="-4 -4 76 21" id="icon_naver_68x13_gray" x="123" y="22" xmlns="http://www.w3.org/2000/svg"><path d="M19.5 0l-5.098 13h4.333l.616-1.72h4.886l.616 1.72h4.333L24.088 0H19.5zm2.294 4.096l1.453 4.06h-2.906l1.453-4.06zM43.079 0v13h10.26V9.814H47.22V8.06h5.926V4.94H47.22V3.186h5.99V0zm-5.672 0l-3.059 8.548L31.29 0h-4.333l5.098 13h4.588L41.74 0zM8.858 0v6.958L4.015 0H0v13h4.206V6.042L9.049 13h4.015V0zm52.765 6.054h-2.231v-2.74h2.23a1.37 1.37 0 010 2.74zm2.83 2.486l.395-.165c1.51-.632 2.279-2 2.279-3.737 0-1.642-.599-2.857-1.78-3.61C64.249.325 62.825 0 60.865 0h-5.488v13h4.079V9.368h1.466L63.407 13h4.333l-3.286-4.46z" fill="#B3BBC1" fill-rule="evenodd"/></svg><svg width="32" height="32" viewBox="-4 -4 32 32" id="icon_naver_tv_24x24" x="136" y="159" xmlns="http://www.w3.org/2000/svg"><defs><linearGradient id="axa" x1="50%" x2="50%" y1="77.135%" y2="27.808%"><stop offset="0%" stop-color="#FFF"/><stop offset="100%" stop-color="#FFF" stop-opacity=".7"/></linearGradient></defs><g fill="none"><circle cx="11.981" cy="11.981" r="11.981" fill="#00DE7B"/><path fill="url(#axa)" d="M8.109 7.397h3.293v9.196H8.109z"/><path fill="#FFF" d="M18.551 11.108a1.646 1.646 0 01-.524 2.269L10.63 18a1.646 1.646 0 11-1.745-2.792l7.398-4.624a1.646 1.646 0 012.269.524z"/><path fill="#FFF" d="M8.36 6.485a1.646 1.646 0 012.268-.524l7.4 4.624a1.646 1.646 0 11-1.745 2.792l-7.4-4.623a1.646 1.646 0 01-.523-2.269z"/></g></svg><svg width="123" height="23" viewBox="-4 -4 123 23" id="icon_nologo_115x15_gray" xmlns="http://www.w3.org/2000/svg"><path fill="#BEBEBE" d="M13.36 12.488V11H7.824V8.776h4.32V7.272h-8.16V5.544h7.744V.92h-9.68v1.488h7.824v1.648H2.128v4.72h3.824V11H.48v1.488h12.88zm11.76-3.152c.496-1.888.672-4.496.608-8.08H15.696V2.76h8.144c.048 1.968-.064 4.704-.512 6.352l1.792.224zm2.08 2.928v-1.488h-6.384v-4.8h-1.872v4.8H14.32v1.488H27.2zm12.416-6.496V4.44h-7.888v-.736h7.584V.456h-9.488v1.328h7.6v.752h-7.568v3.232h9.76zm1.424 2.128V6.52H28.16v1.376h12.88zm-1.312 6.208V12.76h-8.064v-.736h7.728V8.696h-9.664v1.344h7.808v.752h-7.744v3.312h9.936zm17.856-8.72V3.896h-7.792V1.928h7.68V.424H47.92v4.96h9.664zm1.504 2.624V6.52h-12.88v1.488h12.88zM52.656 14.2c3.152 0 4.96-1.008 4.96-2.64 0-1.648-1.808-2.672-4.976-2.672-3.136 0-4.944 1.024-4.944 2.672 0 1.632 1.808 2.64 4.96 2.64zm-.016-1.472c-1.84 0-3.024-.432-3.024-1.152 0-.752 1.184-1.2 3.024-1.2 1.856 0 3.056.448 3.056 1.2 0 .72-1.2 1.152-3.056 1.152zm20.288-3.712V7.512h-5.536V6.424H71.6V5.016h-7.984v-.928H71.2V.472h-9.504V1.88h7.632v.88h-7.584v3.664h3.776v1.088h-5.472v1.504h12.88zm-1.664 5.264V9.832h-9.696v1.504h7.84v2.944h1.856zm13.776-.016V7.336h1.984V5.784H85.04V.008h-1.888v14.256h1.888zM80.224 2.408V.936h-4.4v1.472h4.4zm1.872 2.48V3.4h-8.272v1.488h8.272zm-4.128 6.64c2.048 0 3.44-1.328 3.44-3.072 0-1.792-1.392-3.072-3.44-3.072s-3.44 1.328-3.44 3.072c0 1.808 1.392 3.072 3.44 3.072zm0-1.52c-.944 0-1.616-.624-1.616-1.552 0-.944.688-1.568 1.616-1.568.928 0 1.616.624 1.616 1.568 0 .928-.576 1.552-1.616 1.552zm21.888 4.256V.008H98.08v14.256h1.776zm-2.848-.656V.28h-1.744v4.64h-1.92v1.52h1.92v7.168h1.744zm-8.528-2.464c1.328-.8 2.4-2.272 2.8-3.76.368 1.408 1.648 2.832 2.592 3.408l1.056-1.328c-1.728-1.04-2.768-3.2-2.768-5.968V1.384h-1.792v2.128c0 3.04-1.184 5.184-2.992 6.352l1.104 1.28zm19.536-2.768c3.136 0 5.2-1.568 5.2-3.744 0-2.192-2.064-3.792-5.2-3.792-3.12 0-5.184 1.6-5.184 3.792 0 2.176 2.064 3.744 5.184 3.744zm0-1.536c-1.984 0-3.264-.928-3.264-2.208 0-1.296 1.28-2.224 3.264-2.224 1.984 0 3.28.928 3.28 2.224 0 1.28-1.312 2.208-3.28 2.208zm6.432 5.648v-1.504h-2.912V8.616l-1.872.08v2.288h-3.344V8.696l-1.872-.08v2.368h-2.88v1.504h12.88z"/></svg><svg width="56" height="27" fill="none" viewBox="-4 -4 56 27" id="icon_npay_48x19_green" x="56" y="106" xmlns="http://www.w3.org/2000/svg"><g clip-path="url(#aza)"><path d="M23.5 3.879h4.115c2.615 0 3.748 1.33 3.748 3.108v.315c0 1.766-1.208 3.274-3.748 3.274H25.44v4.18h-1.937L23.5 3.878zm1.937 1.616v3.453h1.92c1.27 0 2.044-.416 2.044-1.662v-.27c0-1.193-.774-1.508-1.878-1.508l-2.086-.013zm6.788 7.059v-.478c0-1.359.8-2.368 3.144-2.368h1.907v-.32c0-1.026-.454-1.446-1.482-1.446a3.72 3.72 0 00-2.361.831l-.937-1.392a5.627 5.627 0 013.31-1.113c1.954 0 3.361.98 3.361 2.655v5.816h-1.712l-.029-1.026c-.316.74-1.499 1.146-2.373 1.146-1.787.017-2.828-.843-2.828-2.305zm5.051-1.371h-1.84c-1 0-1.345.415-1.345 1.055v.178c0 .545.391.86 1.132.86a2.267 2.267 0 001.724-.556c.35-.333.35-.694.35-1.313l-.02-.224zm4.823-4.741l1.89 6.14h.063l1.903-6.14h2.028l-4.327 11.77-1.782-.619 1.075-2.73-2.932-8.42h2.082zM0 .194v18.612h18.657V.194H0z" fill="#03C75A"/><path d="M13.993 14.153h-2.866l-3.46-4.981v4.981H4.664V4.847H7.53l3.461 4.981V4.847h3.003v9.306z" fill="#fff"/></g><defs><clipPath id="aza"><path fill="#fff" transform="translate(0 .194)" d="M0 0h48v18.612H0z"/></clipPath></defs></svg><svg width="24" height="24" viewBox="-4 -4 24 24" id="icon_question_circle_16x16_black" x="209" y="195" xmlns="http://www.w3.org/2000/svg"><defs><circle id="baa" cx="8" cy="8" r="8"/></defs><g fill="none" fill-rule="evenodd"><use fill="#FFF" xlink:href="#baa"/><circle cx="8" cy="8" r="7.5" stroke="#E5E5E5"/><path fill="#000" d="M6.037 6.656h1.007c.034-.505.39-.826.943-.826.54 0 .9.313.9.744 0 .403-.18.623-.712.928-.591.33-.84.695-.801 1.297l.004.29h.994v-.237c0-.407.159-.618.72-.927.582-.33.908-.765.908-1.387C10 5.643 9.216 5 8.042 5c-1.272 0-1.97.7-2.005 1.656zM7.888 11c.347 0 .621-.256.621-.578 0-.321-.274-.573-.621-.573s-.625.252-.625.573c0 .322.278.578.625.578z"/></g></svg><svg width="40" height="36" viewBox="-4 -4 40 36" id="icon_rank1_32x28_gold" x="83" y="23" xmlns="http://www.w3.org/2000/svg"><path d="M23.237 26.222c.416-.022.926.16 1.345.337.413.17.725.337.725.337s-.285.291-.717.559c-.417.288-.984.537-1.441.545-.923.011-1.561-.481-1.496-.957.028-.244.22-.435.503-.576.275-.155.657-.232 1.081-.245zm-.536-.905a1.925 1.925 0 01-.73.774c-.273.14-.546.14-.729-.001-.371-.297-.277-1.056.062-1.712.17-.331.52-.584.813-.799.304-.192.556-.335.556-.335s.11.333.165.762c.052.418.045.94-.137 1.311zm2.025-4.048s.18.293.337.696c.163.409.271.908.178 1.308a1.745 1.745 0 01-.522.934c-.224.212-.483.287-.702.189-.435-.198-.522-.946-.356-1.679.1-.351.355-.714.606-.978.13-.128.232-.258.32-.338l.14-.132zm1.252 2.749c.403-.12.95-.06 1.383-.005.439.063.785.154.785.154l-.15.218c-.099.13-.224.323-.406.5-.35.365-.812.772-1.265.879-.882.25-1.626-.075-1.677-.549-.026-.236.11-.475.341-.69.237-.212.591-.379.989-.507zm3.482-3.142c.445-.043.805-.036.805-.036s-.14.38-.376.83c-.253.437-.617.936-1.02 1.156-.816.44-1.582.33-1.754-.124-.182-.466.284-1.057 1.006-1.489.379-.203.892-.295 1.34-.337zm-3.89-.361c.003-.375.18-.783.36-1.103.163-.33.341-.568.341-.568s.24.24.482.594c.24.35.492.828.479 1.23.012.827-.476 1.465-.922 1.393-.46-.077-.752-.807-.74-1.546zm2.414-1.286c-.463.036-.913-.603-1.067-1.324-.105-.374.019-.799.093-1.163.088-.36.21-.633.21-.633s.289.178.602.464c.309.283.659.687.75 1.085.08.392.068.786-.045 1.075-.12.287-.312.477-.543.496zm1.576-1.252c.31-.29.793-.5 1.223-.646a8.16 8.16 0 01.777-.224s-.052.401-.185.892c-.117.494-.402 1.05-.72 1.366-.696.619-1.469.696-1.74.295-.138-.2-.13-.479-.005-.772.119-.296.329-.621.65-.91zm-.592-1.899c-.45.143-1.012-.369-1.34-1.039-.175-.34-.161-.784-.167-1.158a4.33 4.33 0 01.038-.474c.02-.122.025-.191.025-.191s.33.102.692.31c.366.205.783.518.975.885.167.363.23.748.197 1.057-.048.308-.2.537-.42.61zm3.026-2.631c.007.163.01.39-.002.643-.006.506-.147 1.112-.395 1.493-.522.765-1.278 1.02-1.625.695-.18-.163-.228-.433-.176-.749.037-.318.182-.681.43-1.038.222-.357.66-.671 1.043-.912.387-.237.702-.4.702-.4s.02.106.023.268zm-2.963-2.322c.253.304.407.66.45.967.032.31-.069.568-.265.69-.409.245-1.062-.118-1.543-.66-.252-.275-.345-.689-.448-1.035a3.857 3.857 0 01-.08-.451c-.013-.117-.031-.188-.031-.188s.35.007.75.1c.404.092.885.276 1.167.577zm.861.925c-.043-.318.01-.708.159-1.121.12-.405.46-.831.765-1.174.31-.343.565-.584.565-.584s.05.091.098.251c.05.16.113.385.17.638.13.502.147 1.144 0 1.587-.314.895-1.003 1.325-1.412 1.09-.213-.116-.316-.368-.345-.687zm-2.93-2.716c-.306-.206-.521-.585-.705-.906-.086-.163-.147-.316-.194-.427l-.081-.177s.341-.078.76-.088c.414-.011.924.047 1.27.267.335.222.562.531.686.815.122.286.084.566-.07.738-.33.35-1.047.18-1.666-.222zM29.6 9.23c-.452-.117-.715-.823-.652-1.684.018-.424.244-.922.458-1.33.213-.404.405-.7.405-.7l.156.214c.089.137.2.336.314.563.241.446.431 1.044.393 1.509a1.98 1.98 0 01-.394 1.108c-.202.254-.448.372-.68.32zm-4.624-4.004c.406-.102.915-.157 1.298-.019.752.288 1.206.948.965 1.369-.114.21-.364.32-.666.344a2.554 2.554 0 01-1.013-.165 1.497 1.497 0 01-.483-.318 3.104 3.104 0 01-.42-.422c-.231-.293-.41-.536-.41-.536s.313-.144.729-.253zm3.127.794c-.467.001-.888-.625-1.019-1.474-.073-.417.043-.955.166-1.396.114-.432.247-.767.247-.767s.311.245.618.64c.156.194.32.416.453.646.122.24.216.486.25.714.073.45.012.862-.13 1.16-.138.295-.349.47-.585.477zm-5.238-2.983c.348-.175.78-.308 1.144-.258.366.044.663.212.87.398.208.185.299.414.236.623-.128.418-.777.574-1.449.479-.326-.062-.67-.28-.937-.49l-.328-.277-.132-.12s.25-.184.596-.355zm2.267-.137c-.21-.192-.384-.505-.529-.855-.14-.354-.126-.858-.103-1.259.025-.403.083-.723.083-.723l.2.117c.124.073.29.184.458.329.344.28.725.664.857 1.06.288.768.081 1.477-.328 1.573-.205.05-.428-.05-.638-.242zM22.2 1.596c-.286-.223-.525-.627-.708-.96-.18-.34-.296-.628-.296-.628s.34-.027.76.018c.417.062.92.164 1.22.421.61.483.792 1.147.507 1.438-.14.14-.373.187-.635.132-.262-.06-.559-.207-.848-.42zM9.844 26.466c.282.142.475.333.503.577.065.476-.573.968-1.496.957-.457-.008-1.024-.257-1.44-.545-.433-.268-.718-.559-.718-.559s.312-.168.725-.337c.419-.177.929-.359 1.345-.337.423.013.805.09 1.081.245zm.039-2.887c.293.215.642.467.813.8.339.655.433 1.414.062 1.71-.184.143-.456.142-.729.003a1.921 1.921 0 01-.73-.775c-.182-.37-.189-.893-.137-1.311.056-.429.165-.762.165-.762s.251.143.556.335zm-2.531 1.636c-.05.474-.795.798-1.677.549-.453-.107-.914-.514-1.266-.878-.18-.178-.306-.37-.405-.5l-.15-.22s.347-.09.785-.153c.433-.055.98-.114 1.383.005.397.128.752.295.989.506.232.216.367.455.34.691zm.062-3.814c.087.08.188.21.319.338.25.264.506.627.606.978.166.733.079 1.482-.356 1.679-.219.098-.478.023-.702-.19a1.745 1.745 0 01-.522-.933c-.094-.4.015-.9.178-1.308.157-.403.337-.696.337-.696l.14.132zm-1.724.66c-.447.072-.934-.566-.922-1.393-.013-.402.24-.88.479-1.23.242-.353.481-.595.481-.595s.179.238.341.568c.181.32.358.73.362 1.104.01.74-.282 1.47-.741 1.546zm-.806.641c-.17.454-.937.563-1.754.124-.401-.22-.766-.719-1.02-1.157-.236-.45-.375-.83-.375-.83s.36-.006.805.037c.447.042.96.133 1.34.337.721.432 1.187 1.023 1.004 1.49zM3.085 19.66c-.271.4-1.044.324-1.741-.295-.317-.316-.603-.872-.72-1.366-.132-.49-.184-.891-.184-.891s.352.078.777.223c.43.146.912.355 1.223.646.32.29.532.615.65.911.126.294.133.571-.005.772zm.931-.43c-.23-.02-.422-.21-.543-.497-.113-.289-.126-.683-.044-1.075.09-.398.44-.802.749-1.085.313-.286.601-.464.601-.464s.123.274.21.633c.075.364.199.789.094 1.163-.154.721-.604 1.36-1.067 1.324zm-1.988-2.953c-.348.325-1.103.071-1.625-.694-.248-.381-.39-.987-.395-1.493a7.613 7.613 0 01-.002-.643c.002-.162.023-.267.023-.267s.315.162.702.399c.384.24.82.555 1.044.912.247.357.392.72.429 1.039.052.315.004.585-.176.748zm1.003-.199c-.22-.073-.371-.302-.42-.61a2.09 2.09 0 01.198-1.057c.191-.367.609-.68.975-.884.362-.209.692-.311.692-.311s.004.07.024.191c.017.12.035.287.04.474-.007.374.007.819-.169 1.158-.327.67-.89 1.182-1.34 1.04zm-.513-3.986a2.03 2.03 0 01.45-.967c.283-.3.763-.485 1.168-.576.4-.094.75-.1.75-.1s-.017.07-.03.187a4.076 4.076 0 01-.081.45c-.103.347-.196.761-.448 1.036-.481.542-1.135.905-1.543.661-.196-.122-.297-.382-.266-.69zm-.756.645c-.408.235-1.097-.195-1.412-1.09-.147-.443-.13-1.085.001-1.587a8.37 8.37 0 01.17-.638c.049-.16.097-.251.097-.251s.256.24.566.584c.305.343.645.769.765 1.174.148.413.202.803.159 1.12-.03.32-.132.572-.346.688zm3.276-3.403c-.619.402-1.335.572-1.667.222-.153-.172-.19-.452-.07-.738a1.92 1.92 0 01.687-.815c.346-.22.856-.278 1.27-.267.419.01.76.088.76.088L5.938 8c-.048.111-.11.264-.195.427-.184.32-.4.7-.705.906zM2.4 9.23c-.233.052-.478-.066-.68-.32a1.99 1.99 0 01-.394-1.108c-.038-.465.152-1.063.392-1.509a6.33 6.33 0 01.315-.563l.156-.213s.192.295.405.7c.213.407.44.905.458 1.329.063.861-.2 1.567-.652 1.684zm2.361-2.654c-.24-.422.214-1.082.965-1.369.383-.138.892-.083 1.298.019.417.109.728.253.728.253s-.177.243-.409.536a3.13 3.13 0 01-.42.421 1.5 1.5 0 01-.483.32 2.562 2.562 0 01-1.012.164c-.303-.024-.553-.135-.667-.344zm-.864-.556c-.237-.007-.447-.182-.585-.477-.142-.298-.203-.71-.13-1.16.033-.228.127-.474.25-.714.133-.23.296-.452.453-.646.307-.395.618-.64.618-.64s.133.335.247.767c.123.441.239.979.166 1.396-.131.85-.552 1.475-1.019 1.474zM6.23 3.142c-.41-.096-.616-.805-.328-1.573.132-.396.513-.78.857-1.06A3.22 3.22 0 017.218.18l.2-.117s.058.32.083.723c.022.401.037.906-.103 1.26-.145.349-.32.662-.529.855-.21.19-.433.29-.638.241zm.655.658c-.063-.209.028-.438.237-.623.206-.186.503-.354.869-.398.363-.05.796.083 1.144.258.347.171.596.355.596.355l-.132.12-.329.278c-.265.209-.61.427-.936.49-.672.094-1.321-.062-1.449-.48zm2.067-1.783c-.262.055-.494.009-.635-.132-.285-.292-.103-.956.507-1.438.3-.257.803-.358 1.22-.421.42-.044.76-.018.76-.018s-.115.289-.296.628c-.183.333-.422.737-.708.96-.29.214-.586.361-.848.421zM15.779 19H18V8h-2.229L13 9.974v2.074l2.734-1.936h.045z" fill="#F0BE24" fill-rule="evenodd"/></svg><svg width="40" height="36" viewBox="-4 -4 40 36" id="icon_rank2_32x28_silver" x="83" y="59" xmlns="http://www.w3.org/2000/svg"><path d="M23.237 26.222c.416-.022.926.16 1.345.337.413.17.725.337.725.337s-.285.291-.717.559c-.417.288-.984.537-1.441.545-.923.011-1.561-.481-1.496-.957.028-.244.22-.435.503-.576.275-.155.657-.232 1.081-.245zm-.536-.905a1.925 1.925 0 01-.73.774c-.273.14-.546.14-.729-.001-.371-.297-.277-1.056.062-1.712.17-.331.52-.584.813-.799.304-.192.556-.335.556-.335s.11.333.165.762c.052.418.045.94-.137 1.311zm2.025-4.048s.18.293.337.696c.163.409.271.908.178 1.308a1.745 1.745 0 01-.522.934c-.224.212-.483.287-.702.189-.435-.198-.522-.946-.356-1.679.1-.351.355-.714.606-.978.13-.128.232-.258.32-.338l.14-.132zm1.252 2.749c.403-.12.95-.06 1.383-.005.439.063.785.154.785.154l-.15.218c-.099.13-.224.323-.406.5-.35.365-.812.772-1.265.879-.882.25-1.626-.075-1.677-.549-.026-.236.11-.475.341-.69.237-.212.591-.379.989-.507zm3.482-3.142c.445-.043.805-.036.805-.036s-.14.38-.376.83c-.253.437-.617.936-1.02 1.156-.816.44-1.582.33-1.754-.124-.182-.466.284-1.057 1.006-1.489.379-.203.892-.295 1.34-.337zm-3.89-.361c.003-.375.18-.783.36-1.103.163-.33.341-.568.341-.568s.24.24.482.594c.24.35.492.828.479 1.23.012.827-.476 1.465-.922 1.393-.46-.077-.752-.807-.74-1.546zm2.414-1.286c-.463.036-.913-.603-1.067-1.324-.105-.374.019-.799.093-1.163.088-.36.21-.633.21-.633s.289.178.602.464c.309.283.659.687.75 1.085.08.392.068.786-.045 1.075-.12.287-.312.477-.543.496zm1.576-1.252c.31-.29.793-.5 1.223-.646a8.16 8.16 0 01.777-.224s-.052.401-.185.892c-.117.494-.402 1.05-.72 1.366-.696.619-1.469.696-1.74.295-.138-.2-.13-.479-.005-.772.119-.296.329-.621.65-.91zm-.592-1.899c-.45.143-1.012-.369-1.34-1.039-.175-.34-.161-.784-.167-1.158a4.33 4.33 0 01.038-.474c.02-.122.025-.191.025-.191s.33.102.692.31c.366.205.783.518.975.885.167.363.23.748.197 1.057-.048.308-.2.537-.42.61zm3.026-2.631c.007.163.01.39-.002.643-.006.506-.147 1.112-.395 1.493-.522.765-1.278 1.02-1.625.695-.18-.163-.228-.433-.176-.749.037-.318.182-.681.43-1.038.222-.357.66-.671 1.043-.912.387-.237.702-.4.702-.4s.02.106.023.268zm-2.963-2.322c.253.304.407.66.45.967.032.31-.069.568-.265.69-.409.245-1.062-.118-1.543-.66-.252-.275-.345-.689-.448-1.035a3.857 3.857 0 01-.08-.451c-.013-.117-.031-.188-.031-.188s.35.007.75.1c.404.092.885.276 1.167.577zm.861.925c-.043-.318.01-.708.159-1.121.12-.405.46-.831.765-1.174.31-.343.565-.584.565-.584s.05.091.098.251c.05.16.113.385.17.638.13.502.147 1.144 0 1.587-.314.895-1.003 1.325-1.412 1.09-.213-.116-.316-.368-.345-.687zm-2.93-2.716c-.306-.206-.521-.585-.705-.906-.086-.163-.147-.316-.194-.427l-.081-.177s.341-.078.76-.088c.414-.011.924.047 1.27.267.335.222.562.531.686.815.122.286.084.566-.07.738-.33.35-1.047.18-1.666-.222zM29.6 9.23c-.452-.117-.715-.823-.652-1.684.018-.424.244-.922.458-1.33.213-.404.405-.7.405-.7l.156.214c.089.137.2.336.314.563.241.446.431 1.044.393 1.509a1.98 1.98 0 01-.394 1.108c-.202.254-.448.372-.68.32zm-4.624-4.004c.406-.102.915-.157 1.298-.019.752.288 1.206.948.965 1.369-.114.21-.364.32-.666.344a2.554 2.554 0 01-1.013-.165 1.497 1.497 0 01-.483-.318 3.104 3.104 0 01-.42-.422c-.231-.293-.41-.536-.41-.536s.313-.144.729-.253zm3.127.794c-.467.001-.888-.625-1.019-1.474-.073-.417.043-.955.166-1.396.114-.432.247-.767.247-.767s.311.245.618.64c.156.194.32.416.453.646.122.24.216.486.25.714.073.45.012.862-.13 1.16-.138.295-.349.47-.585.477zm-5.238-2.983c.348-.175.78-.308 1.144-.258.366.044.663.212.87.398.208.185.299.414.236.623-.128.418-.777.574-1.449.479-.326-.062-.67-.28-.937-.49l-.328-.277-.132-.12s.25-.184.596-.355zm2.267-.137c-.21-.192-.384-.505-.529-.855-.14-.354-.126-.858-.103-1.259.025-.403.083-.723.083-.723l.2.117c.124.073.29.184.458.329.344.28.725.664.857 1.06.288.768.081 1.477-.328 1.573-.205.05-.428-.05-.638-.242zM22.2 1.596c-.286-.223-.525-.627-.708-.96-.18-.34-.296-.628-.296-.628s.34-.027.76.018c.417.062.92.164 1.22.421.61.483.792 1.147.507 1.438-.14.14-.373.187-.635.132-.262-.06-.559-.207-.848-.42zM9.844 26.466c.282.142.475.333.503.577.065.476-.573.968-1.496.957-.457-.008-1.024-.257-1.44-.545-.433-.268-.718-.559-.718-.559s.312-.168.725-.337c.419-.177.929-.359 1.345-.337.423.013.805.09 1.081.245zm.039-2.887c.293.215.642.467.813.8.339.655.433 1.414.062 1.71-.184.143-.456.142-.729.003a1.921 1.921 0 01-.73-.775c-.182-.37-.189-.893-.137-1.311.056-.429.165-.762.165-.762s.251.143.556.335zm-2.531 1.636c-.05.474-.795.798-1.677.549-.453-.107-.914-.514-1.266-.878-.18-.178-.306-.37-.405-.5l-.15-.22s.347-.09.785-.153c.433-.055.98-.114 1.383.005.397.128.752.295.989.506.232.216.367.455.34.691zm.062-3.814c.087.08.188.21.319.338.25.264.506.627.606.978.166.733.079 1.482-.356 1.679-.219.098-.478.023-.702-.19a1.745 1.745 0 01-.522-.933c-.094-.4.015-.9.178-1.308.157-.403.337-.696.337-.696l.14.132zm-1.724.66c-.447.072-.934-.566-.922-1.393-.013-.402.24-.88.479-1.23.242-.353.481-.595.481-.595s.179.238.341.568c.181.32.358.73.362 1.104.01.74-.282 1.47-.741 1.546zm-.806.641c-.17.454-.937.563-1.754.124-.401-.22-.766-.719-1.02-1.157-.236-.45-.375-.83-.375-.83s.36-.006.805.037c.447.042.96.133 1.34.337.721.432 1.187 1.023 1.004 1.49zM3.085 19.66c-.271.4-1.044.324-1.741-.295-.317-.316-.603-.872-.72-1.366-.132-.49-.184-.891-.184-.891s.352.078.777.223c.43.146.912.355 1.223.646.32.29.532.615.65.911.126.294.133.571-.005.772zm.931-.43c-.23-.02-.422-.21-.543-.497-.113-.289-.126-.683-.044-1.075.09-.398.44-.802.749-1.085.313-.286.601-.464.601-.464s.123.274.21.633c.075.364.199.789.094 1.163-.154.721-.604 1.36-1.067 1.324zm-1.988-2.953c-.348.325-1.103.071-1.625-.694-.248-.381-.39-.987-.395-1.493a7.613 7.613 0 01-.002-.643c.002-.162.023-.267.023-.267s.315.162.702.399c.384.24.82.555 1.044.912.247.357.392.72.429 1.039.052.315.004.585-.176.748zm1.003-.199c-.22-.073-.371-.302-.42-.61a2.09 2.09 0 01.198-1.057c.191-.367.609-.68.975-.884.362-.209.692-.311.692-.311s.004.07.024.191c.017.12.035.287.04.474-.007.374.007.819-.169 1.158-.327.67-.89 1.182-1.34 1.04zm-.513-3.986a2.03 2.03 0 01.45-.967c.283-.3.763-.485 1.168-.576.4-.094.75-.1.75-.1s-.017.07-.03.187a4.076 4.076 0 01-.081.45c-.103.347-.196.761-.448 1.036-.481.542-1.135.905-1.543.661-.196-.122-.297-.382-.266-.69zm-.756.645c-.408.235-1.097-.195-1.412-1.09-.147-.443-.13-1.085.001-1.587a8.37 8.37 0 01.17-.638c.049-.16.097-.251.097-.251s.256.24.566.584c.305.343.645.769.765 1.174.148.413.202.803.159 1.12-.03.32-.132.572-.346.688zm3.276-3.403c-.619.402-1.335.572-1.667.222-.153-.172-.19-.452-.07-.738a1.92 1.92 0 01.687-.815c.346-.22.856-.278 1.27-.267.419.01.76.088.76.088L5.938 8c-.048.111-.11.264-.195.427-.184.32-.4.7-.705.906zM2.4 9.23c-.233.052-.478-.066-.68-.32a1.99 1.99 0 01-.394-1.108c-.038-.465.152-1.063.392-1.509a6.33 6.33 0 01.315-.563l.156-.213s.192.295.405.7c.213.407.44.905.458 1.329.063.861-.2 1.567-.652 1.684zm2.361-2.654c-.24-.422.214-1.082.965-1.369.383-.138.892-.083 1.298.019.417.109.728.253.728.253s-.177.243-.409.536a3.13 3.13 0 01-.42.421 1.5 1.5 0 01-.483.32 2.562 2.562 0 01-1.012.164c-.303-.024-.553-.135-.667-.344zm-.864-.556c-.237-.007-.447-.182-.585-.477-.142-.298-.203-.71-.13-1.16.033-.228.127-.474.25-.714.133-.23.296-.452.453-.646.307-.395.618-.64.618-.64s.133.335.247.767c.123.441.239.979.166 1.396-.131.85-.552 1.475-1.019 1.474zM6.23 3.142c-.41-.096-.616-.805-.328-1.573.132-.396.513-.78.857-1.06A3.22 3.22 0 017.218.18l.2-.117s.058.32.083.723c.022.401.037.906-.103 1.26-.145.349-.32.662-.529.855-.21.19-.433.29-.638.241zm.655.658c-.063-.209.028-.438.237-.623.206-.186.503-.354.869-.398.363-.05.796.083 1.144.258.347.171.596.355.596.355l-.132.12-.329.278c-.265.209-.61.427-.936.49-.672.094-1.321-.062-1.449-.48zm2.067-1.783c-.262.055-.494.009-.635-.132-.285-.292-.103-.956.507-1.438.3-.257.803-.358 1.22-.421.42-.044.76-.018.76-.018s-.115.289-.296.628c-.183.333-.422.737-.708.96-.29.214-.586.361-.848.421zM12 11.475v.038h2.101v-.038c0-.992.773-1.722 1.824-1.722 1.006 0 1.719.64 1.719 1.446 0 .746-.338 1.29-1.434 2.38l-4.082 3.907V19H20v-1.79h-4.886v-.045l2.642-2.528c1.193-1.178 2.094-2.185 2.094-3.527C19.85 9.313 18.28 8 16 8c-2.364 0-4 1.44-4 3.475z" fill="#B2BFC3" fill-rule="evenodd"/></svg><svg width="40" height="36" viewBox="-4 -4 40 36" id="icon_rank3_32x28_bronze" y="159" xmlns="http://www.w3.org/2000/svg"><path d="M23.237 26.222c.416-.022.926.16 1.345.337.413.17.725.337.725.337s-.285.291-.717.559c-.417.288-.984.537-1.441.545-.923.011-1.561-.481-1.496-.957.028-.244.22-.435.503-.576.275-.155.657-.232 1.081-.245zm-.536-.905a1.925 1.925 0 01-.73.774c-.273.14-.546.14-.729-.001-.371-.297-.277-1.056.062-1.712.17-.331.52-.584.813-.799.304-.192.556-.335.556-.335s.11.333.165.762c.052.418.045.94-.137 1.311zm2.025-4.048s.18.293.337.696c.163.409.271.908.178 1.308a1.745 1.745 0 01-.522.934c-.224.212-.483.287-.702.189-.435-.198-.522-.946-.356-1.679.1-.351.355-.714.606-.978.13-.128.232-.258.32-.338l.14-.132zm1.252 2.749c.403-.12.95-.06 1.383-.005.439.063.785.154.785.154l-.15.218c-.099.13-.224.323-.406.5-.35.365-.812.772-1.265.879-.882.25-1.626-.075-1.677-.549-.026-.236.11-.475.341-.69.237-.212.591-.379.989-.507zm3.482-3.142c.445-.043.805-.036.805-.036s-.14.38-.376.83c-.253.437-.617.936-1.02 1.156-.816.44-1.582.33-1.754-.124-.182-.466.284-1.057 1.006-1.489.379-.203.892-.295 1.34-.337zm-3.89-.361c.003-.375.18-.783.36-1.103.163-.33.341-.568.341-.568s.24.24.482.594c.24.35.492.828.479 1.23.012.827-.476 1.465-.922 1.393-.46-.077-.752-.807-.74-1.546zm2.414-1.286c-.463.036-.913-.603-1.067-1.324-.105-.374.019-.799.093-1.163.088-.36.21-.633.21-.633s.289.178.602.464c.309.283.659.687.75 1.085.08.392.068.786-.045 1.075-.12.287-.312.477-.543.496zm1.576-1.252c.31-.29.793-.5 1.223-.646a8.16 8.16 0 01.777-.224s-.052.401-.185.892c-.117.494-.402 1.05-.72 1.366-.696.619-1.469.696-1.74.295-.138-.2-.13-.479-.005-.772.119-.296.329-.621.65-.91zm-.592-1.899c-.45.143-1.012-.369-1.34-1.039-.175-.34-.161-.784-.167-1.158a4.33 4.33 0 01.038-.474c.02-.122.025-.191.025-.191s.33.102.692.31c.366.205.783.518.975.885.167.363.23.748.197 1.057-.048.308-.2.537-.42.61zm3.026-2.631c.007.163.01.39-.002.643-.006.506-.147 1.112-.395 1.493-.522.765-1.278 1.02-1.625.695-.18-.163-.228-.433-.176-.749.037-.318.182-.681.43-1.038.222-.357.66-.671 1.043-.912.387-.237.702-.4.702-.4s.02.106.023.268zm-2.963-2.322c.253.304.407.66.45.967.032.31-.069.568-.265.69-.409.245-1.062-.118-1.543-.66-.252-.275-.345-.689-.448-1.035a3.857 3.857 0 01-.08-.451c-.013-.117-.031-.188-.031-.188s.35.007.75.1c.404.092.885.276 1.167.577zm.861.925c-.043-.318.01-.708.159-1.121.12-.405.46-.831.765-1.174.31-.343.565-.584.565-.584s.05.091.098.251c.05.16.113.385.17.638.13.502.147 1.144 0 1.587-.314.895-1.003 1.325-1.412 1.09-.213-.116-.316-.368-.345-.687zm-2.93-2.716c-.306-.206-.521-.585-.705-.906-.086-.163-.147-.316-.194-.427l-.081-.177s.341-.078.76-.088c.414-.011.924.047 1.27.267.335.222.562.531.686.815.122.286.084.566-.07.738-.33.35-1.047.18-1.666-.222zM29.6 9.23c-.452-.117-.715-.823-.652-1.684.018-.424.244-.922.458-1.33.213-.404.405-.7.405-.7l.156.214c.089.137.2.336.314.563.241.446.431 1.044.393 1.509a1.98 1.98 0 01-.394 1.108c-.202.254-.448.372-.68.32zm-4.624-4.004c.406-.102.915-.157 1.298-.019.752.288 1.206.948.965 1.369-.114.21-.364.32-.666.344a2.554 2.554 0 01-1.013-.165 1.497 1.497 0 01-.483-.318 3.104 3.104 0 01-.42-.422c-.231-.293-.41-.536-.41-.536s.313-.144.729-.253zm3.127.794c-.467.001-.888-.625-1.019-1.474-.073-.417.043-.955.166-1.396.114-.432.247-.767.247-.767s.311.245.618.64c.156.194.32.416.453.646.122.24.216.486.25.714.073.45.012.862-.13 1.16-.138.295-.349.47-.585.477zm-5.238-2.983c.348-.175.78-.308 1.144-.258.366.044.663.212.87.398.208.185.299.414.236.623-.128.418-.777.574-1.449.479-.326-.062-.67-.28-.937-.49l-.328-.277-.132-.12s.25-.184.596-.355zm2.267-.137c-.21-.192-.384-.505-.529-.855-.14-.354-.126-.858-.103-1.259.025-.403.083-.723.083-.723l.2.117c.124.073.29.184.458.329.344.28.725.664.857 1.06.288.768.081 1.477-.328 1.573-.205.05-.428-.05-.638-.242zM22.2 1.596c-.286-.223-.525-.627-.708-.96-.18-.34-.296-.628-.296-.628s.34-.027.76.018c.417.062.92.164 1.22.421.61.483.792 1.147.507 1.438-.14.14-.373.187-.635.132-.262-.06-.559-.207-.848-.42zM9.844 26.466c.282.142.475.333.503.577.065.476-.573.968-1.496.957-.457-.008-1.024-.257-1.44-.545-.433-.268-.718-.559-.718-.559s.312-.168.725-.337c.419-.177.929-.359 1.345-.337.423.013.805.09 1.081.245zm.039-2.887c.293.215.642.467.813.8.339.655.433 1.414.062 1.71-.184.143-.456.142-.729.003a1.921 1.921 0 01-.73-.775c-.182-.37-.189-.893-.137-1.311.056-.429.165-.762.165-.762s.251.143.556.335zm-2.531 1.636c-.05.474-.795.798-1.677.549-.453-.107-.914-.514-1.266-.878-.18-.178-.306-.37-.405-.5l-.15-.22s.347-.09.785-.153c.433-.055.98-.114 1.383.005.397.128.752.295.989.506.232.216.367.455.34.691zm.062-3.814c.087.08.188.21.319.338.25.264.506.627.606.978.166.733.079 1.482-.356 1.679-.219.098-.478.023-.702-.19a1.745 1.745 0 01-.522-.933c-.094-.4.015-.9.178-1.308.157-.403.337-.696.337-.696l.14.132zm-1.724.66c-.447.072-.934-.566-.922-1.393-.013-.402.24-.88.479-1.23.242-.353.481-.595.481-.595s.179.238.341.568c.181.32.358.73.362 1.104.01.74-.282 1.47-.741 1.546zm-.806.641c-.17.454-.937.563-1.754.124-.401-.22-.766-.719-1.02-1.157-.236-.45-.375-.83-.375-.83s.36-.006.805.037c.447.042.96.133 1.34.337.721.432 1.187 1.023 1.004 1.49zM3.085 19.66c-.271.4-1.044.324-1.741-.295-.317-.316-.603-.872-.72-1.366-.132-.49-.184-.891-.184-.891s.352.078.777.223c.43.146.912.355 1.223.646.32.29.532.615.65.911.126.294.133.571-.005.772zm.931-.43c-.23-.02-.422-.21-.543-.497-.113-.289-.126-.683-.044-1.075.09-.398.44-.802.749-1.085.313-.286.601-.464.601-.464s.123.274.21.633c.075.364.199.789.094 1.163-.154.721-.604 1.36-1.067 1.324zm-1.988-2.953c-.348.325-1.103.071-1.625-.694-.248-.381-.39-.987-.395-1.493a7.613 7.613 0 01-.002-.643c.002-.162.023-.267.023-.267s.315.162.702.399c.384.24.82.555 1.044.912.247.357.392.72.429 1.039.052.315.004.585-.176.748zm1.003-.199c-.22-.073-.371-.302-.42-.61a2.09 2.09 0 01.198-1.057c.191-.367.609-.68.975-.884.362-.209.692-.311.692-.311s.004.07.024.191c.017.12.035.287.04.474-.007.374.007.819-.169 1.158-.327.67-.89 1.182-1.34 1.04zm-.513-3.986a2.03 2.03 0 01.45-.967c.283-.3.763-.485 1.168-.576.4-.094.75-.1.75-.1s-.017.07-.03.187a4.076 4.076 0 01-.081.45c-.103.347-.196.761-.448 1.036-.481.542-1.135.905-1.543.661-.196-.122-.297-.382-.266-.69zm-.756.645c-.408.235-1.097-.195-1.412-1.09-.147-.443-.13-1.085.001-1.587a8.37 8.37 0 01.17-.638c.049-.16.097-.251.097-.251s.256.24.566.584c.305.343.645.769.765 1.174.148.413.202.803.159 1.12-.03.32-.132.572-.346.688zm3.276-3.403c-.619.402-1.335.572-1.667.222-.153-.172-.19-.452-.07-.738a1.92 1.92 0 01.687-.815c.346-.22.856-.278 1.27-.267.419.01.76.088.76.088L5.938 8c-.048.111-.11.264-.195.427-.184.32-.4.7-.705.906zM2.4 9.23c-.233.052-.478-.066-.68-.32a1.99 1.99 0 01-.394-1.108c-.038-.465.152-1.063.392-1.509a6.33 6.33 0 01.315-.563l.156-.213s.192.295.405.7c.213.407.44.905.458 1.329.063.861-.2 1.567-.652 1.684zm2.361-2.654c-.24-.422.214-1.082.965-1.369.383-.138.892-.083 1.298.019.417.109.728.253.728.253s-.177.243-.409.536a3.13 3.13 0 01-.42.421 1.5 1.5 0 01-.483.32 2.562 2.562 0 01-1.012.164c-.303-.024-.553-.135-.667-.344zm-.864-.556c-.237-.007-.447-.182-.585-.477-.142-.298-.203-.71-.13-1.16.033-.228.127-.474.25-.714.133-.23.296-.452.453-.646.307-.395.618-.64.618-.64s.133.335.247.767c.123.441.239.979.166 1.396-.131.85-.552 1.475-1.019 1.474zM6.23 3.142c-.41-.096-.616-.805-.328-1.573.132-.396.513-.78.857-1.06A3.22 3.22 0 017.218.18l.2-.117s.058.32.083.723c.022.401.037.906-.103 1.26-.145.349-.32.662-.529.855-.21.19-.433.29-.638.241zm.655.658c-.063-.209.028-.438.237-.623.206-.186.503-.354.869-.398.363-.05.796.083 1.144.258.347.171.596.355.596.355l-.132.12-.329.278c-.265.209-.61.427-.936.49-.672.094-1.321-.062-1.449-.48zm2.067-1.783c-.262.055-.494.009-.635-.132-.285-.292-.103-.956.507-1.438.3-.257.803-.358 1.22-.421.42-.044.76-.018.76-.018s-.115.289-.296.628c-.183.333-.422.737-.708.96-.29.214-.586.361-.848.421zm5.717 12.151h1.27c1.164 0 1.87.584 1.87 1.547 0 .89-.756 1.511-1.834 1.511-1.135 0-1.848-.584-1.913-1.474H12C12.1 17.693 13.62 19 15.946 19 18.323 19 20 17.745 20 15.854c0-1.46-.992-2.409-2.526-2.54v-.044c1.263-.234 2.126-1.168 2.126-2.46C19.6 9.124 18.137 8 15.996 8c-2.233 0-3.718 1.27-3.796 3.219h1.984c.057-.92.72-1.526 1.72-1.526 1.07 0 1.662.562 1.662 1.416 0 .87-.663 1.468-1.648 1.468h-1.249v1.59z" fill="#DC9A4D" fill-rule="evenodd"/></svg><svg width="19" height="19" viewBox="-4 -4 19 19" id="icon_report_11x11_gray" x="237" y="179" xmlns="http://www.w3.org/2000/svg"><g fill="none" fill-rule="evenodd"><path fill="#9B9B9B" d="M.5 8.41h10v1.93H.5V8.41zm1-.714h8v-3.5c0-1.93-1.793-3.5-4-3.5-2.206 0-4 1.57-4 3.5v3.5z"/><path stroke="#FFF" stroke-width=".5" d="M3.335 4.363s-.146-1.974 2.119-2.16"/></g></svg><svg width="21" height="21" viewBox="-4 -4 21 21" id="icon_review_13x13_gray" x="237" y="158" xmlns="http://www.w3.org/2000/svg"><path fill="silver" fill-rule="evenodd" d="M3 4h7V3H3v1zm0 3h7V6H3v1zm9-6.001H1v7.996h3.327L6.5 11.481l2.173-2.486H12V.999zM9.127 9.994L6.5 13.001 3.873 9.994H1a1 1 0 01-1-.999V.999A1 1 0 011 0h11a1 1 0 011 .999v7.996a1 1 0 01-1 .999H9.127z"/></svg><svg width="30" height="30" viewBox="-4 -4 30 30" id="icon_s_22x22_silver" x="205" y="120" xmlns="http://www.w3.org/2000/svg"><defs><path id="bga" d="M0 0h22v22H0z"/></defs><g fill="none" fill-rule="evenodd"><mask id="bgb" fill="#fff"><use xlink:href="#bga"/></mask><path fill="#777A80" d="M22 11c0 6.075-4.925 11-11 11S0 17.075 0 11 4.925 0 11 0s11 4.925 11 11" mask="url(#bgb)"/><path fill="#FFF" d="M11.263 15.62a5.942 5.942 0 01-2.015-.353 5.335 5.335 0 01-1.797-1.084l1.168-1.4c.41.335.832.6 1.264.796.432.198.905.296 1.418.296.411 0 .73-.075.956-.225a.707.707 0 00.34-.622v-.026a.783.783 0 00-.07-.34.719.719 0 00-.27-.276 2.82 2.82 0 00-.554-.257 9.441 9.441 0 00-.92-.27 11.28 11.28 0 01-1.235-.371 3.494 3.494 0 01-.94-.507 2.048 2.048 0 01-.598-.751c-.142-.3-.212-.672-.212-1.117v-.025c0-.41.077-.781.23-1.11a2.52 2.52 0 01.643-.854c.276-.239.606-.423.99-.551a3.982 3.982 0 011.268-.193c.66 0 1.264.098 1.816.295.552.197 1.059.48 1.52.847L13.24 9.011a6.518 6.518 0 00-1.18-.648 3.012 3.012 0 00-1.156-.238c-.385 0-.673.075-.866.225a.681.681 0 00-.289.558v.026c0 .146.028.271.084.378a.754.754 0 00.303.29c.145.084.345.166.598.243.253.077.572.167.959.27a9 9 0 011.215.404c.357.15.657.329.901.539.244.209.43.455.553.738.125.282.187.62.187 1.014v.025c0 .445-.08.84-.242 1.187a2.439 2.439 0 01-.675.873 3.034 3.034 0 01-1.035.539c-.4.124-.846.186-1.333.186"/></g></svg><svg width="24" height="24" viewBox="-4 -4 24 24" id="icon_search_16x16_gray" x="237" xmlns="http://www.w3.org/2000/svg"><path fill="#9B9B9B" d="M7 1a6 6 0 100 12A6 6 0 007 1zm5.278 10.598L16 15.32l-.68.68-3.722-3.722a7 7 0 11.68-.68z"/></svg><svg width="24" height="22" viewBox="-4 -4 24 22" id="icon_share_16x14_white" x="237" y="24" xmlns="http://www.w3.org/2000/svg"><defs><filter id="bia" width="105.9%" height="105.9%" x="-2.9%" y="-2.4%" filterUnits="objectBoundingBox"><feOffset dy="1" in="SourceAlpha" result="shadowOffsetOuter1"/><feGaussianBlur in="shadowOffsetOuter1" result="shadowBlurOuter1" stdDeviation="1.5"/><feColorMatrix in="shadowBlurOuter1" values="0 0 0 0 0 0 0 0 0 0 0 0 0 0 0 0 0 0 0.2 0"/></filter><path id="bib" d="M0 0h170v169H0z"/></defs><g fill="none" fill-rule="evenodd"><path fill="#FFF" d="M-326-156H49V18h-375z"/><g transform="translate(-141 -141)"><use fill="#000" filter="url(#bia)" xlink:href="#bib"/><use fill="#FFF" xlink:href="#bib"/></g><g fill="#575756"><path d="M8.974 5.478h2.342c.215 0 .39.176.39.392v1.824L15.044 4.5l-3.338-3.194V3.13a.391.391 0 01-.39.392H9.068c-2.066 0-3.378 1.49-3.963 3.303.758-.681 1.982-1.347 3.869-1.347M11.316 9a.391.391 0 01-.39-.391V6.26H8.973c-3.238 0-4.183 2.206-4.222 2.3a.39.39 0 01-.75-.182c.247-2.807 1.91-5.64 5.066-5.64h1.857V.391a.391.391 0 01.66-.283l4.294 4.11a.39.39 0 010 .565l-4.294 4.109a.39.39 0 01-.27.108"/><path d="M13.012 14H0V2.01h4.267v1H1v9.997h11.024v-3.21h.988z"/></g></g></svg><svg width="26" height="24" viewBox="-4 -4 26 24" id="icon_share_18x16_black" x="179" y="69" xmlns="http://www.w3.org/2000/svg"><path fill="#575756" fill-rule="evenodd" d="M9.72 6.46h2.746a.5.5 0 01.5.5v2.055l3.814-3.67-3.814-3.67V3.73a.5.5 0 01-.5.5H9.83c-2.346 0-3.856 1.668-4.56 3.727.903-.772 2.318-1.497 4.45-1.497m2.746 4.23a.498.498 0 01-.5-.5V7.46H9.72c-3.795 0-4.9 2.658-4.91 2.685a.5.5 0 01-.963-.229C4.14 6.588 6.103 3.23 9.83 3.23h2.136V.5a.5.5 0 01.847-.36l5.034 4.845a.497.497 0 010 .721l-5.034 4.844a.498.498 0 01-.347.14zM15.155 16H0V2.769h4.743v1H1v11.23h13.155v-3.488h1V16z"/></svg><svg width="26" height="23" viewBox="-4 -4 26 23" id="icon_talk_check_18x15_black" x="112" y="106" xmlns="http://www.w3.org/2000/svg"><defs><filter id="bka" width="111.5%" height="119.8%" x="-5.8%" y="-8.4%" filterUnits="objectBoundingBox"><feOffset dy="3" in="SourceAlpha" result="shadowOffsetOuter1"/><feGaussianBlur in="shadowOffsetOuter1" result="shadowBlurOuter1" stdDeviation="6"/><feColorMatrix in="shadowBlurOuter1" values="0 0 0 0 0 0 0 0 0 0 0 0 0 0 0 0 0 0 0.06 0"/></filter><path id="bkb" d="M0 0h339v197H0z"/></defs><g fill="none" fill-rule="evenodd"><g transform="translate(-175 -146)"><use fill="#000" filter="url(#bka)" xlink:href="#bkb"/><use fill="#FFF" xlink:href="#bkb"/></g><text fill="#FFF" font-family="AppleSDGothicNeo-Medium, Apple SD Gothic Neo" font-size="14" font-weight="400" letter-spacing="-.323" transform="translate(-151 -12)"><tspan x="157" y="24"></tspan></text><path fill="#FFF" d="M-6 5.326V3.674c0-.372.224-.674.5-.674s.5.302.5.674v1.652c0 .372-.224.674-.5.674s-.5-.302-.5-.674zm-6 0V3.674c0-.372.224-.674.5-.674s.5.302.5.674v1.652c0 .372-.224.674-.5.674s-.5-.302-.5-.674zm-2.772 6.524l1.254-1.249c.936-.95 1.824-1.572 3.208-1.572h3.873v1.962h-2.605c-1.244 0-2.476.053-3.317.907l-.963 1.841a.878.878 0 01-.634.261.896.896 0 01-.512-.16l-1.147-.755a.79.79 0 01-.385-.667V.846C-16-.174-15.112-1-14.018-1h10.856c.483 0 .926.162 1.27.43l1.147.802c.454.34.745.859.745 1.44l-.002 3.296h-2.133V1.052c0-.676-.822-1.08-1.547-1.08h-10.164c-.725 0-1.16.404-1.16 1.08v10.576c0 .057 0 .158.073.217.056.045.112.054.16.005zM-1.952 7h1.934v1.982H2v1.973H-.018l.002 2.037-1.935.008v-2.045H-4V8.982h2.049V7z"/><path fill="#FFF" stroke="#DBDDDE" d="M-25.5-11.5h121v38h-121z"/><path fill="#4A4A4A" d="M9 6.326V4.674C9 4.302 9.224 4 9.5 4s.5.302.5.674v1.652c0 .372-.224.674-.5.674S9 6.698 9 6.326zm-5 0V4.674C4 4.302 4.224 4 4.5 4s.5.302.5.674v1.652C5 6.698 4.776 7 4.5 7S4 6.698 4 6.326zM1.151 12.85l1.176-1.249c.878-.95 1.71-1.572 3.008-1.572h3.63v1.962H6.524c-1.166 0-2.321.053-3.11.907L2.51 14.74a.804.804 0 01-1.074.1L.36 14.085a.801.801 0 01-.36-.667V1.846C0 .826.832 0 1.858 0h10.178c.452 0 .868.162 1.19.43l1.075.802c.426.34.699.859.699 1.44l-.001 3.296h-2.001V2.052c0-.676-.77-1.08-1.45-1.08H2.02c-.68 0-1.087.404-1.087 1.08v10.576c0 .057-.001.158.068.217.052.045.105.054.15.005zM16.794 8L18 9.245 13.576 14 10 10.157l1.206-1.228 2.37 2.598L16.794 8z"/><path d="M-192-418h375v812h-375v-812zm40 0h295c22.091 0 40 17.909 40 40v732c0 22.091-17.909 40-40 40h-295c-22.091 0-40-17.909-40-40v-732c0-22.091 17.909-40 40-40zm66.04 31H76.96c12.703 0 23-10.297 23-23 0-.009-.001-1.285-.006-3.83 0-.093.016-.184.048-.27a5.86 5.86 0 014.106-3.684L105-418h-219l.892.216c1.888.458 3.441 1.87 4.112 3.684.015.04.029.086.042.137l-.007 3.924c0 12.742 10.298 23.039 23 23.039z" fill="#000"/></g></svg><svg width="26" height="23" viewBox="-4 -4 25 23" id="icon_talk_plus_17x15_white" x="138" y="106" xmlns="http://www.w3.org/2000/svg"><path fill="#FFF" fill-rule="evenodd" d="M8.79 6.778v-1.77c0-.399.317-.722.708-.722.392 0 .708.323.708.722v1.77a.715.715 0 01-.708.722.715.715 0 01-.708-.722zm-4.996 0v-1.77c0-.399.317-.722.709-.722.391 0 .708.323.708.722v1.77a.715.715 0 01-.708.722.715.715 0 01-.709-.722zM1.152 12.85l1.178-1.249c.878-.95 1.71-1.572 3.01-1.572h3.635v1.962H6.53c-1.168 0-2.324.053-3.113.907l-.904 1.841a.806.806 0 01-1.076.1l-1.076-.754A.801.801 0 010 13.418V1.846C0 .826.833 0 1.86 0h10.188c.453 0 .869.162 1.192.43l1.076.802c.426.34.7.859.7 1.44l-.002 3.296h-2.003V2.052c0-.676-.77-1.08-1.45-1.08H2.02c-.68 0-1.088.404-1.088 1.08v10.576c0 .057 0 .158.069.217.052.045.105.054.15.005zM13.05 8.01h1.933v2H17V12h-2.017l.001 2.054-1.934.008V12h-2.048v-1.99h2.048v-2z"/></svg><svg width="25" height="19" viewBox="-4 -4 25 19" id="icon_three_line_17x11_black" x="164" y="106" xmlns="http://www.w3.org/2000/svg"><path fill-rule="evenodd" d="M.5 0h16a.5.5 0 110 1H.5a.5.5 0 110-1zm0 5h16a.5.5 0 110 1H.5a.5.5 0 010-1zm0 5h16a.5.5 0 110 1H.5a.5.5 0 110-1z"/></svg><svg width="25" height="19" viewBox="-4 -4 25 19" id="icon_three_line_17x11_white" x="131" y="133" xmlns="http://www.w3.org/2000/svg"><path fill="#FFF" fill-rule="evenodd" d="M.5 0h16a.5.5 0 110 1H.5a.5.5 0 110-1zm0 5h16a.5.5 0 110 1H.5a.5.5 0 010-1zm0 5h16a.5.5 0 110 1H.5a.5.5 0 110-1z"/></svg><svg width="24" height="24" viewBox="-4 -4 24 24" id="icon_thumb_up_16x16_blue" x="237" y="46" xmlns="http://www.w3.org/2000/svg"><path fill="#2EB1D4" fill-rule="evenodd" d="M0 16V8h2v8H0zm8.6-9.964h6.007s1.59.11 1.373 1.693l-1.132 6.783A1.778 1.778 0 0113.09 16H3V8.421L6.128 0S8.6.359 8.6 2.924v3.112z"/></svg><svg width="30" height="30" viewBox="-4 -4 30 30" id="icon_v_22x22_purple" x="205" y="150" xmlns="http://www.w3.org/2000/svg"><defs><path id="bpa" d="M0 .81h22v22H0z"/></defs><g fill="none" fill-rule="evenodd"><g transform="translate(0 -.81)"><mask id="bpb" fill="#fff"><use xlink:href="#bpa"/></mask><path fill="#7F35B1" d="M22 11.81c0 6.076-4.925 11-11 11s-11-4.924-11-11c0-6.075 4.925-11 11-11s11 4.925 11 11" mask="url(#bpb)"/></g><path fill="#FFF" d="M6.767 7.283h2.028l2.182 5.827 2.183-5.827h1.98l-3.376 8.333h-1.622z"/></g></svg><svg width="30" height="30" viewBox="-4 -4 30 30" id="icon_v_22x22_red" y="195" xmlns="http://www.w3.org/2000/svg"><defs><path id="bqa" d="M0 0h22v22H0z"/></defs><g fill="none" fill-rule="evenodd"><mask id="bqb" fill="#fff"><use xlink:href="#bqa"/></mask><path fill="#E13030" d="M22 11c0 6.075-4.925 11-11 11S0 17.075 0 11 4.925 0 11 0s11 4.925 11 11" mask="url(#bqb)"/><path fill="#FFF" d="M6.796 7.18h2.037l2.191 5.904 2.192-5.904h1.988l-3.39 8.443h-1.628z"/></g></svg><svg width="31" height="28" viewBox="-4 -4 31 28" id="icon_warning_23x20_white" x="205" y="32" xmlns="http://www.w3.org/2000/svg"><g fill="#FFF"><path d="M9.272 1.253a2.608 2.608 0 014.456 0l8.922 14.842a2.6 2.6 0 01.007 2.594A2.608 2.608 0 0120.417 20H2.577a2.602 2.602 0 01-2.223-3.912L9.272 1.253zm-8.058 15.35a1.585 1.585 0 00-.004 1.583c.282.493.806.8 1.373.807h17.829a1.607 1.607 0 001.378-.807 1.582 1.582 0 000-1.576L12.874 1.777a1.608 1.608 0 00-1.374-.77c-.562 0-1.083.292-1.373.769L1.214 16.603z"/><path d="M11 8.3a.5.5 0 111 0v3.929a.5.5 0 11-1 0V8.3zm.5 7.2a.75.75 0 110-1.5.75.75 0 010 1.5z"/></g></svg><svg width="24" height="24" fill="none" viewBox="-4 -4 24 24" id="icon_x_16x16_black" x="237" y="70" xmlns="http://www.w3.org/2000/svg"><path d="M1 1l14 14M1 15L15 1" stroke="#000" stroke-width="1.2"/></svg><svg width="32" height="32" fill="none" viewBox="-4 -4 32 32" id="icon_x_24x24_black" x="168" y="159" xmlns="http://www.w3.org/2000/svg"><path fill="#000" d="M5.531 4.47a.749.749 0 10-1.06 1.06l1.06-1.06zm12.94 15.06a.749.749 0 101.06-1.06l-1.06 1.06zm1.06-14a.749.749 0 10-1.06-1.06l1.06 1.06zM4.471 18.47a.749.749 0 101.06 1.06l-1.06-1.06zm0-12.94l14 14 1.06-1.06-14-14-1.06 1.06zm14-1.06l-14 14 1.06 1.06 14-14-1.06-1.06z"/></svg><svg width="32" height="32" fill="none" viewBox="-4 -4 32 32" id="icon_x_24x24_white" x="205" xmlns="http://www.w3.org/2000/svg"><path fill="#fff" d="M5.531 4.47a.749.749 0 10-1.06 1.06l1.06-1.06zm12.94 15.06a.749.749 0 101.06-1.06l-1.06 1.06zm1.06-14a.749.749 0 10-1.06-1.06l1.06 1.06zM4.471 18.47a.749.749 0 101.06 1.06l-1.06-1.06zm0-12.94l14 14 1.06-1.06-14-14-1.06 1.06zm14-1.06l-14 14 1.06 1.06 14-14-1.06-1.06z"/></svg><svg width="28" height="28" viewBox="-4 -4 28 28" id="icon_x_round_20x20_gray" x="88" y="195" xmlns="http://www.w3.org/2000/svg"><g fill="none" fill-rule="evenodd"><rect width="20" height="20" fill="#DDE1E6" rx="10"/><path fill="#FFF" d="M14.538 5L10 9.538 5.462 5 5 5.462 9.538 10 5 14.538l.462.462L10 10.462 14.538 15l.462-.462L10.462 10 15 5.462z"/></g></svg></svg>