<?xml version="1.0" encoding="utf-8"?><svg width="336" height="295" viewBox="0 0 336 295" xmlns="http://www.w3.org/2000/svg" xmlns:xlink="http://www.w3.org/1999/xlink"><svg width="168" height="32" fill="none" viewBox="-4 -4 168 32" id="text_ai_recommend_160x24_white" y="55" xmlns="http://www.w3.org/2000/svg"><path d="M.792 14.182v-2.376H8.36v-1.782H1.716V3.028h7.458v2.398H4.642v2.222h4.532v1.87h.814v-6.49h8.074v2.398h-5.148v2.222h5.258v2.376h-6.886v1.782h7.7v2.376H.792zm.924 3.85v-2.376h16.346v6.27h-2.926v-3.894H1.716zm18.225-3.85v-2.376h7.568v-1.782h-6.644V3.028h7.458v2.398H23.79v2.222h4.532v1.87h.814v-6.49h8.074v2.398h-5.148v2.222h5.258v2.376h-6.886v1.782h7.7v2.376H19.94zm.924 3.85v-2.376H37.21v6.27h-2.926v-3.894h-13.42zm28.982-7.018c0 .616-.125 1.188-.374 1.716-.25.513-.594.953-1.034 1.32-.44.381-.968.675-1.584.88a6.094 6.094 0 01-1.98.308 6.18 6.18 0 01-2.002-.308 4.65 4.65 0 01-1.562-.88 3.941 3.941 0 01-1.034-1.32 4.176 4.176 0 01-.352-1.716c0-.616.117-1.18.352-1.694a3.88 3.88 0 011.034-1.342 4.65 4.65 0 011.562-.88 5.79 5.79 0 012.002-.33c.719 0 1.379.11 1.98.33a4.615 4.615 0 011.584.88c.44.367.785.814 1.034 1.342.25.513.374 1.078.374 1.694zm6.402 7.942v2.662H40.233v-5.676h2.904v3.014H56.25zm2.068-10.824v2.772h-2.464v6.094h-2.926V2.72h2.926v5.412h2.464zM50.683 3.71v2.376H39.2V3.71h4.18V1.994h2.926V3.71h4.378zm-3.63 7.304c0-.543-.198-1.012-.594-1.408-.381-.396-.91-.594-1.584-.594-.704 0-1.24.198-1.606.594-.366.396-.55.865-.55 1.408 0 .543.184 1.005.55 1.386.367.367.902.55 1.606.55.675 0 1.203-.183 1.584-.55.396-.381.594-.843.594-1.386zm23.249 9.152l-.683-3.498h-3.784l-.66 3.498h-3.123l3.938-16.83h3.52l3.915 16.83h-3.123zm-1.189-6.182l-.55-2.86-.835-4.708-.837 4.774-.528 2.794h2.75zm7.907 6.182h-2.904V3.446h2.904v16.72zM102.154 6.46v2.772H99.69V13.5h-2.926V2.72h2.926v3.74h2.464zM86.952 2.72h2.926c0 .587-.037 1.166-.11 1.738a14.368 14.368 0 01-.264 1.65c.616.924 1.4 1.797 2.354 2.618a15.54 15.54 0 002.948 2.024l-1.738 2.156a16.245 16.245 0 01-2.464-1.716 16.633 16.633 0 01-2.156-2.156c-.44.88-.968 1.687-1.584 2.42a11.786 11.786 0 01-2.09 1.914l-2.178-1.892c1.437-.968 2.523-2.193 3.256-3.674.733-1.496 1.1-3.19 1.1-5.082zm8.184 19.206h-6.314c-1.54 0-2.757-.337-3.652-1.012-.88-.66-1.32-1.628-1.32-2.904 0-1.144.44-2.083 1.32-2.816.895-.733 2.112-1.1 3.652-1.1h6.314c1.51 0 2.713.367 3.608 1.1.895.733 1.342 1.672 1.342 2.816 0 1.276-.447 2.244-1.342 2.904-.895.675-2.097 1.012-3.608 1.012zm-6.314-2.464h6.314c.572 0 1.041-.132 1.408-.396s.55-.616.55-1.056c0-.425-.183-.77-.55-1.034-.367-.279-.836-.418-1.408-.418h-6.314c-.616 0-1.1.14-1.452.418a1.252 1.252 0 00-.506 1.034c0 .44.169.792.506 1.056.352.264.836.396 1.452.396zm30.523-16.434v2.354h-16.346V3.028h16.346zM108.697 8.11h4.554c.029-.176.066-.352.11-.528.044-.176.088-.36.132-.55l.132-.528c.044-.176.088-.36.132-.55h3.014c-.044.19-.088.374-.132.55l-.132.528c-.044.19-.088.374-.132.55l-.132.528h3.3v2.266h-16.742V8.11h2.97V5.954h2.926V8.11zm10.648 7.194v6.314h-16.346v-6.314h6.578v-1.342h-7.502v-2.354h18.194v2.354h-7.766v1.342h6.842zm-13.42 4.004h10.494v-1.716h-10.494v1.716zm16.618-6.05l-.352-.572-.308-.616c-.117-.19-.235-.389-.352-.594l-.308-.616c1.613-.264 3.095-.74 4.444-1.43 1.349-.69 2.391-1.635 3.124-2.838h-6.644v-2.64h6.512V1.994h3.124v1.958h6.71v2.64h-6.38c-.088.19-.183.374-.286.55l-.264.528c.997.748 2.2 1.35 3.608 1.804 1.408.44 2.823.74 4.246.902l-.616 1.232c-.205.41-.411.814-.616 1.21a20.398 20.398 0 01-4.4-1.056c-1.467-.543-2.75-1.232-3.85-2.068a12.374 12.374 0 01-3.432 2.376 13.325 13.325 0 01-3.96 1.188zm16.874 1.342v2.662h-7.546v4.664h-3.102v-4.664h-7.546V14.6h18.194zm2.847.198c-.176-.147-.352-.3-.528-.462a16.888 16.888 0 00-.99-.99 17.315 17.315 0 00-.484-.506c1.378-.645 2.5-1.54 3.366-2.684.865-1.159 1.393-2.398 1.584-3.718h-4.114V3.952h4.026V1.994h2.948v1.958h3.982v2.486h-3.938a15.475 15.475 0 01-.352 1.694c.616.821 1.393 1.591 2.332 2.31a13.2 13.2 0 002.904 1.65l-1.628 2.178a14.421 14.421 0 01-2.508-1.518 18.873 18.873 0 01-2.244-2.024 11.907 11.907 0 01-1.936 2.42 8.982 8.982 0 01-2.42 1.65zm15.686 6.82h-16.236v-6.05h2.926v3.388h13.31v2.662zM154.628 2.72h2.904v14.19h-2.904v-6.908h-3.388V7.494h3.388V2.72z" fill="#fff"/></svg><svg width="33" height="15" viewBox="-4 -4 33 15" id="text_best_25x7_white" x="303" y="103" xmlns="http://www.w3.org/2000/svg"><path fill="#FFF" fill-rule="evenodd" d="M19.11.097l-.255 1.38h2.163l-1.004 5.426h1.564l1.004-5.425h2.163L25 .098h-5.89zm-4.117 1.818c.061-.33.425-.593 1.024-.593s1.172.253 1.724.671L18.76.866C18.145.31 17.319 0 16.282 0c-1.451 0-2.638.817-2.867 2.052l-.003.019c-.25 1.351.604 1.73 1.971 2.08 1.134.293 1.342.487 1.271.866l-.003.02c-.074.398-.505.641-1.145.641-.811 0-1.422-.32-1.969-.827l-1.12 1.06c.718.73 1.738 1.09 2.815 1.09 1.533 0 2.75-.759 3-2.11l.003-.02c.22-1.186-.5-1.682-1.876-2.041-1.174-.302-1.451-.448-1.368-.895l.003-.02zM12.04 4.142l.246-1.332H8.935l.255-1.38h3.808l.247-1.332H7.883L6.624 6.903h5.413l.246-1.332h-3.86l.266-1.429h3.35zM4.975 2.13c-.093.506-.57.72-1.26.72H2.273l.266-1.44h1.543c.66 0 .98.253.896.701l-.003.02zm-.107 2.722c-.094.506-.553.74-1.244.74H1.766l.277-1.498h1.808c.801 0 1.105.283 1.02.739l-.003.02zM4.558.097h-3.3L0 6.903h3.381c1.605 0 2.776-.622 3.007-1.867l.003-.02c.168-.913-.254-1.37-1.021-1.672.558-.272 1.063-.699 1.206-1.468l.004-.019C6.777.787 6.01.097 4.559.097z"/></svg><svg width="34" height="16" viewBox="-4 -4 34 16" id="text_best_26x8_white" x="87" y="184" xmlns="http://www.w3.org/2000/svg"><path fill="#FFF" fill-rule="evenodd" d="M3.36 7.871H0V.13h3.328c1.427 0 2.347.756 2.347 1.931 0 .832-.626 1.556-1.432 1.685v.043c1.067.102 1.819.859 1.819 1.883 0 1.363-1.024 2.2-2.702 2.2zM1.405 1.207v2.184h1.35c.981 0 1.531-.408 1.531-1.127 0-.676-.474-1.057-1.307-1.057H1.405zm0 5.586H3.04c1.035 0 1.585-.424 1.585-1.218 0-.789-.567-1.202-1.64-1.202h-1.58v2.42zm10.74-.091v1.17H7.058V.128h5.087v1.17H8.463V3.39h3.48v1.1h-3.48V6.7h3.682zm.899-1.01h1.361c.087.714.812 1.181 1.77 1.181.948 0 1.607-.461 1.607-1.105 0-.558-.403-.88-1.394-1.11l-1.019-.237c-1.449-.327-2.135-1.014-2.135-2.12C13.234.929 14.45 0 16.16 0c1.732 0 2.875.923 2.908 2.286h-1.34c-.065-.725-.68-1.16-1.58-1.16-.887 0-1.486.43-1.486 1.074 0 .515.398.815 1.362 1.04l.904.205c1.595.36 2.27 1.008 2.27 2.162C19.198 7.077 18 8 16.1 8c-1.808 0-2.996-.88-3.055-2.307zm10.57 2.18H22.21V1.297h-2.385V.128H26v1.17h-2.385v6.573z"/></svg><svg width="23" height="17" viewBox="-4 -4 23 17" id="text_beta_15x9_red" x="309" y="86" xmlns="http://www.w3.org/2000/svg"><path fill="#E3252B" fill-rule="evenodd" d="M8.346 5.131H6.668c.034-.2.082-.375.144-.526.063-.15.14-.278.23-.38a.856.856 0 01.3-.223.929.929 0 01.383-.077.6.6 0 01.335.089.64.64 0 01.22.25c.05.107.08.235.093.383.011.149.003.31-.027.484zm.626-1.267c-.11-.19-.26-.333-.45-.43a1.49 1.49 0 00-.689-.145c-.26 0-.507.054-.742.164-.234.11-.441.263-.621.457a2.67 2.67 0 00-.481.714 3.471 3.471 0 00-.28.914 3.18 3.18 0 00-.034.896c.033.273.113.51.24.71.12.2.286.355.5.468.214.112.476.169.784.169.27 0 .537-.045.8-.138.263-.092.51-.226.741-.4l-.232-.5c-.174.13-.35.224-.526.286a1.726 1.726 0 01-.568.092c-.187 0-.343-.026-.47-.077a.62.62 0 01-.294-.238.792.792 0 01-.14-.392 2.043 2.043 0 01.029-.56l.018-.109h2.516l.027-.152a4.11 4.11 0 00.061-.999 1.901 1.901 0 00-.189-.73zm1.781 3.287a.76.76 0 01-.207-.011c-.064-.013-.11-.04-.137-.081a.376.376 0 01-.086-.234c0-.084.013-.206.04-.365l.412-2.442c.158 0 .291.002.404.007.112.006.245.013.4.024l.271-.692a11.666 11.666 0 01-.962.038c.038-.224.077-.435.118-.633a7.09 7.09 0 01.16-.619l-.922.14-.026.244-.03.27a14.143 14.143 0 01-.088.599h-.463l-.106.622h.464l-.454 2.688a1.486 1.486 0 00-.015.48.664.664 0 00.429.538c.122.043.271.065.448.065a2.052 2.052 0 00.787-.17l.005-.552a1.848 1.848 0 01-.442.085zm3.075-.453c-.14.16-.287.276-.442.353a1.075 1.075 0 01-.483.116.78.78 0 01-.273-.042.338.338 0 01-.17-.135.38.38 0 01-.087-.215 1.08 1.08 0 01.014-.3c.024-.148.07-.276.138-.384a.83.83 0 01.273-.268c.114-.067.252-.118.412-.154.16-.036.35-.054.565-.054.02 0 .051.003.095.008.043.005.089.008.138.008l-.18 1.067zm.835-.415l.259-1.313c.06-.302.086-.56.076-.775a1.17 1.17 0 00-.136-.53.74.74 0 00-.366-.293 1.675 1.675 0 00-.598-.091c-.138 0-.281.012-.43.038a3.497 3.497 0 00-.449.108 5.35 5.35 0 00-.472.18c-.16.069-.312.15-.46.242l.253.59a3.86 3.86 0 01.68-.345c.207-.076.413-.114.62-.114.107 0 .2.012.28.038a.39.39 0 01.19.13c.044.067.07.151.08.254.01.102.001.23-.025.384l-.045.268h-.346c-.339 0-.64.031-.906.092a2.111 2.111 0 00-.671.27 1.446 1.446 0 00-.46.464 1.797 1.797 0 00-.236.649 1.42 1.42 0 00.002.557.877.877 0 00.58.638 1.775 1.775 0 001.209-.054 1.66 1.66 0 00.595-.411.88.88 0 00.175.384.69.69 0 00.273.192l.511-.546a.821.821 0 01-.172-.195.636.636 0 01-.072-.234.96.96 0 01.008-.239c.012-.087.03-.199.053-.338zM5.064 1.71a1.68 1.68 0 01-.51.958c-.276.263-.585.394-.925.394h-.353l-.282.912.237-.01c.374-.007.653.122.837.388.184.267.241.608.17 1.024-.075.445-.238.803-.49 1.075a1.2 1.2 0 01-.918.41 1.06 1.06 0 01-.555-.143.713.713 0 01-.324-.4.889.889 0 01-.064-.265.736.736 0 01.006-.267l1.222-3.338c.17-.472.377-.844.62-1.117.242-.272.517-.41.824-.41.21 0 .356.073.44.216.084.143.105.335.065.573zm1.066-.153c.078-.465-.002-.84-.241-1.127C5.649.144 5.288 0 4.803 0 4.21 0 3.672.22 3.195.66c-.476.44-.856 1.092-1.138 1.951L0 8.571h.942l.544-1.536c.2.287.396.48.588.58.193.098.43.148.712.148.307 0 .597-.056.871-.165.274-.108.523-.265.747-.47.218-.205.403-.45.556-.738.153-.286.26-.608.32-.963.083-.49.056-.896-.08-1.213-.136-.317-.407-.589-.814-.814.535-.184.941-.43 1.218-.738a2.15 2.15 0 00.526-1.105z"/></svg><svg width="28" height="19" fill="none" viewBox="-4 -4 28 19" id="text_beta_20x11_white" x="308" y="201" xmlns="http://www.w3.org/2000/svg"><path opacity=".7" fill-rule="evenodd" clip-rule="evenodd" d="M11.095 6.585H8.863c.037-.231.101-.458.19-.675.083-.193.186-.358.307-.488.225-.256.56-.398.907-.385.177 0 .325.038.446.114.124.08.225.19.29.32.067.138.109.303.126.494.014.19.003.397-.037.619h.003zm.831-1.627a1.43 1.43 0 00-.598-.55 2.051 2.051 0 00-.915-.188c-.342 0-.679.071-.988.212a2.667 2.667 0 00-.826.585 3.445 3.445 0 00-.638.917 4.42 4.42 0 00-.373 1.173 4.02 4.02 0 00-.044 1.15c.043.35.15.654.32.91.157.257.378.457.663.601.285.144.632.217 1.042.217.36 0 .712-.057 1.063-.176.35-.12.68-.29.985-.513l-.307-.642a2.374 2.374 0 01-1.454.484c-.25 0-.456-.033-.624-.099a.81.81 0 01-.392-.305.998.998 0 01-.185-.503c-.021-.24-.01-.481.037-.72l.024-.137h3.346l.034-.196c.085-.487.114-.915.082-1.282a2.373 2.373 0 00-.252-.938zm2.369 4.22a1.038 1.038 0 01-.277-.015c-.085-.017-.146-.05-.182-.104a.474.474 0 01-.114-.3c0-.109.017-.264.053-.468l.547-3.135c.356-.002.714.011 1.07.04l.36-.887c-.257.018-.47.033-.641.039-.171.007-.385.01-.638.01.051-.29.102-.56.157-.815.054-.251.125-.515.212-.793l-1.225.179-.034.315-.042.345a17.3 17.3 0 01-.115.77h-.615l-.141.797h.617l-.604 3.45a1.832 1.832 0 00-.02.616.86.86 0 00.57.69c.162.055.361.083.596.083a2.81 2.81 0 001.045-.216l.008-.71a2.51 2.51 0 01-.587.108v.001zm4.087-.582c-.165.186-.364.34-.59.454a1.475 1.475 0 01-.64.147 1.08 1.08 0 01-.363-.055.446.446 0 01-.225-.171.485.485 0 01-.117-.276 1.345 1.345 0 01.018-.385 1.31 1.31 0 01.184-.493c.091-.14.217-.259.363-.344a1.97 1.97 0 01.547-.198c.214-.047.466-.069.752-.069.026 0 .069.004.125.01.058.007.119.01.186.01l-.241 1.37h.001zm1.11-.533l.342-1.684a3.9 3.9 0 00.102-.996c-.014-.275-.074-.503-.18-.68a.967.967 0 00-.486-.376 2.33 2.33 0 00-.796-.117 3.47 3.47 0 00-.573.05c-.2.033-.4.08-.595.137a7.053 7.053 0 00-.627.231c-.212.09-.417.193-.612.311l.336.759a5.27 5.27 0 01.904-.444c.264-.096.541-.144.823-.146.143 0 .268.015.373.048.1.03.188.088.254.168a.696.696 0 01.105.325 1.91 1.91 0 01-.032.493l-.06.344h-.46c-.45 0-.852.041-1.205.118a2.864 2.864 0 00-.892.347c-.249.15-.458.354-.612.595a2.27 2.27 0 00-.313.833c-.047.275-.047.514.002.715.092.385.385.695.772.818a2.44 2.44 0 001.607-.068c.3-.119.57-.299.79-.528.036.18.114.349.232.493.102.11.223.193.364.245l.679-.7a1.045 1.045 0 01-.228-.25.781.781 0 01-.095-.301 1.156 1.156 0 01.01-.306c.014-.11.04-.255.07-.434zM6.73 2.194c-.086.483-.31.892-.677 1.23-.367.337-.777.506-1.23.506h-.47l-.375 1.168.316-.012c.498-.008.868.158 1.113.5.243.343.32.78.226 1.314-.1.569-.317 1.031-.652 1.379-.335.35-.74.527-1.22.527a1.447 1.447 0 01-.737-.183.92.92 0 01-.431-.513 1.102 1.102 0 01-.086-.343.93.93 0 01.009-.343L4.14 3.14c.228-.605.502-1.082.825-1.43.322-.351.686-.527 1.096-.527.278 0 .473.093.584.276.111.184.14.429.086.736zM7.827.553C7.51.184 7.03 0 6.385 0c-.79 0-1.504.283-2.137.848-.633.564-1.139 1.4-1.514 2.503L0 11h1.252l.723-1.972c.265.367.527.616.784.743.256.128.57.192.944.192a3.217 3.217 0 002.152-.816 3.62 3.62 0 00.738-.947c.203-.367.346-.78.426-1.234.11-.631.075-1.151-.107-1.558-.18-.407-.541-.756-1.083-1.045.712-.237 1.254-.552 1.621-.946.369-.395.601-.866.698-1.42.104-.595-.001-1.076-.32-1.444z" fill="#fff"/></svg><svg width="89" height="22" fill="none" viewBox="-4 -4 89 22" id="text_by_clova_md_81x14_white" x="208" y="124" xmlns="http://www.w3.org/2000/svg"><path d="M3.626 4.933c-.944 0-1.643.415-1.93.87V2.095H0v9.388h1.67v-.787a2.17 2.17 0 001.893.933c1.813 0 3.006-1.438 3.006-3.368 0-1.89-1.076-3.329-2.943-3.329zm-.361 5.157c-.87 0-1.595-.646-1.595-1.813 0-1.167.726-1.802 1.595-1.802s1.588.637 1.588 1.802-.72 1.813-1.588 1.813zm7.166-1.252L8.736 5.103h-1.93l2.707 5.577-1.503 3.308h1.827l4.004-8.885H12l-1.57 3.735zM66.83 7.141l-2.923-4.855H62.53v9.185h1.22V4.307l3.002 4.983h.159l3.002-4.997v7.178h1.207V2.286h-1.377L66.83 7.141zm9.57-4.855h-3.58v9.185h3.585c2.53 0 4.355-2.044 4.355-4.592 0-2.548-1.825-4.593-4.36-4.593zm0 8.027h-2.36V3.442h2.36c1.89 0 3.188 1.498 3.188 3.437 0 1.939-1.294 3.434-3.183 3.434h-.004zM49.562 2.295L47.31 8.167l-2.255-5.872h-2.259l3.52 9.174H48.3l3.522-9.174h-2.26zm-20.628 0h-2.106v9.175h5.669V9.36h-3.563V2.295zm25.331 0l-3.519 9.176h2.261l.596-1.614h3.346l.58 1.614h2.25L56.25 2.295h-1.985zm-.042 5.66l1.041-2.991 1.041 2.991h-2.082zM41.327 3.506a4.882 4.882 0 00-6.9-.148 4.76 4.76 0 00-.403.441 4.88 4.88 0 007.52 6.216l.04-.05a4.866 4.866 0 000-6.177 4.733 4.733 0 00-.257-.282zm-1.418 5.11l-.024.03a2.724 2.724 0 11-.252-3.779l.022.02c.092.085.176.177.254.276a2.693 2.693 0 010 3.454zm-17.991-4.47a2.72 2.72 0 012.034.882l.108.12 1.663-1.369-.038-.046a4.881 4.881 0 100 6.274l.038-.044-1.679-1.346-.022.026-.04.047-.037.037a2.727 2.727 0 11-2.027-4.581z" fill="#fff"/></svg><svg width="87" height="22" viewBox="-4 -4 87 22" id="text_datalab_79x14_black" x="208" y="146" xmlns="http://www.w3.org/2000/svg"><g fill="none" fill-rule="evenodd"><path fill="#1E1E1E" d="M43.226 0v14h8.199v-1.749h-6.467V0zm20.868 0v12.202L65.86 14h5.414l1.765-1.798V5.333l-1.788-1.82h-3.92l-1.583 1.613V0h-1.653zm1.653 11.725V7.09l2.008-2.046h2.88l.728.743-.001 5.939-.73.742h-4.156l-.73-.743zM14.55 3.684l-1.353 1.373 1.004 1.02.873-.886h4.189l.72.73v1.927h-5.65L12.67 9.542v2.673L14.408 14h5.463l1.742-1.77V5.454l-1.742-1.769h-5.322zm-.25 8.07V10.02l.744-.75h4.938v2.495l-.717.728H15.02l-.72-.739zm18.136-8.07l-1.352 1.373 1.004 1.02.873-.886h4.188l.72.73v1.927h-5.65l-1.662 1.694v2.673L32.295 14h5.463l1.742-1.77V5.454l-1.742-1.769h-5.322zm-.249 8.07V10.02l.744-.75h4.938v2.495l-.717.728h-4.245l-.72-.739zm22.608-8.07l-1.352 1.373 1.003 1.02.874-.886h4.188l.72.73v1.927h-5.65l-1.663 1.694v2.673L54.654 14h5.462l1.742-1.77V5.454l-1.742-1.769h-5.321zm-.25 8.07V10.02l.744-.75h4.939v2.495l-.718.728h-4.244l-.72-.739zM23.85 0v12.266L25.61 14h3.456v-1.532h-2.73l-.755-.742V5.004h3.485V3.472h-3.485V0zM0 0v14h7.79l2.644-2.607V2.607L7.789 0H0zm1.798 1.71h5.305l1.52 1.51v7.56l-1.52 1.51H1.798V1.71z"/><path fill="#00C73C" d="M76.019 14H79v-2.947h-2.981z"/></g></svg><svg width="14" height="17" viewBox="-4 -4 14 17" id="text_e_6x9_white" x="101" y="254" xmlns="http://www.w3.org/2000/svg"><path fill="#FFF" fill-rule="evenodd" d="M5.614 1.892V0H0v8.984h5.614V7.092H1.908V5.376h3.099V3.484H1.908V1.892z"/></svg><svg width="49" height="19" viewBox="-4 -4 49 19" id="text_gold_41x11_gold" x="217" y="201" xmlns="http://www.w3.org/2000/svg"><g fill="none" fill-rule="evenodd"><path fill="#FFF" d="M-214-100h375v589h-375z"/><path fill="#E8ECEF" fill-rule="nonzero" d="M-214-98h375v833h-375z"/><path fill="#FFF" fill-rule="nonzero" d="M-214-100h375V71h-375z"/><path fill="#BA913F" d="M5.894 10.168c-.765 0-1.463-.126-2.093-.378a4.826 4.826 0 01-1.624-1.05A4.745 4.745 0 011.12 7.144a5.274 5.274 0 01-.378-2.016V5.1a5.029 5.029 0 011.456-3.577A5.027 5.027 0 013.822.431 5.204 5.204 0 015.88.032c.439 0 .838.03 1.197.091.36.06.693.147 1.001.259.308.112.597.252.868.42.27.168.532.36.784.574L8.372 3.014a5.471 5.471 0 00-.56-.42A3.418 3.418 0 006.58 2.09a3.933 3.933 0 00-.77-.07 2.51 2.51 0 00-1.099.245 2.969 2.969 0 00-1.498 1.624 3.21 3.21 0 00-.217 1.183V5.1c0 .448.072.861.217 1.239.145.378.35.707.616.987s.579.497.938.651c.36.154.758.231 1.197.231.803 0 1.48-.196 2.03-.588v-1.4h-2.17V4.358h4.256v4.256a7.178 7.178 0 01-1.799 1.099c-.695.303-1.491.455-2.387.455zM16.64 8.18c.43 0 .826-.08 1.19-.238a2.72 2.72 0 00.931-.658c.257-.28.457-.604.602-.973a3.21 3.21 0 00.217-1.183V5.1c0-.42-.072-.817-.217-1.19-.145-.373-.35-.7-.616-.98a2.96 2.96 0 00-.945-.665 2.873 2.873 0 00-1.19-.245c-.439 0-.838.08-1.197.238-.36.159-.667.378-.924.658s-.457.604-.602.973a3.21 3.21 0 00-.217 1.183V5.1c0 .42.072.817.217 1.19a2.959 2.959 0 001.554 1.645c.36.163.758.245 1.197.245zm-.028 1.988a5.343 5.343 0 01-2.086-.399 5.187 5.187 0 01-1.645-1.078 4.823 4.823 0 01-1.078-1.596 5.029 5.029 0 01-.385-1.967V5.1c0-.7.13-1.356.392-1.967a5.075 5.075 0 011.085-1.61A5.05 5.05 0 0114.547.431 5.395 5.395 0 0116.64.032c.756 0 1.451.133 2.086.399a5.187 5.187 0 011.645 1.078c.462.453.821.985 1.078 1.596.257.611.385 1.267.385 1.967V5.1c0 .7-.13 1.356-.392 1.967a5.075 5.075 0 01-1.085 1.61 5.05 5.05 0 01-1.652 1.092 5.395 5.395 0 01-2.093.399zM23.452.2h2.156v7.84h4.886V10h-7.042V.2zM35.64 8.054c.439 0 .84-.07 1.204-.21.364-.14.674-.34.931-.602a2.83 2.83 0 00.602-.924c.145-.355.217-.751.217-1.19V5.1c0-.43-.072-.826-.217-1.19a2.793 2.793 0 00-.602-.938 2.666 2.666 0 00-.931-.609 3.232 3.232 0 00-1.204-.217h-1.666v5.908h1.666zM31.818.2h3.822a5.8 5.8 0 012.107.371c.64.247 1.19.59 1.652 1.029.462.439.819.954 1.071 1.547s.378 1.234.378 1.925V5.1a4.92 4.92 0 01-.378 1.932 4.565 4.565 0 01-1.071 1.554 5.068 5.068 0 01-1.652 1.036A5.697 5.697 0 0135.64 10h-3.822V.2z"/></g></svg><svg width="54" height="20" viewBox="-4 -4 54 20" id="text_gold_46x12_gold" x="145" y="124" xmlns="http://www.w3.org/2000/svg"><path fill="#BA913F" d="M7.315 11.18c-.82 0-1.567-.135-2.243-.405a5.17 5.17 0 01-1.74-1.125A5.084 5.084 0 012.2 7.94a5.65 5.65 0 01-.405-2.16v-.03a5.388 5.388 0 011.56-3.833 5.386 5.386 0 011.74-1.17A5.576 5.576 0 017.3.32c.47 0 .897.032 1.283.097.385.066.742.158 1.072.278.33.12.64.27.93.45.29.18.57.385.84.615L9.97 3.515c-.2-.17-.4-.32-.6-.45a3.662 3.662 0 00-1.32-.54 4.214 4.214 0 00-.825-.075c-.42 0-.812.087-1.178.262a3.18 3.18 0 00-1.605 1.74A3.439 3.439 0 004.21 5.72v.03c0 .48.077.922.232 1.327.156.406.375.758.66 1.058.286.3.62.532 1.005.697.386.166.813.248 1.283.248.86 0 1.585-.21 2.175-.63v-1.5H7.24V4.955h4.56v4.56a7.69 7.69 0 01-1.928 1.178c-.745.325-1.597.487-2.557.487zm11.647-2.13c.46 0 .885-.085 1.276-.255.39-.17.722-.405.997-.705.275-.3.49-.647.645-1.042.155-.396.233-.818.233-1.268v-.03c0-.45-.078-.875-.233-1.275a3.17 3.17 0 00-.66-1.05 3.172 3.172 0 00-1.012-.712 3.078 3.078 0 00-1.275-.263c-.47 0-.898.085-1.283.255-.385.17-.715.405-.99.705-.275.3-.49.647-.645 1.042a3.439 3.439 0 00-.232 1.268v.03c0 .45.077.875.232 1.275a3.17 3.17 0 001.665 1.762c.385.176.812.263 1.282.263zm-.03 2.13c-.81 0-1.554-.142-2.234-.428a5.558 5.558 0 01-1.763-1.155 5.167 5.167 0 01-1.155-1.71 5.388 5.388 0 01-.413-2.107v-.03c0-.75.14-1.452.42-2.107.28-.656.668-1.23 1.163-1.725a5.411 5.411 0 011.77-1.17A5.78 5.78 0 0118.962.32c.81 0 1.555.142 2.236.428.68.285 1.267.67 1.762 1.155.495.485.88 1.054 1.155 1.71.275.655.413 1.357.413 2.107v.03c0 .75-.14 1.452-.42 2.107a5.438 5.438 0 01-1.163 1.725 5.411 5.411 0 01-1.77 1.17 5.78 5.78 0 01-2.242.428zM26.396.5h2.31v8.4h5.235V11h-7.545V.5zm13.192 8.415c.47 0 .9-.075 1.29-.225.39-.15.723-.365.998-.645s.49-.61.645-.99c.155-.38.232-.805.232-1.275v-.03c0-.46-.077-.885-.232-1.275a2.993 2.993 0 00-.645-1.005 2.857 2.857 0 00-.998-.653 3.463 3.463 0 00-1.29-.232h-1.785v6.33h1.785zM35.492.5h4.096c.82 0 1.572.132 2.257.397A5.33 5.33 0 0143.615 2a4.91 4.91 0 011.148 1.658c.27.635.404 1.322.404 2.062v.03c0 .74-.134 1.43-.404 2.07a4.89 4.89 0 01-1.148 1.665 5.43 5.43 0 01-1.77 1.11 6.104 6.104 0 01-2.258.405h-4.095V.5z" fill-rule="evenodd"/></svg><svg width="10" height="17" viewBox="-4 -4 10 17" id="text_i_2x9_white" x="198" y="28" xmlns="http://www.w3.org/2000/svg"><path fill="#FFF" fill-rule="evenodd" d="M0 8.984h1.908V0H0z"/></svg><svg width="14" height="17" viewBox="-4 -4 14 17" id="text_l_6x9_white" x="115" y="254" xmlns="http://www.w3.org/2000/svg"><path fill="#FFF" fill-rule="evenodd" d="M1.908 0H0v8.984h5.319V7.092H1.908z"/></svg><svg width="49" height="20" viewBox="-4 -4 49 20" id="text_more_41x12_white" y="234" xmlns="http://www.w3.org/2000/svg"><path fill="#FFF" d="M11.352 11h-1.97V3.866h-.059L6.453 11H5.06L2.189 3.866h-.058V11H.16V.431h2.563L5.727 8.02h.059L8.789.431h2.563V11zM17.878.248c3.127 0 5.098 2.102 5.098 5.471 0 3.362-1.97 5.464-5.098 5.464-3.135 0-5.098-2.102-5.098-5.464 0-3.369 1.963-5.471 5.098-5.471zm0 1.846c-1.729 0-2.842 1.406-2.842 3.625 0 2.212 1.106 3.611 2.842 3.611 1.728 0 2.834-1.399 2.834-3.61 0-2.22-1.106-3.626-2.834-3.626zm8.73.066v3.369h1.905c1.113 0 1.765-.637 1.765-1.685 0-1.025-.689-1.684-1.787-1.684h-1.883zm0 4.973V11h-2.212V.431h4.33c2.43 0 3.822 1.282 3.822 3.37 0 1.354-.703 2.526-1.919 3.002L32.856 11h-2.505l-1.97-3.867h-1.773zM41 9.169V11h-7V.431h7v1.824h-4.79v2.549h4.52v1.699h-4.52v2.666H41z"/></svg><svg width="61" height="18" fill="none" viewBox="-4 -4 61 18" id="text_naver_53x10_green" x="145" y="87" xmlns="http://www.w3.org/2000/svg"><path d="M15 0l-3.92 10h3.334l.473-1.324h3.76l.47 1.324h3.333L18.53 0H15zm.646 6.275l1.118-3.124 1.117 3.124h-2.235zm20.678-.074h4.559V3.8h-4.56V2.45h4.608V0h-7.793v10h7.892V7.549h-4.706V6.2zm-9.903.374L24.07 0h-3.334l3.921 10h3.53l3.921-10h-3.332L26.42 6.575zM6.814 5.353L3.089 0H0v10h3.235V4.647L6.961 10h3.088V0H6.814v5.353zM49.58 6.57l.304-.128c1.162-.486 1.754-1.538 1.754-2.875 0-1.263-.462-2.197-1.37-2.777C49.423.251 48.326 0 46.82 0H42.6v10h3.137V7.206h1.128L48.775 10h3.334L49.58 6.57zm-2.177-1.914h-1.717V2.55h1.717a1.053 1.053 0 110 2.107z" fill="#03C75A"/></svg><svg width="76" height="21" viewBox="-4 -4 76 21" id="text_naver_68x13_white" x="77" y="201" xmlns="http://www.w3.org/2000/svg"><path d="M19.5 0l-5.098 13h4.333l.616-1.72h4.886l.616 1.72h4.333L24.088 0H19.5zm2.294 4.096l1.453 4.06h-2.906l1.453-4.06zM43.079 0v13h10.26V9.814H47.22V8.06h5.926V4.94H47.22V3.186h5.99V0zm-5.672 0l-3.059 8.548L31.29 0h-4.333l5.098 13h4.588L41.74 0zM8.858 0v6.958L4.015 0H0v13h4.206V6.042L9.049 13h4.015V0zm52.765 6.054h-2.231v-2.74h2.23a1.37 1.37 0 010 2.74zm2.83 2.486l.395-.165c1.51-.632 2.279-2 2.279-3.737 0-1.642-.599-2.857-1.78-3.61C64.249.325 62.825 0 60.865 0h-5.488v13h4.079V9.368h1.466L63.407 13h4.333l-3.286-4.46z" fill="#FFF" fill-rule="evenodd"/></svg><svg width="32" height="16" viewBox="-4 -4 32 16" id="text_new_24x8_white" x="95" y="234" xmlns="http://www.w3.org/2000/svg"><path fill="#FFF" fill-rule="evenodd" d="M1.363 8H0V0h1.226l3.918 5.605h.049V0H6.55v8H5.335L1.412 2.39h-.05V8zm11.693-1.209V8h-5.11V0h5.11v1.209H9.357V3.37h3.497v1.136H9.357V6.79h3.7zm5.828-4.579L17.269 8h-1.33l-2.117-8h1.467l1.368 6.06h.043L18.287 0h1.248l1.587 6.06h.044L22.534 0H24l-2.118 8h-1.33l-1.614-5.788h-.054z"/></svg><svg width="33" height="15" viewBox="-4 -4 33 15" id="text_new_25x7_white" x="121" y="184" xmlns="http://www.w3.org/2000/svg"><path fill="#FFF" fill-rule="evenodd" d="M18.94 0l-2.46 4.713L15.858.02h-1.682L15.339 7h1.366l2.438-4.534L19.926 7h1.365l3.71-6.98h-1.642l-2.333 4.693L20.284 0H18.94zM8.608.02L7.343 6.95h5.433l.247-1.356H9.15l.266-1.455h3.363l.248-1.357H9.663l.256-1.406h3.822L13.988.02h-5.38zm-2.553 0l-.778 4.267L2.712.02H1.265L0 6.95h1.55l.803-4.405L5.005 6.95H6.34L7.604.02h-1.55z"/></svg><svg width="128" height="86" viewBox="-4 -4 128 86" id="text_npay_point_whenever_shopping_120x78" x="208" xmlns="http://www.w3.org/2000/svg"><path fill="#FFF" d="M2.548 12.668c1.342-.481 2.619-1.196 3.83-2.144a15.58 15.58 0 003.13-3.283 17.57 17.57 0 003.61 2.9 16.297 16.297 0 004.4 1.87l1.575-2.341a16.51 16.51 0 01-4.541-1.893 14.78 14.78 0 01-3.622-3.053 12.612 12.612 0 00.875-2.933l-3.02-.503a11.351 11.351 0 01-2.68 5.58C4.695 8.475 2.92 9.656.774 10.415l1.773 2.254zm16.436 6.916v-2.67h-4.18V12.45h-2.911v4.465H7.975V12.45H5.086v4.465H.884v2.67h18.1zm18.012-7.047V1.397h-2.89v11.14h2.89zm-5.953-8.404v-2.43H20.647v2.43h10.396zm.503 7.704V9.495h-2.451l.81-4.574h-2.67l-.81 4.574h-1.773V4.92h-2.67v4.574h-1.75v2.342h11.314zm.963 8.666c1.532 0 2.714-.32 3.546-.963.831-.642 1.247-1.553 1.247-2.735 0-1.095-.416-1.992-1.247-2.692-.832-.7-2.014-1.05-3.546-1.05h-6.784c-1.518 0-2.692.35-3.524 1.05-.832.7-1.247 1.597-1.247 2.692 0 1.182.415 2.093 1.247 2.735.832.642 2.006.963 3.524.963h6.784zm0-2.429h-6.784c-.57 0-1.01-.113-1.324-.34a1.082 1.082 0 01-.471-.93c0-.393.157-.71.47-.951.314-.241.756-.361 1.325-.361h6.784c.584 0 1.032.12 1.346.36.314.241.47.559.47.953 0 .394-.156.704-.47.93-.314.226-.762.34-1.346.34zM50.5 4.33V2.12h-4.355V.674h-2.91v1.444h-4.16v2.21H50.5zm5.143 6.894V7.657h2.451V4.92h-2.45V1.397H52.73v9.827h2.911zm-10.067.044c1.21 0 2.196-.281 2.954-.843.76-.562 1.138-1.346 1.138-2.353 0-.992-.379-1.772-1.138-2.341-.758-.57-1.743-.854-2.954-.854h-1.707c-1.211 0-2.192.285-2.944.854-.751.569-1.127 1.35-1.127 2.341 0 1.007.376 1.791 1.127 2.353.752.562 1.733.843 2.944.843h1.707zm-.219-2.101h-1.488c-.438 0-.763-.103-.974-.307-.212-.204-.317-.467-.317-.788 0-.35.124-.623.372-.82.248-.197.62-.296 1.116-.296h1.51c.423 0 .748.11.974.328.226.22.339.482.339.788 0 .365-.135.639-.405.821-.27.182-.646.274-1.127.274zm10.68 11.14v-2.124H42.992V17.2h12.65v-5.21H40.103v2.124h12.628v.985H40.103v5.208h15.933zm23.527 0V1.396h-2.67V8.62h-1.27V1.485h-2.647v18.603h2.648v-8.82h1.27v9.038h2.67zm-7.178-.832v-2.627h-1.817V4.352h1.773V1.704h-4.465v17.77h4.509zm-5.034 0v-2.627h-1.466V4.352h1.466V1.704h-4.136v17.77h4.136zm30.859.831V11.29h2.451V8.51H98.21V1.397h-2.911v18.91h2.91zm-6.216-.831V1.704h-9.739v17.77h9.74zm-2.801-2.627h-4.136V4.352h4.136v12.496zm28.057 3.458V11.29h2.451V8.51h-2.45V1.397h-2.912v18.91h2.911zm-4.64-.831v-2.627h-8.404V4.352h7.332V1.704h-10.242v17.77h11.315zm-94.655 29.72V30.286h-2.889v18.91h2.89zm-4.574-.218V30.374h-2.867v6.653H6.86v2.78h3.655v9.17h2.867zm-4.092-.613v-2.648H4.517V30.593h-2.91v17.77h7.682zm27.707.831V30.286h-2.89v18.91h2.89zm-11.38-.634c1.575 0 2.837-.489 3.785-1.467.949-.977 1.423-2.4 1.423-4.267v-6.675c0-1.868-.474-3.298-1.423-4.29-.948-.992-2.21-1.488-3.786-1.488-1.561 0-2.812.496-3.753 1.488-.941.992-1.412 2.422-1.412 4.29v6.675c0 1.867.47 3.29 1.412 4.267.94.978 2.192 1.467 3.753 1.467zm0-2.627c-.774 0-1.365-.251-1.774-.755-.408-.503-.612-1.287-.612-2.352v-6.675c0-1.05.204-1.832.612-2.342.409-.51 1-.766 1.773-.766.773 0 1.368.255 1.784.766.416.51.624 1.291.624 2.342v6.675c0 1.065-.208 1.849-.624 2.352-.416.504-1.01.755-1.784.755zm30.42 3.261V30.286h-2.889v7.091h-3.283v2.78h3.283v9.038h2.89zm-6.828-.831V30.593h-2.801v5.646H42.49v-5.646h-2.801v17.77h9.52zm-2.801-2.627H42.49V38.91h3.918v6.828zm28.67 3.458V30.286h-2.714v18.91h2.714zm-3.984-.218V30.374h-2.626v7.55h-1.62v2.67h1.62v8.383h2.626zm-3.72-15.736v-2.648h-8.645v2.648h8.645zm.131 15.123v-2.605h-1.663l.175-2.79.088-1.393.087-1.397.175-2.79c.059-.927.124-1.858.197-2.791h-2.582c-.073.933-.139 1.864-.197 2.79l-.175 2.79-.175 2.791-.088 1.392-.088 1.398h-.81V34.598h-2.56v11.161h-1.335v2.605h8.951zm26.613.831V30.286h-2.889v18.91h2.89zm-11.38-.634c1.575 0 2.837-.489 3.786-1.467.948-.977 1.422-2.4 1.422-4.267v-6.675c0-1.868-.474-3.298-1.422-4.29-.949-.992-2.21-1.488-3.786-1.488-1.562 0-2.813.496-3.754 1.488-.94.992-1.411 2.422-1.411 4.29v6.675c0 1.867.47 3.29 1.411 4.267.941.978 2.192 1.467 3.754 1.467zm0-2.627c-.774 0-1.365-.251-1.773-.755-.409-.503-.613-1.287-.613-2.352v-6.675c0-1.05.204-1.832.613-2.342.408-.51 1-.766 1.773-.766.773 0 1.367.255 1.783.766.416.51.624 1.291.624 2.342v6.675c0 1.065-.208 1.849-.624 2.352-.416.504-1.01.755-1.783.755zM18.065 62.152v-2.67H1.804v2.67h16.26zm.197 8.12v-2.627h-3.524l.569-2.221c.19-.737.38-1.485.57-2.244h-3.043c-.102.38-.2.755-.295 1.127-.095.372-.187.748-.274 1.128a27.91 27.91 0 00-.285 1.105c-.087.372-.175.74-.262 1.105H7.58V63.18H4.583v4.465H1.607v2.626h16.655zm.722 7.09v-2.67h-7.55v-3.458H8.368v3.458H.884v2.67h18.1zm6.5-7.178c.773 0 1.484-.128 2.134-.383a5.286 5.286 0 001.696-1.062 4.975 4.975 0 001.105-1.608c.27-.62.405-1.303.405-2.047v-.81c0-.729-.135-1.407-.405-2.035a4.963 4.963 0 00-1.105-1.62 5.264 5.264 0 00-1.696-1.06 5.769 5.769 0 00-2.134-.384c-.788 0-1.507.128-2.156.383-.65.256-1.215.61-1.696 1.062a4.796 4.796 0 00-1.094 1.62 5.206 5.206 0 00-.394 2.035v.81c0 .743.131 1.426.394 2.046.262.62.627 1.156 1.094 1.608a5.258 5.258 0 001.696 1.062c.65.255 1.368.383 2.156.383zm11.512 2.998V59.175h-2.89v14.007h2.89zm-11.512-5.45c-.759 0-1.36-.255-1.806-.765-.445-.511-.667-1.139-.667-1.883v-.81c0-.744.222-1.37.667-1.882.445-.51 1.047-.766 1.806-.766.744 0 1.342.256 1.794.766.453.511.679 1.138.679 1.883v.81c0 .743-.226 1.37-.679 1.882-.452.51-1.05.766-1.794.766zm11.818 10.243v-2.648H24.171v-3.568H21.26v6.216h16.042zm19.04-6.04v-2.54H42.796V66.88h13.35v-2.495h-13.35V62.02h13.35v-2.538h-16.26v12.453h16.458zm.723 5.427v-2.648h-18.1v2.648h18.1z"/></svg><svg width="145" height="97" viewBox="-4 -4 145 97" id="text_npay_point_whenever_shopping_137x89" y="87" xmlns="http://www.w3.org/2000/svg"><path fill="#FFF" d="M2.8 14.375c1.533-.55 2.992-1.367 4.375-2.45a17.72 17.72 0 003.575-3.75 20.01 20.01 0 004.125 3.312 18.602 18.602 0 005.025 2.138l1.8-2.675a18.794 18.794 0 01-5.187-2.163c-1.609-.975-2.988-2.137-4.138-3.487a14.386 14.386 0 001-3.35l-3.45-.575A12.946 12.946 0 016.862 7.75C5.254 9.583 3.225 10.933.775 11.8L2.8 14.375zm18.775 7.9v-3.05H16.8v-5.1h-3.325v5.1H9v-5.1H5.7v5.1H.9v3.05h20.675zm20.575-8.05V1.5h-3.3v12.725h3.3zm-6.8-9.6V1.85H23.475v2.775H35.35zm.575 8.8V10.75h-2.8l.925-5.225H31l-.925 5.225H28.05V5.525H25v5.225h-2v2.675h12.925zm1.1 9.9c1.75 0 3.1-.367 4.05-1.1.95-.733 1.425-1.775 1.425-3.125 0-1.25-.475-2.275-1.425-3.075-.95-.8-2.3-1.2-4.05-1.2h-7.75c-1.733 0-3.075.4-4.025 1.2-.95.8-1.425 1.825-1.425 3.075 0 1.35.475 2.392 1.425 3.125.95.733 2.292 1.1 4.025 1.1h7.75zm0-2.775h-7.75c-.65 0-1.154-.13-1.512-.388a1.237 1.237 0 01-.538-1.062c0-.45.18-.813.538-1.087.358-.276.862-.413 1.512-.413h7.75c.667 0 1.18.137 1.538.413.358.274.537.637.537 1.087 0 .45-.18.804-.538 1.062-.358.259-.87.388-1.537.388zm20.55-15.7V2.325H52.6V.675h-3.325v1.65h-4.75V4.85h13.05zm5.875 7.875V8.65h2.8V5.525h-2.8V1.5h-3.325v11.225h3.325zm-11.5.05c1.383 0 2.508-.32 3.375-.963.867-.641 1.3-1.537 1.3-2.687 0-1.133-.433-2.025-1.3-2.675-.867-.65-1.992-.975-3.375-.975H50c-1.383 0-2.504.325-3.362.975-.859.65-1.288 1.542-1.288 2.675 0 1.15.43 2.046 1.288 2.688.858.641 1.979.962 3.362.962h1.95zm-.25-2.4H50c-.5 0-.87-.117-1.112-.35-.242-.233-.363-.533-.363-.9 0-.4.142-.713.425-.938.283-.224.708-.337 1.275-.337h1.725c.483 0 .854.125 1.112.375.259.25.388.55.388.9 0 .417-.154.73-.463.938-.308.208-.737.312-1.287.312zM63.9 23.1v-2.425H49V19.55h14.45V13.6H45.7v2.425h14.425v1.125H45.7v5.95h18.2zm26.875 0V1.5h-3.05v8.25h-1.45V1.6H83.25v21.25h3.025V12.775h1.45V23.1h3.05zm-8.2-.95v-3H80.5V4.875h2.025V1.85h-5.1v20.3h5.15zm-5.75 0v-3H75.15V4.875h1.675V1.85H72.1v20.3h4.725zm35.25.95V12.8h2.8V9.625h-2.8V1.5h-3.325v21.6h3.325zm-7.1-.95V1.85H93.85v20.3h11.125zm-3.2-3H97.05V4.875h4.725V19.15zm32.05 3.95V12.8h2.8V9.625h-2.8V1.5H130.5v21.6h3.325zm-5.3-.95v-3h-9.6V4.875h8.375V1.85h-11.7v20.3h12.925zM20.4 56.1V34.5h-3.3v21.6h3.3zm-5.225-.25V34.6H11.9v7.6H7.725v3.175H11.9V55.85h3.275zm-4.675-.7v-3.025H5.05V34.85H1.725v20.3H10.5zm31.65.95V34.5h-3.3v21.6h3.3zm-13-.725c1.8 0 3.242-.558 4.325-1.675 1.083-1.117 1.625-2.742 1.625-4.875V41.2c0-2.133-.542-3.767-1.625-4.9-1.083-1.133-2.525-1.7-4.325-1.7-1.783 0-3.212.567-4.288 1.7-1.074 1.133-1.612 2.767-1.612 4.9v7.625c0 2.133.538 3.758 1.612 4.875 1.076 1.117 2.505 1.675 4.288 1.675zm0-3c-.883 0-1.558-.287-2.025-.863-.467-.575-.7-1.47-.7-2.687V41.2c0-1.2.233-2.092.7-2.675.467-.583 1.142-.875 2.025-.875s1.563.292 2.038.875c.475.583.712 1.475.712 2.675v7.625c0 1.217-.237 2.112-.712 2.687-.476.576-1.155.863-2.038.863zM63.9 56.1V34.5h-3.3v8.1h-3.75v3.175h3.75V56.1h3.3zm-7.8-.95v-20.3h-3.2v6.45h-4.475v-6.45h-3.2v20.3H56.1zm-3.2-3h-4.475v-7.8H52.9v7.8zm32.75 3.95V34.5h-3.1v21.6h3.1zm-4.55-.25V34.6h-3v8.625h-1.85v3.05h1.85v9.575h3zm-4.25-17.975V34.85h-9.875v3.025h9.875zM77 55.15v-2.975h-1.9l.2-3.188.1-1.59.1-1.597.2-3.188c.067-1.058.142-2.12.225-3.187h-2.95a222.14 222.14 0 00-.225 3.188l-.2 3.187-.2 3.188-.1 1.59-.1 1.597h-.925v-12.75H68.3v12.75h-1.525v2.975H77zm30.4.95V34.5h-3.3v21.6h3.3zm-13-.725c1.8 0 3.242-.558 4.325-1.675 1.083-1.117 1.625-2.742 1.625-4.875V41.2c0-2.133-.542-3.767-1.625-4.9-1.083-1.133-2.525-1.7-4.325-1.7-1.783 0-3.213.567-4.288 1.7-1.075 1.133-1.612 2.767-1.612 4.9v7.625c0 2.133.537 3.758 1.612 4.875 1.076 1.117 2.505 1.675 4.288 1.675zm0-3c-.883 0-1.558-.287-2.025-.863-.467-.575-.7-1.47-.7-2.687V41.2c0-1.2.233-2.092.7-2.675.467-.583 1.142-.875 2.025-.875s1.563.292 2.037.875c.475.583.713 1.475.713 2.675v7.625c0 1.217-.238 2.112-.713 2.687-.474.576-1.154.863-2.037.863zM20.525 70.9v-3.05H1.95v3.05h18.575zm.225 9.275v-3h-4.025c.217-.85.433-1.696.65-2.538.217-.841.433-1.695.65-2.562H14.55c-.117.433-.23.862-.338 1.288-.108.424-.212.854-.312 1.287-.117.417-.225.838-.325 1.262l-.3 1.263H8.55v-5.1H5.125v5.1h-3.4v3H20.75zm.825 8.1v-3.05H12.95v-3.95h-3.5v3.95H.9v3.05h20.675zm7.425-8.2c.883 0 1.696-.146 2.438-.438a5.995 5.995 0 001.937-1.212 5.723 5.723 0 001.263-1.837c.308-.709.462-1.488.462-2.338v-.925c0-.833-.154-1.608-.462-2.325a5.672 5.672 0 00-1.263-1.85 6.026 6.026 0 00-1.938-1.213A6.613 6.613 0 0029 67.5c-.9 0-1.72.146-2.462.438A5.99 5.99 0 0024.6 69.15 5.504 5.504 0 0023.35 71c-.3.717-.45 1.492-.45 2.325v.925c0 .85.15 1.63.45 2.338.3.708.717 1.32 1.25 1.837.55.517 1.196.92 1.938 1.212.741.292 1.562.438 2.462.438zM42.15 83.5v-16h-3.3v16h3.3zM29 77.275c-.867 0-1.554-.292-2.063-.875-.508-.583-.762-1.3-.762-2.15v-.925c0-.85.254-1.567.762-2.15.509-.583 1.196-.875 2.063-.875.85 0 1.533.292 2.05.875.517.583.775 1.3.775 2.15v.925c0 .85-.258 1.567-.775 2.15s-1.2.875-2.05.875zm13.5 11.7V85.95h-15v-4.075h-3.325v7.1H42.5zm21.75-6.9v-2.9H48.775V76.3h15.25v-2.85h-15.25v-2.7h15.25v-2.9H45.45v14.225h18.8zm.825 6.2V85.25H44.4v3.025h20.675z"/></svg><svg width="13" height="20" viewBox="-4 -4 13 20" id="text_number_bold_1_5x12_white" y="275" xmlns="http://www.w3.org/2000/svg"><path fill="#FFF" fill-rule="evenodd" d="M3.284 0L0 1.021l.523 2.144 1.993-.51V12H5V0z"/></svg><svg width="17" height="20" viewBox="-4 -4 17 20" id="text_number_bold_2_9x12_white" x="13" y="275" xmlns="http://www.w3.org/2000/svg"><path fill="#FFF" fill-rule="evenodd" d="M2.032 3.921L.155 2.45C1.355.861 2.52 0 4.69 0c2.59 0 4.188 1.453 4.188 3.668 0 1.977-1.042 2.974-3.196 4.596L3.7 9.752H9V12H0V9.938L4.047 6.71C5.56 5.493 6.15 4.85 6.15 3.871c0-.998-.677-1.539-1.633-1.539-.939 0-1.582.507-2.485 1.589"/></svg><svg width="17" height="20" viewBox="-4 -4 17 20" id="text_number_bold_3_9x12_white" x="30" y="275" xmlns="http://www.w3.org/2000/svg"><path fill="#FFF" fill-rule="evenodd" d="M.702 2.224V0h8.11v1.955L5.777 4.803C7.423 5.073 9 5.915 9 8.123 9 10.364 7.354 12 4.68 12 2.52 12 1.028 11.157 0 9.961l1.817-1.703c.822.911 1.68 1.416 2.896 1.416.995 0 1.698-.557 1.698-1.45 0-.977-.84-1.517-2.349-1.517H2.965l-.41-1.65 2.862-2.833H.702z"/></svg><svg width="18" height="20" viewBox="-4 -4 18 20" id="text_number_bold_4_10x12_white" x="47" y="275" xmlns="http://www.w3.org/2000/svg"><path fill="#FFF" fill-rule="evenodd" d="M6.316 0L0 7.574l.411 1.855h5.625V12h2.418V9.429H10V7.302H8.454V0H6.316zm-.28 3.591v3.711h-3.06l3.06-3.711z"/></svg><svg width="17" height="20" viewBox="-4 -4 17 20" id="text_number_bold_5_9x12_white" x="65" y="275" xmlns="http://www.w3.org/2000/svg"><path fill="#FFF" fill-rule="evenodd" d="M1.142 0H8.47v2.275H3.39l-.135 2.04a5.89 5.89 0 011.568-.203C7.176 4.112 9 5.225 9 7.904 9 10.416 7.21 12 4.466 12 2.556 12 1.16 11.326 0 10.23l1.586-1.871c.903.81 1.79 1.281 2.846 1.281 1.227 0 1.994-.589 1.994-1.652 0-1.028-.835-1.618-2.113-1.618-.75 0-1.432.203-1.995.439L.8 5.815 1.14 0z"/></svg><svg width="12" height="20" viewBox="-4 -4 12 20" id="text_number_light_1_4x12_white" x="82" y="275" xmlns="http://www.w3.org/2000/svg"><path fill="#FFF" fill-rule="evenodd" d="M2.986 0L0 1.004l.331 1.089 2.306-.698V12h1.362V0z" opacity=".6"/></svg><svg width="16" height="20" viewBox="-4 -4 16 20" id="text_number_light_2_8x12_white" x="94" y="275" xmlns="http://www.w3.org/2000/svg"><path fill="#FFF" fill-rule="evenodd" d="M1.162 3.228l-.949-.71C1.244.929 2.324 0 4.335 0c2.078 0 3.551 1.42 3.551 3.363 0 1.741-.884 2.806-2.896 4.614l-3.059 2.806H8V12H0v-1.031l4.155-3.786c1.751-1.622 2.389-2.535 2.389-3.718 0-1.386-1.063-2.266-2.307-2.266-1.308 0-2.16.71-3.075 2.029" opacity=".6"/></svg><svg width="16" height="20" viewBox="-4 -4 16 20" id="text_number_light_3_8x12_white" x="110" y="275" xmlns="http://www.w3.org/2000/svg"><path fill="#FFF" fill-rule="evenodd" d="M.598 1.196V0h7.225v.977L4.267 5.09C6.254 5.258 8 6.253 8 8.427 8 10.551 6.319 12 4.218 12 2.328 12 .921 11.14 0 9.893l.921-.86c.873 1.113 1.923 1.754 3.313 1.754 1.374 0 2.473-.91 2.473-2.31 0-1.483-1.293-2.291-3.168-2.291h-.727l-.259-.792 3.572-4.198H.598z" opacity=".6"/></svg><svg width="18" height="20" viewBox="-4 -4 18 20" id="text_number_light_4_10x12_white" x="126" y="275" xmlns="http://www.w3.org/2000/svg"><path fill="#FFF" fill-rule="evenodd" d="M6.899 0L0 8.203l.348.972h6.429V12h1.324V9.175h1.898V8.05H8.101V0H6.899zm-.122 1.905V8.05H1.654l5.123-6.145z" opacity=".6"/></svg><svg width="16" height="20" viewBox="-4 -4 16 20" id="text_number_light_5_8x12_white" x="144" y="275" xmlns="http://www.w3.org/2000/svg"><path fill="#FFF" fill-rule="evenodd" d="M1.056 0h6.448v1.23H2.16l-.24 3.775c.655-.303 1.281-.522 2.208-.522C6.304 4.483 8 5.849 8 8.106 8 10.432 6.336 12 4 12c-1.6 0-2.993-.81-4-1.871l.832-.96c.976.994 2.048 1.618 3.184 1.618 1.6 0 2.703-1.113 2.703-2.63 0-1.483-1.135-2.494-2.783-2.494-.944 0-1.696.303-2.352.674l-.849-.59L1.056 0z" opacity=".6"/></svg><svg width="22" height="14" viewBox="-4 -4 22 14" id="text_off_14x6_white" x="154" y="184" xmlns="http://www.w3.org/2000/svg"><path fill="#fff" fill-rule="evenodd" d="M2.657 0c1.631 0 2.657 1.155 2.657 3.002C5.314 4.849 4.288 6 2.657 6 1.022 6 0 4.85 0 3.002 0 1.155 1.022 0 2.657 0zm0 .793C1.58.793.9 1.646.9 3.002c0 1.352.68 2.205 1.757 2.205S4.41 4.354 4.41 3.002c0-1.356-.676-2.21-1.753-2.21zm4.374 5.11v-2.43h2.437v-.76H7.031V.872h2.661V.097H6.151v5.806h.88zm4.308 0v-2.43h2.437v-.76h-2.437V.872H14V.097h-3.541v5.806h.88z"/></svg><svg width="19" height="14" viewBox="-4 -4 19 14" id="text_on_11x6_white" x="176" y="184" xmlns="http://www.w3.org/2000/svg"><path fill="#fff" fill-rule="evenodd" d="M2.712 0c1.665 0 2.712 1.155 2.712 3.002C5.424 4.849 4.377 6 2.712 6 1.043 6 0 4.85 0 3.002 0 1.155 1.043 0 2.712 0zm0 .793c-1.1 0-1.793.853-1.793 2.209 0 1.352.694 2.205 1.793 2.205 1.1 0 1.79-.853 1.79-2.205 0-1.356-.69-2.21-1.79-2.21zm4.44 5.11V1.626h.037l3 4.277H11V.097h-.875v4.281h-.032l-3-4.281h-.815v5.806h.875z"/></svg><svg width="54" height="22" viewBox="-4 -4 54 22" id="text_pick_46x14_black" x="145" y="144" xmlns="http://www.w3.org/2000/svg"><path fill-rule="evenodd" d="M0 13.73V.27h5.74c3.387 0 5.57 1.75 5.57 4.73v.038c0 3.174-2.43 4.847-5.76 4.847H3.712v3.846H0zm3.712-6.768h1.76c1.32 0 2.125-.693 2.125-1.75v-.039c0-1.154-.804-1.77-2.144-1.77h-1.74v3.559zm9.242 6.769V.269h3.732v13.462h-3.732zm12.63.269c-3.828 0-6.908-2.942-6.908-6.962V7c0-3.923 3.004-7 7.06-7 2.737 0 4.497 1.154 5.683 2.808L28.626 4.98c-.766-.962-1.646-1.577-2.928-1.577-1.875 0-3.196 1.596-3.196 3.558V7c0 2.02 1.32 3.596 3.196 3.596 1.397 0 2.22-.654 3.023-1.634l2.794 2C30.252 12.712 28.549 14 25.583 14zm7.52-.27V.27h3.711v5.46L41.427.27h4.4l-5.07 5.788L46 13.73h-4.458l-3.368-5-1.359 1.519v3.48h-3.712z"/></svg><svg width="87" height="17" viewBox="-4 -4 87 17" id="text_review_event_79x9_white" y="184" xmlns="http://www.w3.org/2000/svg"><path fill="#FFF" d="M6.456 2.293c0-.383-.12-.668-.362-.856-.242-.188-.592-.282-1.05-.282h-.366l-.746 3.239h.52c.584 0 1.064-.184 1.44-.551.376-.367.564-.884.564-1.55zM3.303 7.101c-.014.06-.026.118-.035.171a.812.812 0 00-.013.124c0 .161.066.28.199.354.132.076.385.133.757.172l-.091.392H0l.091-.392c.09-.003.223-.017.4-.04.178-.023.31-.05.395-.078a.659.659 0 00.32-.21.814.814 0 00.153-.327l1.23-5.328a2.03 2.03 0 00.037-.188.875.875 0 00.011-.113c0-.15-.076-.267-.228-.352-.152-.084-.4-.15-.744-.201l.091-.392h4.2c.874 0 1.53.123 1.969.37.439.248.658.622.658 1.123 0 .59-.213 1.086-.64 1.485-.425.4-1.027.692-1.804.878a178.555 178.555 0 001.337 2.38c.087.154.198.328.336.523.138.196.284.32.438.374a1.8 1.8 0 00.312.064c.132.018.227.029.284.032l-.096.392H5.967a34.227 34.227 0 00-.862-1.85 31.161 31.161 0 00-.894-1.603h-.387l-.52 2.24zM12 8.49a3.34 3.34 0 01-1.13-.174 2.174 2.174 0 01-.804-.486 2.021 2.021 0 01-.467-.725 2.572 2.572 0 01-.156-.913c0-.423.08-.833.237-1.23.157-.398.392-.756.703-1.074a3.311 3.311 0 011.118-.742c.45-.19.948-.284 1.493-.284.64 0 1.128.102 1.463.306.335.204.502.51.502.918 0 .39-.145.726-.435 1.007-.29.282-.683.49-1.181.626a9.52 9.52 0 01-1.007.253c-.278.05-.617.096-1.018.14.007.157.029.334.064.531.036.197.09.365.161.505.086.161.208.29.366.384.157.095.358.142.601.142.423 0 .782-.081 1.077-.244.296-.163.578-.422.846-.776l.392.327a3.588 3.588 0 01-1.238 1.099A3.273 3.273 0 0112 8.49zm1.214-4.253c0-.305-.056-.538-.167-.701a.529.529 0 00-.462-.245c-.275 0-.536.225-.781.675-.245.449-.402 1.017-.47 1.705a8.81 8.81 0 00.628-.097c.208-.04.373-.086.495-.14.268-.118.461-.27.58-.456.118-.186.177-.433.177-.741zm8.475-.038c0 .505-.085 1.017-.255 1.536-.17.52-.409.98-.717 1.38-.365.47-.77.815-1.214 1.037a3.061 3.061 0 01-1.385.333c-.638 0-1.144-.148-1.52-.445-.376-.298-.564-.724-.564-1.279 0-.172.028-.356.086-.553.057-.197.129-.428.214-.693.072-.225.14-.448.202-.669a2.27 2.27 0 00.094-.625c0-.194-.043-.332-.129-.414-.086-.082-.24-.123-.462-.123-.114 0-.232.017-.352.053-.12.036-.223.07-.309.102l.119-.483c.29-.118.567-.22.832-.304.265-.084.516-.126.752-.126.426 0 .755.107.986.32.23.213.346.477.346.792 0 .233-.031.48-.094.741a9.057 9.057 0 01-.196.704c-.06.186-.124.4-.19.642a2.32 2.32 0 00-.1.577c0 .304.073.548.22.73.147.183.383.275.71.275.486 0 .909-.182 1.267-.546.358-.363.537-.853.537-1.469a1.827 1.827 0 00-.054-.44.824.824 0 00-.23-.263 3.82 3.82 0 01-.29-.258 1.655 1.655 0 01-.275-.368 1.126 1.126 0 01-.118-.55c0-.19.037-.344.11-.462.074-.119.162-.215.266-.29.086-.061.189-.11.309-.145.12-.036.232-.054.336-.054.333 0 .594.119.784.357.19.238.284.565.284.98zm4.072 3.346l-.118.484a23.4 23.4 0 01-.849.32 2.24 2.24 0 01-.736.11c-.43 0-.763-.105-1.002-.315a1.016 1.016 0 01-.357-.797c0-.126.01-.254.027-.384.018-.131.047-.279.086-.443l.44-1.569c.04-.15.073-.293.1-.427a1.89 1.89 0 00.04-.368c0-.2-.041-.34-.123-.419-.083-.078-.24-.118-.473-.118a1.22 1.22 0 00-.352.054c-.12.036-.223.07-.309.102l.118-.484c.29-.118.568-.219.833-.303.265-.084.516-.126.752-.126.426 0 .755.103.986.309.23.206.346.473.346.803 0 .068-.008.188-.024.36a2.427 2.427 0 01-.089.472l-.44 1.563a4.344 4.344 0 00-.097.43 2.281 2.281 0 00-.043.365c0 .208.047.35.14.424.093.076.254.113.483.113a1.4 1.4 0 00.365-.056 2.04 2.04 0 00.296-.1zm.113-6.558a.915.915 0 01-.31.696 1.053 1.053 0 01-.743.287c-.29 0-.54-.096-.747-.287a.912.912 0 01-.311-.696.92.92 0 01.311-.698c.208-.193.457-.29.747-.29s.538.097.744.29a.924.924 0 01.309.698zm3.013 7.504a3.34 3.34 0 01-1.13-.175 2.174 2.174 0 01-.804-.486 2.021 2.021 0 01-.467-.725 2.572 2.572 0 01-.156-.913c0-.423.079-.833.236-1.23.158-.398.393-.756.704-1.074a3.311 3.311 0 011.117-.742c.451-.19.95-.284 1.493-.284.641 0 1.13.102 1.464.306.335.204.502.51.502.918 0 .39-.145.726-.435 1.007-.29.282-.684.49-1.181.626a9.47 9.47 0 01-1.008.253c-.277.05-.616.096-1.017.14.007.157.028.334.064.531.036.197.09.365.161.505.086.161.208.29.365.384.158.095.359.142.602.142.423 0 .781-.081 1.077-.244.295-.163.577-.422.846-.776l.392.327a3.588 3.588 0 01-1.238 1.099 3.273 3.273 0 01-1.587.41zM30.1 4.238c0-.305-.056-.538-.167-.701a.529.529 0 00-.462-.245c-.276 0-.536.225-.781.675-.246.449-.402 1.017-.47 1.705a8.81 8.81 0 00.628-.097c.208-.04.373-.086.494-.14.269-.118.462-.27.58-.456.119-.186.178-.433.178-.741zM42.11 4.2c0 .523-.087 1.041-.258 1.555a4.514 4.514 0 01-.72 1.362 3.884 3.884 0 01-1.139.99c-.44.253-.943.38-1.51.38-.522 0-.945-.103-1.27-.307a1.54 1.54 0 01-.663-.88c-.383.418-.759.718-1.128.899a2.72 2.72 0 01-1.214.271c-.415 0-.743-.129-.982-.387-.24-.257-.36-.581-.36-.972 0-.143.014-.278.043-.405.028-.127.062-.266.102-.416l.365-1.273c.025-.1.055-.238.089-.411.034-.174.05-.302.05-.384 0-.19-.04-.327-.12-.411-.08-.084-.237-.126-.47-.126-.115 0-.232.017-.352.053-.12.036-.223.07-.309.102l.118-.483c.29-.118.568-.22.833-.304.265-.084.515-.126.752-.126.426 0 .754.107.985.32.231.213.347.482.347.808a3.4 3.4 0 01-.054.508 3.95 3.95 0 01-.118.534l-.312 1.042c-.035.111-.067.25-.094.416-.026.167-.04.286-.04.358 0 .204.057.364.17.48a.533.533 0 00.394.175 1.6 1.6 0 00.204-.019.95.95 0 00.28-.089c.1-.046.222-.12.367-.222.145-.103.286-.23.422-.384 0-.065.008-.159.024-.282.016-.124.04-.272.073-.444l.709-3.11 1.713-.075.065.076-.71 3.077a3.4 3.4 0 00-.075.698c0 .308.075.536.223.683.149.146.368.22.658.22.487 0 .907-.182 1.26-.545.352-.364.529-.85.529-1.459a1.827 1.827 0 00-.054-.44.766.766 0 00-.22-.253 4.392 4.392 0 01-.3-.263 1.571 1.571 0 01-.275-.378 1.152 1.152 0 01-.118-.546c0-.179.035-.329.105-.45a.932.932 0 01.583-.446 1.23 1.23 0 01.333-.054c.343 0 .607.122.792.365.184.244.276.568.276.972zM53.307.693l-.446 1.944h-.408a2.244 2.244 0 00-.362-.937c-.192-.285-.393-.45-.605-.497-.1-.025-.245-.04-.435-.046-.19-.005-.347-.008-.472-.008h-1.053l-.688 2.981h.73c.27 0 .48-.03.632-.088.152-.06.294-.143.427-.25.1-.082.217-.23.352-.443.134-.213.23-.395.287-.545h.408l-.736 3.18h-.408v-.2a2.53 2.53 0 00-.05-.496c-.035-.17-.075-.29-.122-.357a.662.662 0 00-.37-.272 1.888 1.888 0 00-.527-.067h-.73l-.489 2.122a6.01 6.01 0 00-.07.349 1.829 1.829 0 00-.032.269c0 .229.075.373.226.432.15.059.428.089.832.089.516 0 .892-.023 1.128-.068.236-.044.414-.113.532-.206.215-.18.473-.453.773-.822.301-.369.505-.641.613-.817h.392l-.693 2.374h-7.095l.09-.392a5.61 5.61 0 00.401-.035 2.07 2.07 0 00.395-.072.642.642 0 00.32-.215.86.86 0 00.153-.333l1.23-5.328a2.43 2.43 0 00.037-.188.875.875 0 00.01-.113c0-.15-.075-.267-.227-.352-.153-.084-.4-.15-.744-.201l.091-.392h6.703zM59.571 4.2c0 .505-.085 1.017-.255 1.536-.17.52-.41.98-.717 1.38-.366.47-.77.815-1.214 1.037a3.061 3.061 0 01-1.386.333c-.637 0-1.144-.148-1.52-.445-.376-.298-.564-.724-.564-1.279 0-.172.029-.356.086-.553.057-.197.129-.428.215-.693.071-.225.139-.448.201-.669a2.27 2.27 0 00.094-.625c0-.194-.043-.332-.129-.414-.086-.082-.24-.123-.462-.123-.114 0-.231.017-.351.053a5.42 5.42 0 00-.31.102l.119-.483c.29-.118.567-.22.832-.304.265-.084.516-.126.752-.126.427 0 .755.107.986.32.231.213.346.477.346.792 0 .233-.03.48-.094.741a9.057 9.057 0 01-.196.704c-.06.186-.124.4-.19.642a2.32 2.32 0 00-.1.577c0 .304.074.548.22.73.147.183.384.275.71.275.487 0 .91-.182 1.267-.546.358-.363.537-.853.537-1.469a1.827 1.827 0 00-.054-.44.824.824 0 00-.23-.263 3.82 3.82 0 01-.29-.258 1.655 1.655 0 01-.274-.368 1.126 1.126 0 01-.119-.55c0-.19.037-.344.11-.462.074-.119.163-.215.266-.29.086-.061.19-.11.31-.145.12-.036.231-.054.335-.054.333 0 .594.119.784.357.19.238.285.565.285.98zm3.174 4.292a3.34 3.34 0 01-1.13-.175 2.174 2.174 0 01-.803-.486 2.021 2.021 0 01-.468-.725 2.572 2.572 0 01-.156-.913c0-.423.08-.833.237-1.23.157-.398.392-.756.703-1.074a3.311 3.311 0 011.118-.742c.45-.19.948-.284 1.493-.284.64 0 1.129.102 1.463.306.335.204.503.51.503.918 0 .39-.145.726-.435 1.007-.29.282-.684.49-1.182.626a9.52 9.52 0 01-1.007.253c-.278.05-.617.096-1.018.14.007.157.029.334.064.531.036.197.09.365.162.505a.97.97 0 00.365.384c.157.095.358.142.601.142.423 0 .782-.081 1.077-.244.296-.163.578-.422.846-.776l.392.327a3.588 3.588 0 01-1.238 1.099 3.273 3.273 0 01-1.587.41zm1.214-4.254c0-.305-.056-.538-.167-.701a.529.529 0 00-.461-.245c-.276 0-.537.225-.782.675-.245.449-.402 1.017-.47 1.705.211-.025.42-.057.629-.097.207-.04.372-.086.494-.14.268-.118.462-.27.58-.456.118-.186.177-.433.177-.741zm9.416 3.255l-.119.483a23.4 23.4 0 01-.848.32 2.24 2.24 0 01-.736.11c-.426 0-.757-.107-.994-.32a1.024 1.024 0 01-.354-.792 2.957 2.957 0 01.102-.833l.386-1.428c.04-.154.07-.293.09-.417.019-.123.029-.224.029-.303 0-.172-.042-.306-.124-.403-.082-.097-.222-.145-.419-.145-.122 0-.295.048-.52.142-.226.095-.479.272-.758.53l-.886 3.877h-1.778l.762-3.303.084-.392c.034-.161.05-.295.05-.403 0-.204-.041-.344-.125-.421-.085-.077-.238-.116-.46-.116-.114 0-.232.018-.351.054a5.42 5.42 0 00-.31.102l.119-.483c.29-.119.567-.22.832-.304.265-.084.516-.126.752-.126.423 0 .739.083.948.25.21.166.349.4.417.7h.037a4.49 4.49 0 011.088-.743 2.757 2.757 0 011.195-.266c.397 0 .708.109.932.327.224.219.335.484.335.795 0 .083-.006.198-.018.347a2.614 2.614 0 01-.089.475l-.408 1.51a4.344 4.344 0 00-.097.43 2.281 2.281 0 00-.043.364c0 .208.046.35.137.425.091.075.252.112.48.112.108 0 .23-.018.366-.056.136-.038.235-.07.296-.1zm2.347.961c-.43 0-.774-.105-1.032-.314a.984.984 0 01-.386-.798 2.5 2.5 0 01.027-.376c.017-.118.046-.27.086-.456l.666-2.858H74.1l.129-.553h1.004l.387-1.627h1.74l-.376 1.627h1.455l-.128.553h-1.45l-.656 2.858a4.535 4.535 0 00-.107.644c0 .204.056.346.169.425.113.078.285.118.518.118a2.3 2.3 0 00.46-.065 3.7 3.7 0 00.41-.107l-.118.483a5.78 5.78 0 01-.948.328 3.622 3.622 0 01-.867.118z"/></svg><svg width="95" height="21" viewBox="-4 -4 95 21" id="text_review_event_87x13_yellow" x="208" y="103" xmlns="http://www.w3.org/2000/svg"><g fill="none" fill-rule="evenodd"><path fill="#000" d="M0 3h87v10H0z" opacity=".167" style="mix-blend-mode:multiply"/><path fill="#F6F87A" fill-rule="nonzero" d="M7.72 3.432c0-.418-.131-.73-.395-.935-.263-.205-.645-.308-1.145-.308h-.4l-.814 3.534h.568c.637 0 1.16-.2 1.57-.6.41-.401.616-.965.616-1.691zM4.282 8.676a2.912 2.912 0 00-.038.187.886.886 0 00-.014.135c0 .176.072.305.216.387.145.082.42.144.826.187l-.1.428H.679l.1-.428c.097-.004.243-.018.436-.044.193-.025.337-.053.43-.085a.719.719 0 00.35-.228.888.888 0 00.166-.358l1.342-5.812c.02-.082.033-.15.041-.205a.955.955 0 00.012-.123c0-.164-.083-.292-.25-.384-.165-.092-.436-.165-.81-.22l.099-.427h4.582c.953 0 1.669.134 2.147.404.479.27.718.678.718 1.224a2.13 2.13 0 01-.697 1.62c-.465.436-1.121.755-1.969.959a194.787 194.787 0 001.459 2.596c.094.167.216.358.366.57.15.213.31.35.478.408.082.027.195.05.34.07.144.02.248.031.31.035l-.105.428H7.187c-.367-.84-.68-1.513-.94-2.019a33.994 33.994 0 00-.976-1.749H4.85l-.57 2.444zm9.487 1.517c-.47 0-.88-.063-1.234-.19a2.371 2.371 0 01-.876-.53 2.205 2.205 0 01-.51-.791 2.814 2.814 0 01-.17-.996c0-.461.086-.909.258-1.342.172-.434.428-.824.768-1.172.32-.332.726-.602 1.219-.809a4.16 4.16 0 011.629-.31c.699 0 1.231.111 1.596.334.365.222.548.556.548 1.002 0 .425-.158.792-.475 1.098-.316.307-.746.534-1.289.683-.43.129-.795.22-1.098.275a15.84 15.84 0 01-1.11.153c.007.172.03.365.07.58.039.215.097.398.176.55.093.176.226.316.398.42.172.103.39.155.656.155.461 0 .853-.09 1.175-.267.322-.178.63-.46.923-.847l.428.358c-.352.5-.802.9-1.351 1.198a3.57 3.57 0 01-1.731.448zm1.324-4.64c0-.332-.06-.587-.182-.765a.577.577 0 00-.504-.267c-.3 0-.585.246-.852.736-.268.49-.439 1.11-.513 1.86a9.87 9.87 0 00.686-.105 2.54 2.54 0 00.539-.153c.293-.129.504-.295.632-.498.13-.203.194-.472.194-.808zm9.246-.041c0 .55-.093 1.11-.278 1.676a5.01 5.01 0 01-.783 1.505c-.398.512-.84.889-1.324 1.131a3.34 3.34 0 01-1.512.364c-.695 0-1.248-.163-1.658-.487-.41-.324-.615-.789-.615-1.394 0-.188.031-.389.094-.604.062-.215.14-.467.234-.756.078-.246.151-.489.22-.73.068-.24.102-.467.102-.682 0-.21-.047-.361-.14-.451-.094-.09-.262-.135-.504-.135-.125 0-.253.02-.384.059a5.26 5.26 0 00-.337.111l.129-.527c.316-.13.62-.24.908-.331.29-.092.563-.138.82-.138.465 0 .824.116 1.076.349.252.232.378.52.378.864 0 .254-.035.523-.103.809a9.88 9.88 0 01-.214.767c-.066.203-.135.437-.208.7a2.53 2.53 0 00-.108.63c0 .332.08.598.24.797.16.2.418.299.774.299.53 0 .992-.198 1.382-.595.391-.396.586-.93.586-1.602a1.993 1.993 0 00-.059-.48.899.899 0 00-.251-.288 4.167 4.167 0 01-.317-.281 1.805 1.805 0 01-.299-.402c-.085-.154-.128-.354-.128-.6 0-.207.04-.375.12-.504a1.09 1.09 0 01.29-.316c.094-.067.206-.12.337-.159a1.28 1.28 0 01.366-.058c.363 0 .648.13.855.39.207.26.31.616.31 1.069zm4.441 3.65l-.129.527a26.42 26.42 0 01-.925.35c-.23.08-.498.12-.803.12-.469 0-.833-.115-1.093-.344a1.108 1.108 0 01-.39-.87c0-.136.01-.276.03-.419.02-.142.05-.303.093-.483l.481-1.711c.043-.164.08-.32.108-.466.03-.146.044-.28.044-.401 0-.219-.045-.371-.134-.457-.09-.086-.262-.13-.516-.13-.125 0-.253.02-.384.06a5.26 5.26 0 00-.337.11l.13-.527c.316-.128.618-.239.907-.33.29-.092.563-.138.82-.138.465 0 .824.112 1.076.337.252.224.378.516.378.876 0 .074-.009.205-.027.392-.017.188-.05.36-.096.516l-.48 1.705c-.04.137-.075.293-.106.469a2.489 2.489 0 00-.047.398c0 .227.05.381.152.463.102.082.278.123.528.123.117 0 .25-.02.398-.061.148-.042.256-.078.322-.109zm.123-7.154c0 .297-.112.55-.337.759a1.149 1.149 0 01-.811.313 1.16 1.16 0 01-.815-.313.995.995 0 01-.34-.76c0-.296.114-.55.34-.76a1.15 1.15 0 01.815-.317c.316 0 .587.105.811.316.225.211.337.465.337.762zm3.287 8.185c-.468 0-.88-.063-1.233-.19a2.371 2.371 0 01-.876-.53 2.205 2.205 0 01-.51-.791 2.814 2.814 0 01-.17-.996c0-.461.086-.909.258-1.342.172-.434.428-.824.768-1.172.32-.332.726-.602 1.219-.809a4.16 4.16 0 011.628-.31c.7 0 1.232.111 1.597.334.365.222.548.556.548 1.002 0 .425-.158.792-.475 1.098-.316.307-.746.534-1.289.683-.43.129-.796.22-1.098.275a15.84 15.84 0 01-1.11.153c.007.172.03.365.07.58.039.215.097.398.175.55.094.176.227.316.399.42.172.103.39.155.656.155.461 0 .853-.09 1.175-.267.322-.178.63-.46.923-.847l.427.358c-.351.5-.801.9-1.35 1.198a3.57 3.57 0 01-1.732.448zm1.325-4.64c0-.332-.06-.587-.182-.765a.577.577 0 00-.504-.267c-.3 0-.585.246-.852.736-.268.49-.439 1.11-.513 1.86.23-.027.459-.062.685-.105.227-.043.407-.094.54-.153.292-.129.503-.295.632-.498.13-.203.194-.472.194-.808zm13.101-.041c0 .57-.094 1.135-.281 1.696a4.925 4.925 0 01-.785 1.485 4.237 4.237 0 01-1.242 1.081c-.48.276-1.03.414-1.647.414-.57 0-1.032-.112-1.386-.334a1.68 1.68 0 01-.723-.961c-.418.457-.828.784-1.23.981a2.967 2.967 0 01-1.325.296c-.453 0-.81-.14-1.072-.422-.262-.281-.393-.635-.393-1.06 0-.157.016-.304.047-.443s.068-.29.111-.454l.399-1.389a9.34 9.34 0 00.097-.448c.037-.19.055-.329.055-.419 0-.207-.044-.356-.132-.448-.087-.092-.258-.138-.512-.138-.125 0-.253.02-.384.059a5.26 5.26 0 00-.337.111l.129-.527c.316-.13.619-.24.908-.331.29-.092.563-.138.82-.138.465 0 .824.116 1.076.349.252.232.378.526.378.882 0 .128-.02.313-.059.553a4.4 4.4 0 01-.129.583l-.34 1.137a3.098 3.098 0 00-.102.454 2.81 2.81 0 00-.044.39c0 .222.061.397.184.524s.267.19.431.19c.05 0 .125-.006.223-.02.097-.014.199-.046.304-.097.11-.05.243-.131.402-.243.158-.111.311-.25.46-.419 0-.07.008-.173.026-.307.018-.135.044-.296.08-.484l.773-3.392 1.869-.082.07.082-.773 3.357a3.709 3.709 0 00-.05.296c-.022.15-.032.306-.032.466 0 .336.08.584.243.744.162.16.401.24.717.24.532 0 .99-.198 1.374-.595.385-.396.578-.926.578-1.59a1.993 1.993 0 00-.059-.48.835.835 0 00-.24-.276 4.791 4.791 0 01-.328-.287 1.714 1.714 0 01-.3-.413 1.257 1.257 0 01-.128-.595c0-.195.038-.36.114-.492a1.017 1.017 0 01.636-.487c.137-.039.258-.058.363-.058.375 0 .663.133.864.398.202.266.302.62.302 1.06zm12.217-3.826l-.486 2.12H57.9a2.448 2.448 0 00-.395-1.022c-.21-.31-.429-.491-.66-.542a2.358 2.358 0 00-.474-.05 18.824 18.824 0 00-.516-.008h-1.148l-.75 3.252h.797c.293 0 .522-.033.688-.097a1.72 1.72 0 00.466-.273c.11-.09.238-.25.384-.483.146-.232.251-.43.313-.595h.446l-.803 3.469h-.445V7.24a2.76 2.76 0 00-.056-.542c-.037-.185-.081-.315-.132-.39a.722.722 0 00-.404-.295 2.06 2.06 0 00-.574-.074h-.797l-.533 2.315a6.557 6.557 0 00-.077.38 1.995 1.995 0 00-.035.294c0 .25.082.407.246.471.164.065.467.097.909.097.562 0 .972-.024 1.23-.073.258-.049.451-.124.58-.226.235-.195.516-.494.844-.896.328-.403.55-.7.668-.89h.428L57.344 10h-7.74l.1-.428c.097-.004.242-.016.436-.038.193-.021.337-.048.43-.079a.7.7 0 00.349-.234.939.939 0 00.167-.364l1.342-5.812c.02-.082.033-.15.04-.205a.955.955 0 00.012-.123c0-.164-.083-.292-.249-.384-.166-.092-.436-.165-.811-.22l.1-.427h7.312zm6.832 3.826c0 .55-.093 1.11-.278 1.676a5.01 5.01 0 01-.782 1.505c-.399.512-.84.889-1.325 1.131a3.34 3.34 0 01-1.511.364c-.696 0-1.248-.163-1.659-.487-.41-.324-.615-.789-.615-1.394 0-.188.031-.389.094-.604.062-.215.14-.467.234-.756.078-.246.152-.489.22-.73.068-.24.103-.467.103-.682 0-.21-.047-.361-.141-.451-.094-.09-.262-.135-.504-.135-.125 0-.253.02-.384.059a5.26 5.26 0 00-.337.111l.13-.527c.316-.13.618-.24.907-.331.29-.092.563-.138.82-.138.466 0 .824.116 1.076.349.252.232.378.52.378.864 0 .254-.034.523-.103.809a9.88 9.88 0 01-.214.767c-.066.203-.135.437-.208.7a2.53 2.53 0 00-.108.63c0 .332.08.598.24.797.16.2.418.299.774.299.531 0 .992-.198 1.383-.595.39-.396.585-.93.585-1.602a1.993 1.993 0 00-.059-.48.899.899 0 00-.251-.288 4.167 4.167 0 01-.317-.281 1.805 1.805 0 01-.298-.402c-.086-.154-.13-.354-.13-.6 0-.207.04-.375.12-.504.081-.129.178-.234.29-.316a1.15 1.15 0 01.338-.159 1.28 1.28 0 01.366-.058c.363 0 .648.13.856.39.207.26.31.616.31 1.069zm3.463 4.681c-.469 0-.88-.063-1.233-.19a2.371 2.371 0 01-.876-.53 2.205 2.205 0 01-.51-.791 2.814 2.814 0 01-.17-.996c0-.461.086-.909.258-1.342a3.52 3.52 0 01.767-1.172c.32-.332.727-.602 1.219-.809a4.16 4.16 0 011.629-.31c.7 0 1.231.111 1.597.334.365.222.547.556.547 1.002 0 .425-.158.792-.474 1.098-.317.307-.746.534-1.29.683-.429.129-.795.22-1.098.275a15.84 15.84 0 01-1.11.153c.008.172.031.365.07.58.04.215.098.398.176.55.094.176.226.316.398.42.172.103.391.155.657.155.46 0 .852-.09 1.174-.267.323-.178.63-.46.923-.847l.428.358c-.352.5-.802.9-1.35 1.198a3.57 3.57 0 01-1.732.448zm1.324-4.64c0-.332-.06-.587-.181-.765a.577.577 0 00-.504-.267c-.301 0-.585.246-.853.736-.267.49-.438 1.11-.513 1.86.23-.027.46-.062.686-.105.227-.043.406-.094.539-.153.293-.129.504-.295.633-.498s.193-.472.193-.808zm10.272 3.55l-.13.528c-.386.152-.695.268-.925.348-.23.08-.498.12-.803.12-.465 0-.826-.116-1.084-.348a1.117 1.117 0 01-.386-.864 3.226 3.226 0 01.111-.908l.422-1.56a5.08 5.08 0 00.096-.453 2.14 2.14 0 00.033-.331c0-.188-.045-.334-.135-.44-.09-.105-.242-.158-.457-.158-.133 0-.322.052-.569.155-.246.104-.521.296-.826.578L75.104 10h-1.94l.832-3.604c.024-.109.054-.251.09-.427a2.16 2.16 0 00.057-.44c0-.222-.046-.376-.138-.46-.092-.084-.259-.126-.501-.126-.125 0-.253.02-.384.059a5.26 5.26 0 00-.337.111l.13-.527c.316-.129.618-.24.907-.331.29-.092.563-.138.82-.138.462 0 .806.091 1.035.273.228.181.38.436.454.764h.04a4.882 4.882 0 011.187-.811c.409-.194.843-.29 1.304-.29.434 0 .773.119 1.017.357.244.238.366.527.366.867 0 .09-.007.216-.02.378a2.852 2.852 0 01-.097.519L79.48 7.82a4.665 4.665 0 00-.105.47 2.489 2.489 0 00-.047.398c0 .226.05.38.15.462.1.082.274.123.524.123.117 0 .25-.02.398-.061a2.27 2.27 0 00.323-.108zm2.56 1.05c-.469 0-.844-.115-1.125-.343a1.074 1.074 0 01-.422-.87c0-.145.01-.282.03-.41.02-.13.05-.296.093-.499l.727-3.117h-1.072l.14-.603h1.096l.422-1.776h1.898l-.41 1.776h1.588l-.14.603h-1.583l-.714 3.117a4.947 4.947 0 00-.118.703c0 .223.062.377.185.463.123.086.311.13.565.13.121 0 .288-.024.501-.071a4.16 4.16 0 00.449-.117l-.13.527a6.305 6.305 0 01-1.034.357 3.952 3.952 0 01-.946.13z"/></g></svg><svg width="42" height="21" viewBox="-4 -4 42 21" id="text_set_34x13_white" y="254" xmlns="http://www.w3.org/2000/svg"><path d="M5.98 5.255c-2.18-.56-2.72-.83-2.72-1.662v-.035c0-.614.559-1.102 1.622-1.102 1.062 0 2.16.469 3.278 1.246L9.6 1.607C8.322.577 6.755 0 4.917 0 2.342 0 .504 1.517.504 3.81v.037c0 2.509 1.64 3.213 4.18 3.863 2.107.542 2.539.903 2.539 1.607v.036c0 .74-.684 1.192-1.82 1.192-1.44 0-2.63-.596-3.764-1.534l-1.64 1.967A8.014 8.014 0 005.35 13c2.72 0 4.63-1.408 4.63-3.918v-.035c0-2.204-1.441-3.124-4-3.792m8.776 2.256h5.945V5.037h-5.945V2.474h6.754V0H12v12.639h9.601v-2.474h-6.845zM23 0v2.564h3.836v10.075h2.775V2.564h3.836V0z" fill="#FFF" fill-rule="evenodd"/></svg><svg width="27" height="19" viewBox="-4 -4 27 19" id="text_shopping_19x11_white" x="74" y="254" xmlns="http://www.w3.org/2000/svg"><path fill="#FFF" d="M6.809 7.777h2.563v1.166H0V7.777h2.563V5.896h1.375v1.881h1.496V5.896h1.375v1.881zm-2.09-4.048c-.059.125-.181.258-.369.401-.187.144-.42.31-.698.501-.3.198-.649.416-1.045.654-.396.239-.858.508-1.386.809l-.682-1.1c.403-.227.81-.464 1.221-.71.41-.245.777-.478 1.1-.698a3.37 3.37 0 00.544-.44 1.883 1.883 0 00.523-1.001c.037-.19.055-.407.055-.649V.594H5.39v.902c0 .242.018.458.055.649.037.19.097.368.181.533.085.166.198.321.342.468.143.147.324.293.544.44.323.22.69.453 1.1.699.41.245.818.482 1.221.709l-.671 1.078c-.528-.3-.99-.57-1.386-.809a30.747 30.747 0 01-1.045-.654c-.279-.19-.5-.354-.665-.49a1.201 1.201 0 01-.336-.39h-.011zm5.61.704h.979V1.716h-.913V.594h5.687v1.122h-.88v2.618c.19-.015.38-.027.567-.038.187-.012.383-.024.588-.039l.088 1.089a52.072 52.072 0 01-2.998.165 119.339 119.339 0 01-3.118.044V4.433zm5.016 6.105c-.455 0-.876-.044-1.265-.132a3.506 3.506 0 01-1.012-.385 2.08 2.08 0 01-.676-.616 1.43 1.43 0 01-.248-.825v-.484c0-.308.082-.583.248-.825a2.08 2.08 0 01.676-.616 3.506 3.506 0 011.012-.385c.389-.088.81-.132 1.265-.132.455 0 .876.044 1.265.132.389.088.726.216 1.012.385.286.169.511.374.676.616.166.242.248.517.248.825v.484c0 .308-.082.583-.248.825a2.08 2.08 0 01-.676.616 3.506 3.506 0 01-1.012.385c-.389.088-.81.132-1.265.132zm3.168-4.444h-1.386V0h1.386v6.094zm-3.168 1.177a3.06 3.06 0 00-.693.077c-.22.051-.414.12-.583.204a1.415 1.415 0 00-.407.291.51.51 0 00-.154.352v.286a.51.51 0 00.154.352c.103.11.238.207.407.291.169.085.363.153.583.204.22.051.451.077.693.077.242 0 .473-.026.693-.077.22-.051.414-.12.583-.204.169-.084.304-.181.407-.291a.51.51 0 00.154-.352v-.286a.51.51 0 00-.154-.352 1.415 1.415 0 00-.407-.291 2.647 2.647 0 00-.583-.204 3.041 3.041 0 00-.693-.077zM13.86 4.389V1.716h-1.21v2.706l1.21-.033z"/></svg><svg width="77" height="33" viewBox="-4 -4 77 33" id="text_shopping_live_69x25" y="201" xmlns="http://www.w3.org/2000/svg"><defs><path id="bka" d="M0 23.447h68v-23H0z"/><path id="bkc" d="M34.818.134L1.473 2.122a.904.904 0 00-.861.895v14.88c0 .474.377.866.86.896l4.03.24v4.102c0 .147.173.231.293.144l5.387-3.908 23.636 1.409a.91.91 0 00.972-.896V1.03a.907.907 0 00-.915-.897l-.057.001"/><path id="bke" d="M0 23.447h68v-23H0z"/></defs><g fill="none" fill-rule="evenodd"><g transform="translate(0 .553)"><path fill="#1E1E1E" d="M11.463 11.578H9.257a.182.182 0 00-.185.18v2.92H7.02v-2.92c0-.1-.083-.18-.184-.18H4.629a.182.182 0 00-.184.18v2.92H.648a.182.182 0 00-.185.18v1.831c0 .1.083.18.185.18h14.796c.102 0 .184-.08.184-.18v-1.831c0-.1-.082-.18-.184-.18h-3.797v-2.92c0-.1-.082-.18-.184-.18"/><path fill="#1E1E1E" d="M8.046 7.971l5.186 3.93c.08.062.198.047.26-.034l1.229-1.61a.177.177 0 00-.035-.25L9.905 6.385a1.302 1.302 0 01-.52-1.037V3.6c0-.1-.082-.18-.185-.18H6.892a.182.182 0 00-.185.18v1.747a1.3 1.3 0 01-.52 1.037l-4.78 3.622a.176.176 0 00-.035.25l1.229 1.61c.061.08.179.096.26.035l5.185-3.93zm18.969-5.032v8.317c0 .099.083.18.185.18h2.224a.182.182 0 00.184-.18V2.939c0-.1-.082-.18-.184-.18H27.2a.182.182 0 00-.185.18"/><mask id="bkb" fill="#fff"><use xlink:href="#bka"/></mask><path fill="#1E1E1E" d="M19.662 8.905h2.228V5.238h-2.228v3.667zm5.844 0H24.27V5.238h1.235c.102 0 .184-.08.184-.18V3.296c0-.1-.082-.18-.184-.18h-9.522a.182.182 0 00-.185.18v1.762c0 .1.083.18.185.18h1.287v3.667h-1.287a.183.183 0 00-.185.18v1.763c0 .1.083.18.185.18h9.522c.102 0 .184-.08.184-.18V9.086c0-.1-.082-.18-.184-.18zm-1.138 9.064c-1.146 0-2.077-.87-2.077-1.939 0-1.068.931-1.938 2.077-1.938 1.144 0 2.076.87 2.076 1.938 0 1.07-.932 1.939-2.076 1.939m0-6.185c-2.515 0-4.561 1.905-4.561 4.246 0 2.342 2.046 4.246 4.56 4.246 2.515 0 4.56-1.904 4.56-4.246 0-2.34-2.045-4.246-4.56-4.246" mask="url(#bkb)"/></g><g transform="translate(32.6 .553)"><mask id="bkd" fill="#fff"><use xlink:href="#bkc"/></mask><path fill="#F52308" d="M34.818.134L1.473 2.122a.904.904 0 00-.861.895v14.88c0 .474.377.866.86.896l4.03.24v4.102c0 .147.173.231.293.144l5.387-3.908 23.636 1.409a.91.91 0 00.972-.896V1.03a.907.907 0 00-.915-.897l-.057.001" mask="url(#bkd)"/></g><g transform="translate(0 .553)"><path fill="#FFF" d="M40.176 5.562h-2.073v9.558h5.799v-2.013h-3.726z"/><mask id="bkf" fill="#fff"><use xlink:href="#bke"/></mask><path fill="#FFF" d="M45.634 15.121h2.073V5.562h-2.073zm18.541-7.547V5.561h-6.099v9.56h6.099v-2.014h-4.026v-1.826h3.367V9.268h-3.367V7.574zm-9.39-2.012L52.991 12.7l-1.796-7.138H49.01l2.73 9.558h2.501l2.73-9.558z" mask="url(#bkf)"/></g></g></svg><svg width="59" height="19" viewBox="-4 -4 59 19" id="text_silver_51x11_silver" x="145" y="105" xmlns="http://www.w3.org/2000/svg"><g fill="none" fill-rule="evenodd"><path fill="#FFF" d="M-303-100H72v589h-375z"/><path fill="#E8ECEF" fill-rule="nonzero" d="M-303-98H72v833h-375z"/><path fill="#FFF" fill-rule="nonzero" d="M-303-100H72V71h-375z"/><path fill="#83868B" d="M4.662 10.14a6.49 6.49 0 01-2.198-.385 5.817 5.817 0 01-1.96-1.183l1.274-1.526c.448.364.908.653 1.379.868.471.215.987.322 1.547.322.448 0 .796-.082 1.043-.245a.771.771 0 00.371-.679v-.028a.85.85 0 00-.077-.371.778.778 0 00-.294-.301 3.079 3.079 0 00-.602-.28c-.257-.093-.59-.191-1.001-.294A12.201 12.201 0 012.8 5.632a3.787 3.787 0 01-1.022-.553 2.237 2.237 0 01-.651-.819C.973 3.933.896 3.527.896 3.042v-.028c0-.448.084-.852.252-1.211.168-.36.404-.67.707-.931A3.183 3.183 0 012.94.27c.42-.14.882-.21 1.386-.21a5.86 5.86 0 011.981.322 5.743 5.743 0 011.659.924L6.846 2.93a7.1 7.1 0 00-1.288-.707 3.292 3.292 0 00-1.26-.259c-.42 0-.735.082-.945.245-.21.163-.315.366-.315.609v.028c0 .159.03.296.091.413.06.117.17.222.329.315s.376.182.651.266c.275.084.623.182 1.043.294.495.13.936.278 1.323.441.387.163.714.36.98.588.266.229.467.497.602.805.135.308.203.677.203 1.106v.028c0 .485-.089.917-.266 1.295a2.66 2.66 0 01-.742.952 3.353 3.353 0 01-1.134.588 4.924 4.924 0 01-1.456.203zM9.934.2h2.156V10H9.934V.2zm4.306 0h2.156v7.84h4.886V10H14.24V.2zm7.526 0h2.38l2.562 6.902L29.27.2h2.324l-3.962 9.87h-1.904L21.766.2zm11.04 0h7.392v1.918h-5.25v1.988h4.62v1.918h-4.62v2.058h5.32V10h-7.462V.2zm13.42 4.76c.532 0 .94-.126 1.225-.378.285-.252.427-.588.427-1.008v-.028c0-.467-.15-.817-.448-1.05-.299-.233-.714-.35-1.246-.35h-2.142V4.96h2.184zM41.886.2h4.48c1.241 0 2.193.331 2.856.994.56.56.84 1.307.84 2.24v.028c0 .793-.194 1.44-.581 1.939-.387.5-.894.866-1.519 1.099l2.394 3.5h-2.52l-2.1-3.136h-1.694V10h-2.156V.2z"/></g></svg><svg width="64" height="20" viewBox="-4 -4 64 20" id="text_silver_56x12_silver" x="153" y="201" xmlns="http://www.w3.org/2000/svg"><path fill="#83868B" d="M5.995 11.15c-.8 0-1.585-.137-2.355-.412a6.233 6.233 0 01-2.1-1.268l1.365-1.635c.48.39.972.7 1.478.93a3.95 3.95 0 001.657.345c.48 0 .852-.087 1.117-.262a.826.826 0 00.398-.728v-.03a.911.911 0 00-.082-.397.834.834 0 00-.316-.323c-.155-.1-.37-.2-.644-.3-.276-.1-.633-.205-1.073-.315-.53-.13-1.01-.275-1.44-.435a4.057 4.057 0 01-1.095-.593 2.396 2.396 0 01-.697-.877c-.166-.35-.248-.785-.248-1.305v-.03c0-.48.09-.912.27-1.298.18-.385.432-.717.757-.997A3.41 3.41 0 014.15.575C4.6.425 5.095.35 5.635.35c.77 0 1.477.115 2.123.345a6.15 6.15 0 011.777.99l-1.2 1.74c-.47-.32-.93-.572-1.38-.757-.45-.186-.9-.278-1.35-.278-.45 0-.787.087-1.013.262-.225.176-.337.393-.337.653v.03c0 .17.032.317.098.442a.886.886 0 00.352.338c.17.1.402.195.697.285.296.09.668.195 1.118.315.53.14 1.002.297 1.418.473.415.175.764.384 1.05.63.285.245.5.532.645.862.145.33.217.725.217 1.185v.03c0 .52-.095.982-.285 1.388a2.85 2.85 0 01-.795 1.02 3.61 3.61 0 01-1.215.63c-.47.145-.99.217-1.56.217zM11.777.5h2.31V11h-2.31V.5zm4.748 0h2.31v8.4h5.235V11h-7.545V.5zm8.198 0h2.55l2.744 7.395L32.764.5h2.49l-4.245 10.575h-2.04L24.723.5zm11.962 0h7.92v2.055H38.98v2.13h4.95V6.74h-4.95v2.205h5.7V11h-7.995V.5zm14.512 5.1c.57 0 1.008-.135 1.313-.405.305-.27.458-.63.458-1.08v-.03c0-.5-.16-.875-.48-1.125-.32-.25-.765-.375-1.335-.375h-2.295V5.6h2.34zM46.547.5h4.8c1.33 0 2.35.355 3.06 1.065.6.6.9 1.4.9 2.4v.03c0 .85-.207 1.542-.622 2.077a3.607 3.607 0 01-1.628 1.178L55.623 11h-2.7l-2.25-3.36h-1.816V11h-2.31V.5z" fill-rule="evenodd"/></svg><svg width="15" height="20" viewBox="-4 -4 15 20" id="text_slash_7x12_black" x="160" y="275" xmlns="http://www.w3.org/2000/svg"><path fill-rule="evenodd" d="M5.9 0H7L1.1 12H0z" opacity=".6"/></svg><svg width="15" height="20" viewBox="-4 -4 15 20" id="text_slash_7x12_white" x="175" y="275" xmlns="http://www.w3.org/2000/svg"><path fill="#FFF" fill-rule="evenodd" d="M5.9 0H7L1.1 12H0z" opacity=".6"/></svg><svg width="40" height="31" viewBox="-4 -4 40 31" id="text_soldout_32x23_white" x="168" y="55" xmlns="http://www.w3.org/2000/svg"><path fill="#FFF" fill-rule="evenodd" d="M0 6.602h1.548c.1.827.923 1.368 2.013 1.368 1.078 0 1.827-.535 1.827-1.281 0-.647-.458-1.02-1.585-1.288l-1.159-.274C.997 4.747.217 3.951.217 2.669.217 1.076 1.597 0 3.542 0c1.97 0 3.27 1.07 3.308 2.65H5.326c-.074-.84-.774-1.343-1.796-1.343-1.01 0-1.69.497-1.69 1.244 0 .597.451.946 1.548 1.207l1.028.237c1.814.416 2.582 1.17 2.582 2.507 0 1.705-1.362 2.775-3.524 2.775C1.418 9.277.068 8.257 0 6.602zM12.139 0c2.6 0 4.236 1.786 4.236 4.642 0 2.856-1.635 4.635-4.236 4.635-2.608 0-4.243-1.78-4.243-4.635C7.896 1.786 9.531 0 12.14 0zm0 1.369c-1.598 0-2.608 1.27-2.608 3.273 0 1.997 1.01 3.266 2.608 3.266 1.591 0 2.607-1.27 2.607-3.266 0-2.004-1.016-3.273-2.607-3.273zm11.16 6.402v1.357h-5.655V.149h1.598v7.622H23.3zM24.444.15h3.307C30.421.15 32 1.773 32 4.617c0 2.843-1.573 4.51-4.249 4.51h-3.307V.15zm1.598 1.357V7.77h1.542c1.796 0 2.787-1.101 2.787-3.148 0-2.01-1.003-3.117-2.787-3.117h-1.542zM7.76 13.723c2.601 0 4.236 1.786 4.236 4.642C11.996 21.22 10.361 23 7.76 23c-2.607 0-4.242-1.78-4.242-4.635 0-2.856 1.635-4.642 4.242-4.642zm0 1.369c-1.598 0-2.607 1.27-2.607 3.273 0 1.997 1.01 3.266 2.607 3.266 1.592 0 2.607-1.27 2.607-3.266 0-2.004-1.015-3.273-2.607-3.273zm7.104-1.22v5.669c0 1.225.749 2.059 2.074 2.059 1.326 0 2.081-.834 2.081-2.06v-5.668h1.592v5.812c0 1.96-1.406 3.316-3.673 3.316-2.26 0-3.672-1.356-3.672-3.316v-5.812h1.598zm11.147 8.979h-1.598v-7.622h-2.712v-1.357h7.023v1.357H26.01v7.622z"/></svg><svg width="49" height="14" viewBox="-4 -4 49 14" id="text_soldout_41x6_white" x="145" y="166" xmlns="http://www.w3.org/2000/svg"><path fill="#FFF" fill-rule="evenodd" d="M0 4.323h.924c.08.543.637.888 1.441.888.75 0 1.3-.369 1.3-.877 0-.436-.35-.698-1.146-.876l-.774-.178C.658 3.038.162 2.538.162 1.697.162.678 1.037 0 2.348 0c1.22 0 2.111.678 2.165 1.642h-.907c-.088-.528-.57-.857-1.27-.857-.737 0-1.228.337-1.228.853 0 .408.316.642 1.099.817l.662.154c1.232.274 1.74.75 1.74 1.61C4.61 5.314 3.72 6 2.294 6 .962 6 .067 5.346 0 4.323zM8.394 0c1.732 0 2.798 1.154 2.798 2.998C11.192 4.838 10.134 6 8.394 6 6.649 6 5.588 4.842 5.588 2.998 5.588 1.15 6.67 0 8.394 0zm0 .829c-1.132 0-1.853.84-1.853 2.169 0 1.32.7 2.173 1.853 2.173 1.14 0 1.845-.852 1.845-2.173 0-1.328-.704-2.17-1.845-2.17zm7.807 4.215v.817h-3.747V.14h.932v4.905h2.815zM17.379.14h2.17c1.782 0 2.827 1.043 2.827 2.843 0 1.828-1.037 2.88-2.827 2.88h-2.17V.138zm.933.809v4.104h1.133c1.257 0 1.981-.745 1.981-2.058 0-1.293-.737-2.046-1.981-2.046h-1.133zM26.194 0c1.732 0 2.798 1.154 2.798 2.998 0 1.84-1.058 3.002-2.798 3.002-1.745 0-2.806-1.158-2.806-3.002C23.388 1.15 24.47 0 26.194 0zm0 .829c-1.133 0-1.853.84-1.853 2.169 0 1.32.7 2.173 1.853 2.173 1.14 0 1.844-.852 1.844-2.173 0-1.328-.703-2.17-1.844-2.17zm5.009-.69V3.81c0 .801.545 1.356 1.499 1.356.957 0 1.503-.555 1.503-1.356V.139h.933V3.89c0 1.242-.929 2.11-2.436 2.11-1.508 0-2.432-.868-2.432-2.11V.14h.933zm7.91 5.722h-.932V.948h-1.89v-.81H41v.81h-1.886V5.86z"/></svg><svg width="58" height="15" viewBox="-4 -4 58 15" id="text_soldout_50x7_white" x="208" y="168" xmlns="http://www.w3.org/2000/svg"><path d="M0 5.637l1.103-.932c.522.571 1.103.875 1.863.875.59 0 1.017-.276 1.017-.694 0-.323-.237-.513-1.131-.874-.865-.352-1.635-.818-1.635-1.797C1.217.855 2.434.02 3.86.02c1.14 0 1.93.39 2.49.99L5.343 2.014c-.504-.465-.951-.713-1.597-.713-.618 0-.97.342-.97.675 0 .352.266.504 1.169.875.913.37 1.597.827 1.597 1.796 0 1.398-1.245 2.216-2.643 2.216C1.616 6.864.627 6.445 0 5.637m12.155-2.595c0-.989-.6-1.692-1.692-1.692-1.398 0-2.31 1.34-2.31 2.491 0 .988.599 1.692 1.692 1.692 1.397 0 2.31-1.341 2.31-2.491m-5.523.894A3.974 3.974 0 0110.634 0c1.834 0 3.042 1.274 3.042 2.947a3.974 3.974 0 01-4.002 3.936c-1.835 0-3.042-1.274-3.042-2.947M15.8.114h1.464l-1.426 5.323h3.317l-.361 1.331h-4.781zm6.802 5.333c.884 0 1.692-.276 2.225-.808a2.33 2.33 0 00.665-1.664c0-.456-.143-.808-.39-1.055-.294-.295-.779-.485-1.53-.485h-.713l-1.084 4.012h.827zM21.747.114h1.938c1.293 0 2.102.352 2.605.855.495.495.723 1.141.723 1.95 0 .997-.38 1.91-1.093 2.623-.799.8-1.949 1.226-3.489 1.226H19.96L21.747.114zm11.64 2.928c0-.989-.6-1.692-1.692-1.692-1.398 0-2.31 1.34-2.31 2.491 0 .988.599 1.692 1.692 1.692 1.397 0 2.31-1.341 2.31-2.491m-5.523.894A3.974 3.974 0 0131.866 0c1.834 0 3.042 1.274 3.042 2.947a3.974 3.974 0 01-4.002 3.936c-1.835 0-3.042-1.274-3.042-2.947m8.036.694c0-.333.058-.694.163-1.065l.92-3.451h1.466l-.961 3.584a2.474 2.474 0 00-.104.723c0 .656.409 1.103 1.16 1.103.437 0 .798-.143 1.084-.42.285-.284.503-.693.646-1.235L41.28.114h1.464L41.68 4.078c-.228.856-.561 1.512-1.027 1.978-.542.542-1.274.817-2.262.817-1.54 0-2.491-.827-2.491-2.243m9.426-3.166h-2.025l.361-1.35h5.514l-.36 1.35H46.79l-1.426 5.305H43.9z" fill="#FFF" fill-rule="evenodd"/></svg><svg width="58" height="15" viewBox="-4 -4 58 15" id="text_soldout_bold_50x7_white" x="266" y="168" xmlns="http://www.w3.org/2000/svg"><path fill="#FFF" fill-rule="evenodd" d="M44.192.116L43.94 1.49h2.134l-.99 5.395h1.542l.99-5.395h2.133L50 .116h-5.808zm-2.627 3.877c-.197 1.073-.87 1.625-1.81 1.625-.941 0-1.408-.571-1.206-1.673l.703-3.829H37.71L37 3.984c-.365 1.992.6 3.006 2.483 3.006s3.258-1.005 3.634-3.055l.701-3.819h-1.543l-.71 3.877zM34.911 3.5l-.003.02c-.213 1.16-1.248 2.107-2.49 2.107-1.24 0-1.945-.967-1.732-2.127l.003-.02c.214-1.16 1.249-2.107 2.49-2.107s1.946.967 1.732 2.127zM33.451 0c-2.164 0-4.024 1.576-4.377 3.5l-.004.02C28.718 5.442 29.984 7 32.147 7s4.024-1.576 4.376-3.5l.004-.02C36.88 1.558 35.614 0 33.451 0zm-8.658 3.5l-.004.02c-.22 1.198-1.221 2.02-2.483 2.02h-1.192l.749-4.08h1.192c1.261 0 1.958.841 1.738 2.04zM23.3.116h-2.733l-1.241 6.768h2.734c2.202 0 3.996-1.48 4.345-3.384l.004-.02C26.758 1.577 25.503.117 23.3.117zm-6.691 0h-1.542l-1.242 6.768h5.037l.248-1.353h-3.494l.993-5.415zM12.159 3.5l-.004.02c-.212 1.16-1.247 2.107-2.49 2.107-1.241 0-1.944-.967-1.732-2.127l.004-.02c.212-1.16 1.247-2.107 2.489-2.107 1.242 0 1.946.967 1.733 2.127zM10.7 0C8.534 0 6.673 1.576 6.32 3.5l-.004.02C5.964 5.442 7.231 7 9.394 7s4.024-1.576 4.377-3.5l.003-.02C14.128 1.558 12.86 0 10.698 0zM2.541 1.924c.06-.329.418-.59 1.009-.59.59 0 1.155.252 1.7.668L6.258.88C5.648.33 4.833.02 3.812.02 2.381.02 1.21.831.985 2.06l-.004.019c-.247 1.344.595 1.72 1.944 2.07 1.118.29 1.323.483 1.254.86l-.004.019c-.073.396-.498.638-1.128.638-.802 0-1.404-.32-1.943-.822L0 5.898c.708.725 1.714 1.083 2.775 1.083 1.512 0 2.712-.754 2.959-2.099l.003-.019c.216-1.18-.494-1.673-1.85-2.03-1.157-.3-1.431-.445-1.35-.89l.005-.019z"/></svg><svg width="198" height="27" viewBox="-4 -4 198 27" id="text_start_free_for_a_month_190x19" y="28" xmlns="http://www.w3.org/2000/svg"><defs><circle id="bta" cx="9.5" cy="9.5" r="9.5"/></defs><g fill="none" fill-rule="evenodd"><path fill="#142251" fill-rule="nonzero" d="M10.222 4.18V1.672h-3.42V.418H3.515v1.254H.209V4.18h10.013zm4.636 9.044V8.55h1.957V5.358h-1.957V1.14h-3.249v12.084h3.249zm-9.652-1.178c.646 0 1.241-.089 1.786-.266a4.151 4.151 0 001.406-.76c.405-.33.719-.725.94-1.188.222-.462.333-.972.333-1.529 0-.557-.11-1.067-.332-1.53a3.426 3.426 0 00-.941-1.187 4.294 4.294 0 00-1.406-.77 5.579 5.579 0 00-1.786-.275c-.646 0-1.245.092-1.796.275-.55.184-1.022.44-1.415.77s-.7.725-.922 1.188a3.499 3.499 0 00-.332 1.529c0 .557.11 1.067.332 1.53.222.462.53.858.922 1.187.393.33.865.583 1.415.76.551.177 1.15.266 1.796.266zm0-2.451c-.43 0-.776-.123-1.036-.37-.26-.248-.389-.555-.389-.922s.13-.684.39-.95c.26-.266.604-.399 1.035-.399.418 0 .763.133 1.035.399.273.266.409.583.409.95s-.136.674-.409.921c-.272.248-.617.371-1.035.371zm10.013 7.961v-2.964H4.351V12.54H1.102v5.016h14.117zm20.064-8.322V6.84h1.957V3.686h-1.957V1.14h-3.249v8.094h3.249zm-4.294-.247V6.384h-6.574v-2.47h5.681V1.311h-8.93v7.676h9.823zm4.655 8.569v-2.242H24.776v-.57h10.507V9.709H21.527v2.223h10.507v.57H21.527v5.054h14.117zm20.425-7.847V1.311H41.781v8.398h14.288zM52.82 6.707h-7.79V4.313h7.79v2.394zm-2.109 11.02v-3.553h6.061v-3.04H41.059v3.04h6.08v3.553h3.572zM72.77 11.78V9.025H61.56V7.828h11.039V1.311H58.311v2.755H69.35v1.121H58.311v6.593H72.77zm.532 5.225v-2.983H70.3v-1.881h-3.249v1.881H63.84v-1.881h-3.249v1.881h-3.002v2.983h15.713zM89.3 11.951V9.196H78.09V7.904h11.039V1.311H74.841v2.774H85.88v1.14H74.841v6.726H89.3zm.532 5.054v-2.983h-6.118V12.35h-3.553v1.672h-6.042v2.983h15.713zm19.722.551V1.14h-3.249v16.416h3.249zm-12.331-.494c.507-.684.966-1.406 1.377-2.166.412-.76.783-1.558 1.112-2.394.443.836.94 1.643 1.492 2.422a14.3 14.3 0 001.776 2.081l2.527-2.071a17.057 17.057 0 01-2.708-3.22 19.751 19.751 0 01-1.928-3.81c.076-.557.136-1.134.18-1.729.045-.595.08-1.216.105-1.862h3.439V1.311h-9.519v3.002h2.831a24.796 24.796 0 01-.275 3.316 18.208 18.208 0 01-.675 2.84c-.291.9-.652 1.758-1.083 2.575-.43.816-.931 1.63-1.501 2.441l2.85 1.577zm28.861-10.564V1.311h-14.288v2.983h11.039v2.204h3.249zm.703 3.439V7.125h-15.713v2.812h15.713zm-.703 7.619v-6.707h-14.288v6.707h14.288zm-3.249-2.698h-7.79v-1.292h7.79v1.292zm23.674 2.698V1.14h-3.249v16.416h3.249zm-12.331-.494c.405-.76.766-1.549 1.083-2.366.317-.816.595-1.656.836-2.517a20.89 20.89 0 001.51 2.612c.564.83 1.175 1.568 1.834 2.214l2.47-2.014a13.157 13.157 0 01-1.567-1.758 22.337 22.337 0 01-1.359-2.042c-.405-.71-.77-1.44-1.093-2.195a17.201 17.201 0 01-.788-2.251c.101-.912.174-1.82.218-2.726.045-.906.067-1.809.067-2.708h-3.249c0 2.597-.206 5.098-.617 7.505a22.265 22.265 0 01-2.385 6.878l3.04 1.368zm28.5-6.118v-3.23h1.957V4.522h-1.957V1.14h-3.249v9.804h3.249zm-12.407.38a8.883 8.883 0 001.625-1.32 9.06 9.06 0 001.32-1.739c.469.557.985 1.077 1.548 1.558.564.481 1.137.88 1.72 1.197l1.976-2.185a11.656 11.656 0 01-2.175-1.577 12.027 12.027 0 01-1.796-1.995c.05-.215.098-.428.142-.636.045-.21.086-.428.124-.656h2.926v-2.66h-9.12v2.66h2.964c-.228 1.178-.659 2.23-1.292 3.154a7.163 7.163 0 01-2.375 2.204l2.413 1.995zm12.407 6.403v-6.118h-13.927v2.907h10.678v3.211h3.249z"/><g transform="rotate(-180 95 9.5)"><circle cx="9.5" cy="9.5" r="9.5" fill="#142251" fill-rule="nonzero"/><mask id="btb" fill="#fff"><use xlink:href="#bta"/></mask><path fill="#03C75A" fill-rule="nonzero" d="M10.186 4.961l1.478 1.478L8.603 9.5l3.061 3.061-1.478 1.478L5.647 9.5z" mask="url(#btb)"/></g></g></svg><svg width="208" height="28" viewBox="-4 -4 208 28" id="text_start_free_for_a_month_200x20" xmlns="http://www.w3.org/2000/svg"><defs><circle id="bua" cx="10" cy="10" r="10"/></defs><g fill="none" fill-rule="evenodd"><path fill="#142251" fill-rule="nonzero" d="M10.76 4.4V1.76h-3.6V.44H3.7v1.32H.22V4.4h10.54zm4.88 9.52V9h2.06V5.64h-2.06V1.2h-3.42v12.72h3.42zM5.48 12.68c.68 0 1.307-.093 1.88-.28a4.388 4.388 0 001.48-.8 3.59 3.59 0 00.99-1.25 3.68 3.68 0 00.35-1.61 3.68 3.68 0 00-.35-1.61 3.59 3.59 0 00-.99-1.25 4.513 4.513 0 00-1.48-.81 5.859 5.859 0 00-1.88-.29c-.68 0-1.31.097-1.89.29a4.494 4.494 0 00-1.49.81 3.702 3.702 0 00-.97 1.25 3.68 3.68 0 00-.35 1.61c0 .587.117 1.123.35 1.61.233.487.557.903.97 1.25.413.347.91.613 1.49.8.58.187 1.21.28 1.89.28zm0-2.58c-.453 0-.817-.13-1.09-.39-.273-.26-.41-.583-.41-.97s.137-.72.41-1c.273-.28.637-.42 1.09-.42.44 0 .803.14 1.09.42.287.28.43.613.43 1s-.143.71-.43.97c-.287.26-.65.39-1.09.39zm10.54 8.38v-3.12H4.58V13.2H1.16v5.28h14.86zm21.12-8.76V7.2h2.06V3.88h-2.06V1.2h-3.42v8.52h3.42zm-4.52-.26V6.72H25.7v-2.6h5.98V1.38h-9.4v8.08h10.34zm4.9 9.02v-2.36H26.08v-.6h11.06v-5.3H22.66v2.34h11.06v.6H22.66v5.32h14.86zm21.5-8.26V1.38H43.98v8.84h15.04zM55.6 7.06h-8.2V4.54h8.2v2.52zm-2.22 11.6v-3.74h6.38v-3.2H43.22v3.2h6.4v3.74h3.76zM76.6 12.4V9.5H64.8V8.24h11.62V1.38H61.38v2.9H73v1.18H61.38v6.94H76.6zm.56 5.5v-3.14H74v-1.98h-3.42v1.98H67.2v-1.98h-3.42v1.98h-3.16v3.14h16.54zM94 12.58v-2.9H82.2V8.32h11.62V1.38H78.78V4.3H90.4v1.2H78.78v7.08H94zm.56 5.32v-3.14h-6.44V13h-3.74v1.76h-6.36v3.14h16.54zm20.76.58V1.2h-3.42v17.28h3.42zm-12.98-.52a19.14 19.14 0 001.45-2.28c.433-.8.823-1.64 1.17-2.52.467.88.99 1.73 1.57 2.55.58.82 1.203 1.55 1.87 2.19l2.66-2.18c-1.08-1-2.03-2.13-2.85-3.39a20.77 20.77 0 01-2.03-4.01c.08-.587.143-1.193.19-1.82.047-.627.083-1.28.11-1.96h3.62V1.38h-10.02v3.16h2.98a26.08 26.08 0 01-.29 3.49 19.037 19.037 0 01-.71 2.99 17.15 17.15 0 01-1.14 2.71c-.453.86-.98 1.717-1.58 2.57l3 1.66zm30.38-11.12V1.38h-15.04v3.14h11.62v2.32h3.42zm.74 3.62V7.5h-16.54v2.96h16.54zm-.74 8.02v-7.06h-15.04v7.06h15.04zm-3.42-2.84h-8.2v-1.36h8.2v1.36zm24.92 2.84V1.2h-3.42v17.28h3.42zm-12.98-.52c.427-.8.807-1.63 1.14-2.49.333-.86.627-1.743.88-2.65.467.96.997 1.877 1.59 2.75.593.873 1.237 1.65 1.93 2.33l2.6-2.12a13.826 13.826 0 01-1.65-1.85 23.658 23.658 0 01-1.43-2.15 22.579 22.579 0 01-1.15-2.31 17.85 17.85 0 01-.83-2.37c.107-.96.183-1.917.23-2.87.047-.953.07-1.903.07-2.85h-3.42a46.83 46.83 0 01-.65 7.9 23.428 23.428 0 01-2.51 7.24l3.2 1.44zm30-6.44v-3.4h2.06V4.76h-2.06V1.2h-3.42v10.32h3.42zm-13.06.4a9.39 9.39 0 001.71-1.39c.527-.54.99-1.15 1.39-1.83a14.02 14.02 0 001.63 1.64c.593.507 1.197.927 1.81 1.26l2.08-2.3a12.338 12.338 0 01-2.29-1.66 12.717 12.717 0 01-1.89-2.1c.053-.227.103-.45.15-.67.047-.22.09-.45.13-.69h3.08v-2.8h-9.6v2.8h3.12c-.24 1.24-.693 2.347-1.36 3.32a7.558 7.558 0 01-2.5 2.32l2.54 2.1zm13.06 6.74v-6.44h-14.66v3.06h11.24v3.38h3.42z"/><g transform="rotate(-180 100 10)"><circle cx="10" cy="10" r="10" fill="#142251" fill-rule="nonzero"/><mask id="bub" fill="#fff"><use xlink:href="#bua"/></mask><path fill="#03C75A" fill-rule="nonzero" d="M10.722 5.222l1.556 1.556L9.056 10l3.222 3.222-1.556 1.556L5.944 10z" mask="url(#bub)"/></g></g></svg><svg width="36" height="19" viewBox="-4 -4 36 19" id="text_tip_28x11_red" x="297" y="124" xmlns="http://www.w3.org/2000/svg"><path fill="#E2232B" d="M6.17 10l.108-.463a5.087 5.087 0 01-.483-.08 2.516 2.516 0 01-.444-.124.417.417 0 01-.225-.187.584.584 0 01-.06-.27c0-.03.005-.077.015-.142.01-.066.025-.135.042-.207L6.74 1.526h.318c.143 0 .314.006.51.019.197.013.36.027.486.044.144.026.268.11.372.254.103.144.2.326.288.546.085.212.152.425.2.641.049.216.082.396.099.54h.488L10.1.993H1.371L.774 3.57h.49c.097-.165.214-.344.351-.537.138-.192.313-.407.524-.644.178-.19.36-.366.55-.527.188-.16.358-.251.51-.273.208-.02.393-.037.556-.047.163-.01.324-.016.485-.016h.248L2.825 8.718a1.041 1.041 0 01-.178.406.863.863 0 01-.38.273 2.552 2.552 0 01-.49.089c-.228.025-.402.042-.52.05L1.149 10h5.02zm7.331 0l.108-.463c-.41-.038-.714-.099-.91-.181a.444.444 0 01-.296-.441c0-.034.006-.083.016-.146.01-.064.025-.132.041-.204l1.454-6.303c.034-.144.092-.274.175-.39a.71.71 0 01.384-.257c.105-.034.264-.067.476-.099.211-.031.385-.051.52-.06l.108-.463h-4.995l-.108.463c.406.06.707.139.904.238.197.1.295.238.295.416 0 .03-.004.074-.012.133-.009.06-.024.133-.045.222l-1.453 6.297a1 1 0 01-.181.39.765.765 0 01-.378.251c-.114.038-.277.07-.489.092a7.197 7.197 0 01-.501.042L8.506 10H13.5zm5.796 0l.108-.463c-.457-.047-.764-.115-.92-.204a.445.445 0 01-.235-.418c0-.034.005-.083.015-.146.011-.064.025-.132.042-.204l.565-2.443h.914c.66 0 1.264-.066 1.812-.197s1.044-.332 1.488-.603c.449-.28.793-.625 1.032-1.038.239-.413.359-.88.359-1.4 0-.643-.258-1.119-.772-1.428-.514-.309-1.296-.463-2.345-.463h-4.881l-.108.463c.406.06.699.139.879.238.18.1.27.238.27.416 0 .03-.005.074-.013.133-.009.06-.023.133-.045.222L16.01 8.762a.96.96 0 01-.181.387.782.782 0 01-.378.248 2.638 2.638 0 01-.466.092c-.21.028-.367.043-.473.048l-.108.463h4.894zm.12-4.443h-.412l.927-4.018h.463c.554 0 .954.113 1.2.34.245.226.368.567.368 1.024 0 .377-.047.724-.14 1.041a2.328 2.328 0 01-.431.832c-.204.245-.47.437-.797.574-.328.138-.72.207-1.178.207zm6.462 4.627c.339 0 .632-.123.88-.368.247-.246.37-.535.37-.87 0-.334-.123-.626-.37-.876a1.197 1.197 0 00-.88-.374 1.21 1.21 0 00-.885.371 1.2 1.2 0 00-.371.88c0 .338.123.629.37.872.248.243.544.365.886.365z"/></svg><svg width="16" height="17" viewBox="-4 -4 16 17" id="text_v_8x9_white" x="129" y="254" xmlns="http://www.w3.org/2000/svg"><path fill="#FFF" fill-rule="evenodd" d="M5.201 0L3.606 6.709 2.013 0H0l2.456 8.984h2.302L7.212 0z"/></svg><svg width="32" height="19" viewBox="-4 -4 32 19" id="text_vip_24x11_red" x="42" y="254" xmlns="http://www.w3.org/2000/svg"><g fill="none" fill-rule="evenodd"><path fill="#FFF" d="M-128-100h375v589h-375z"/><path fill="#E8ECEF" fill-rule="nonzero" d="M-128-98h375v833h-375z"/><path fill="#FFF" fill-rule="nonzero" d="M-128-100h375V71h-375z"/><path fill="#E13030" d="M.336.2h2.38l2.562 6.902L7.84.2h2.324l-3.962 9.87H4.298L.336.2zm11.138 0h2.156V10h-2.156V.2zm8.17 4.942c.541 0 .961-.142 1.26-.427a1.4 1.4 0 00.448-1.057V3.63c0-.485-.156-.854-.469-1.106-.313-.252-.74-.378-1.281-.378h-1.666v2.996h1.708zM15.78.2h4.004c.588 0 1.113.082 1.575.245.462.163.854.394 1.176.693.322.299.57.656.742 1.071.173.415.259.875.259 1.379v.028c0 .57-.103 1.069-.308 1.498-.205.43-.488.789-.847 1.078-.36.29-.78.506-1.26.651-.48.145-.996.217-1.547.217h-1.638V10H15.78V.2z"/></g></svg><svg width="35" height="20" viewBox="-4 -4 35 20" id="text_vip_27x12_red" x="295" y="146" xmlns="http://www.w3.org/2000/svg"><path fill="#E13030" d="M1.36.5h2.55l2.745 7.395L9.4.5h2.49L7.645 11.075h-2.04L1.36.5zm12.068 0h2.31V11h-2.31V.5zm8.887 5.295c.58 0 1.03-.152 1.35-.457.32-.306.48-.683.48-1.133v-.03c0-.52-.167-.915-.503-1.185-.335-.27-.792-.405-1.372-.405h-1.785v3.21h1.83zM18.175.5h4.29c.63 0 1.192.087 1.688.262a3.58 3.58 0 011.26.743c.345.32.61.702.794 1.147a3.8 3.8 0 01.278 1.478v.03c0 .61-.11 1.145-.33 1.605-.22.46-.522.845-.908 1.155-.385.31-.834.542-1.35.697a5.724 5.724 0 01-1.657.233h-1.755V11h-2.31V.5z" fill-rule="evenodd"/></svg><svg width="42" height="19" viewBox="-4 -4 42 19" id="text_vvip_34x11_purple" x="266" y="201" xmlns="http://www.w3.org/2000/svg"><g fill="none" fill-rule="evenodd"><path fill="#FFF" d="M-29-100h375v589H-29z"/><path fill="#E8ECEF" fill-rule="nonzero" d="M-29-98h375v833H-29z"/><path fill="#FFF" fill-rule="nonzero" d="M-29-100h375V71H-29z"/><path fill="#7E35AE" d="M.336.2h2.38l2.562 6.902L7.84.2h2.324l-3.962 9.87H4.298L.336.2zm10.2 0h2.38l2.562 6.902L18.04.2h2.324l-3.962 9.87h-1.904L10.536.2zm11.138 0h2.156V10h-2.156V.2zm8.17 4.942c.541 0 .961-.142 1.26-.427a1.4 1.4 0 00.448-1.057V3.63c0-.485-.156-.854-.469-1.106-.313-.252-.74-.378-1.281-.378h-1.666v2.996h1.708zM25.98.2h4.004c.588 0 1.113.082 1.575.245.462.163.854.394 1.176.693.322.299.57.656.742 1.071.173.415.259.875.259 1.379v.028c0 .57-.103 1.069-.308 1.498-.205.43-.488.789-.847 1.078-.36.29-.78.506-1.26.651-.48.145-.996.217-1.547.217h-1.638V10H25.98V.2z"/></g></svg><svg width="46" height="20" viewBox="-4 -4 46 20" id="text_vvip_38x12_purple" x="49" y="234" xmlns="http://www.w3.org/2000/svg"><path fill="#7E35AE" d="M1.36.5h2.55l2.745 7.395L9.4.5h2.49L7.645 11.075h-2.04L1.36.5zm11.063 0h2.55l2.745 7.395L20.462.5h2.49l-4.245 10.575h-2.04L12.422.5zM24.49.5h2.31V11h-2.31V.5zm8.887 5.295c.58 0 1.03-.152 1.35-.457.32-.306.48-.683.48-1.133v-.03c0-.52-.167-.915-.502-1.185-.335-.27-.792-.405-1.372-.405h-1.785v3.21h1.83zM29.237.5h4.29c.63 0 1.193.087 1.688.262a3.58 3.58 0 011.26.743c.345.32.61.702.795 1.147.185.446.277.938.277 1.478v.03c0 .61-.11 1.145-.33 1.605-.22.46-.522.845-.907 1.155-.385.31-.835.542-1.35.697a5.724 5.724 0 01-1.657.233h-1.755V11h-2.31V.5z" fill-rule="evenodd"/></svg><svg width="101" height="17" viewBox="-4 -4 101 17" id="text_zzim_purchasable_93x9_blue" x="208" y="86" xmlns="http://www.w3.org/2000/svg"><g fill="#6b90dc" fill-rule="evenodd"><path d="M4.976 3.493c-.098.226-.501.57-1.16.991-.57.363-1.198.746-2.015 1.198l-.482-.766c.787-.432 1.406-.784 2.065-1.226.895-.609 1.1-1.031 1.1-1.992V.707h.984v.99c0 .962.147 1.364 1.209 2.062.62.402 1.189.725 1.966 1.147l-.471.756a50.824 50.824 0 01-2.035-1.198c-.64-.401-1.043-.745-1.151-.97h-.01zM.818 7.91h8.317v-.824H.818v.824zm15.989-4.368h-4.955V4.73h5.16v.825h-2.604v1.53h3.677v.825H9.769v-.824h3.676v-1.53H10.89V.725h5.987v.824h-5.024v1.188h4.955zm5.836.516v-.722c0-1.339-.639-1.814-1.347-1.814-.709 0-1.348.475-1.348 1.814v.722c0 1.339.64 1.814 1.348 1.814.708 0 1.347-.475 1.347-1.814zm2.685 4.768V3.972h-1.75v.219c0 1.671-.955 2.526-2.282 2.526-1.328 0-2.282-.855-2.282-2.526v-.988c0-1.68.954-2.536 2.282-2.536 1.307 0 2.262.846 2.282 2.48h1.75V.067h.974v8.758h-.974zm9.124-3.813h.934V.069h-.934v4.944zM30.5 8.01h3.922V6.236H30.5V8.01zm.295-4.402c.256-.247.364-.38.531-.627.217-.331.294-.503.294-1.148v-.445h-1.65v.445c0 .645.078.817.294 1.148.167.248.275.38.531.627zm-1.258 5.199h5.85V5.439h-5.85v3.368zm3.982-7.419h-1.004v.445c0 .664.099.874.443 1.385.256.38.472.636.874 1.082l-.638.522a14.694 14.694 0 01-.748-.901c-.177-.237-.354-.522-.382-.617h-.01c-.04.095-.177.304-.423.598a8.01 8.01 0 01-.826.853h-.02a8.01 8.01 0 01-.826-.853c-.246-.294-.383-.503-.422-.598h-.01c-.03.095-.196.38-.373.617-.217.285-.453.588-.827.996l-.648-.512c.433-.465.707-.807.963-1.187.344-.511.433-.721.433-1.385v-.445h-1.032V.581h5.476v.807zm9.795 7.429h.963V.067h-.963v8.75zm-2.3-4.821v-.21c0-.398-.443-.796-1.259-.796-.826 0-1.258.398-1.258.797v.209c0 .399.442.796 1.258.796.826 0 1.258-.397 1.258-.796zM42.33 1.86h-5.24v-.807h2.174V0h.962v1.053h2.104v.807zm.531 5.153c-1.641.152-2.909.21-6.016.21v-.797c.984 0 1.79 0 2.487-.02v-.863c-1.13-.133-1.779-.78-1.779-1.471V3.71c0-.77.815-1.49 2.202-1.49 1.386 0 2.203.72 2.203 1.49v.36c0 .664-.61 1.291-1.663 1.453v.853a35.586 35.586 0 002.488-.161l.078.797zm9.315-.095v-.786h-1.917v-.797h1.917V.069h.962v6.849h-.962zm-2.31-4.93v-.193c0-.374-.473-.757-1.308-.757-.835 0-1.307.383-1.307.757v.192c0 .374.472.768 1.307.768s1.307-.394 1.307-.768zm-1.692 6.024h5.151v.815h-6.123v-2.37h.972v1.555zm-1.848-5.967v-.307c0-.786.846-1.506 2.232-1.506 1.386 0 2.232.72 2.232 1.506v.307c0 .786-.846 1.506-2.232 1.506-1.386 0-2.232-.72-2.232-1.506zm1.652 4.057V4.836a80.69 80.69 0 01-2.24.029V4.04c2.172.01 3.626-.038 5.78-.21l.067.795a41.75 41.75 0 01-2.643.182v1.295h-.964zm17.317-1.541v.796h-3.667v3.47h-.983v-3.47h-3.667V4.56h5.8a11.63 11.63 0 00.285-2.597v-.511h-5.042V.628h6.016v1.118c0 .91-.09 1.867-.276 2.815h1.534zm8.527 4.266h-.953V4.002h-1.032v4.397h-.953V.249h.953v2.935h1.032V.07h.953v8.758zm-6.566-3.145h1.75v-3.98h-1.75v3.98zm-.954.798h3.657V.904h-3.657V6.48zm17.07-2.355h-1.395v4.701h-.974V.07h.974v3.239h1.395v.817zm-8.306 2.022c3.136-1.775 3.254-2.26 3.254-3.608v-.846h-3.078V.886h4.04v1.662c0 1.729-.117 2.25-3.705 4.35l-.51-.75zm11.054.938v.204c0 .446.757.844 1.868.844 1.11 0 1.867-.398 1.867-.844v-.204c0-.446-.757-.846-1.867-.846-1.11 0-1.868.4-1.868.846zm-.963.26v-.316c0-.892 1.1-1.54 2.83-1.54s2.831.658 2.831 1.54v.316c0 .862-1.09 1.54-2.83 1.54-1.73 0-2.831-.668-2.831-1.54zM86.05.383v2.06h4.905v.78h-5.868V.383h.963zm-2.222 4.492h8.317v-.78H83.83v.78z"/><path d="M4.976 3.493c-.098.226-.501.57-1.16.991-.57.363-1.198.746-2.015 1.198l-.482-.766c.787-.432 1.406-.784 2.065-1.226.895-.609 1.1-1.031 1.1-1.992V.707h.984v.99c0 .962.147 1.364 1.209 2.062.62.402 1.189.725 1.966 1.147l-.471.756a50.824 50.824 0 01-2.035-1.198c-.64-.401-1.043-.745-1.151-.97h-.01zM.818 7.91h8.317v-.824H.818v.824zm15.989-4.368h-4.955V4.73h5.16v.825h-2.604v1.53h3.677v.825H9.769v-.824h3.676v-1.53H10.89V.725h5.987v.824h-5.024v1.188h4.955zm5.836.516v-.722c0-1.339-.639-1.814-1.347-1.814-.709 0-1.348.475-1.348 1.814v.722c0 1.339.64 1.814 1.348 1.814.708 0 1.347-.475 1.347-1.814zm2.685 4.768V3.972h-1.75v.219c0 1.671-.955 2.526-2.282 2.526-1.328 0-2.282-.855-2.282-2.526v-.988c0-1.68.954-2.536 2.282-2.536 1.307 0 2.262.846 2.282 2.48h1.75V.067h.974v8.758h-.974zm9.124-3.813h.934V.069h-.934v4.944zM30.5 8.01h3.922V6.236H30.5V8.01zm.295-4.402c.256-.247.364-.38.531-.627.217-.331.294-.503.294-1.148v-.445h-1.65v.445c0 .645.078.817.294 1.148.167.248.275.38.531.627zm-1.258 5.199h5.85V5.439h-5.85v3.368zm3.982-7.419h-1.004v.445c0 .664.099.874.443 1.385.256.38.472.636.874 1.082l-.638.522a14.694 14.694 0 01-.748-.901c-.177-.237-.354-.522-.382-.617h-.01c-.04.095-.177.304-.423.598a8.01 8.01 0 01-.826.853h-.02a8.01 8.01 0 01-.826-.853c-.246-.294-.383-.503-.422-.598h-.01c-.03.095-.196.38-.373.617-.217.285-.453.588-.827.996l-.648-.512c.433-.465.707-.807.963-1.187.344-.511.433-.721.433-1.385v-.445h-1.032V.581h5.476v.807zm9.795 7.429h.963V.067h-.963v8.75zm-2.3-4.821v-.21c0-.398-.443-.796-1.259-.796-.826 0-1.258.398-1.258.797v.209c0 .399.442.796 1.258.796.826 0 1.258-.397 1.258-.796zM42.33 1.86h-5.24v-.807h2.174V0h.962v1.053h2.104v.807zm.531 5.153c-1.641.152-2.909.21-6.016.21v-.797c.984 0 1.79 0 2.487-.02v-.863c-1.13-.133-1.779-.78-1.779-1.471V3.71c0-.77.815-1.49 2.202-1.49 1.386 0 2.203.72 2.203 1.49v.36c0 .664-.61 1.291-1.663 1.453v.853a35.586 35.586 0 002.488-.161l.078.797zm9.315-.095v-.786h-1.917v-.797h1.917V.069h.962v6.849h-.962zm-2.31-4.93v-.193c0-.374-.473-.757-1.308-.757-.835 0-1.307.383-1.307.757v.192c0 .374.472.768 1.307.768s1.307-.394 1.307-.768zm-1.692 6.024h5.151v.815h-6.123v-2.37h.972v1.555zm-1.848-5.967v-.307c0-.786.846-1.506 2.232-1.506 1.386 0 2.232.72 2.232 1.506v.307c0 .786-.846 1.506-2.232 1.506-1.386 0-2.232-.72-2.232-1.506zm1.652 4.057V4.836a80.69 80.69 0 01-2.24.029V4.04c2.172.01 3.626-.038 5.78-.21l.067.795a41.75 41.75 0 01-2.643.182v1.295h-.964zm17.317-1.541v.796h-3.667v3.47h-.983v-3.47h-3.667V4.56h5.8a11.63 11.63 0 00.285-2.597v-.511h-5.042V.628h6.016v1.118c0 .91-.09 1.867-.276 2.815h1.534zm8.527 4.266h-.953V4.002h-1.032v4.397h-.953V.249h.953v2.935h1.032V.07h.953v8.758zm-6.566-3.145h1.75v-3.98h-1.75v3.98zm-.954.798h3.657V.904h-3.657V6.48zm17.07-2.355h-1.395v4.701h-.974V.07h.974v3.239h1.395v.817zm-8.306 2.022c3.136-1.775 3.254-2.26 3.254-3.608v-.846h-3.078V.886h4.04v1.662c0 1.729-.117 2.25-3.705 4.35l-.51-.75zm11.054.938v.204c0 .446.757.844 1.868.844 1.11 0 1.867-.398 1.867-.844v-.204c0-.446-.757-.846-1.867-.846-1.11 0-1.868.4-1.868.846zm-.963.26v-.316c0-.892 1.1-1.54 2.83-1.54s2.831.658 2.831 1.54v.316c0 .862-1.09 1.54-2.83 1.54-1.73 0-2.831-.668-2.831-1.54zM86.05.383v2.06h4.905v.78h-5.868V.383h.963zm-2.222 4.492h8.317v-.78H83.83v.78z" opacity=".4"/></g></svg></svg>